<?xml version="1.0" encoding="utf-8"?>
<!-- Generator: Adobe Illustrator 26.3.1, SVG Export Plug-In . SVG Version: 6.00 Build 0)  -->
<svg version="1.1" id="Layer_1" xmlns="http://www.w3.org/2000/svg" xmlns:xlink="http://www.w3.org/1999/xlink" x="0px" y="0px"
	 viewBox="0 0 350 350" enable-background="new 0 0 350 350" xml:space="preserve">
<g>
	<path fill="#898989" d="M66.2,80.3v5.3h5.1v1.2h-5.1v6.4h-1.3v-14h6.8v1.2H66.2z"/>
	<path fill="#898989" d="M79.2,93.1v-1.8h0c-0.3,0.6-0.8,1.1-1.3,1.5s-1.2,0.5-1.9,0.5c-0.5,0-0.9-0.1-1.3-0.2s-0.7-0.3-1-0.6
		S73.2,92,73,91.7s-0.2-0.7-0.2-1.2c0-0.9,0.3-1.6,0.8-2.2s1.4-0.9,2.5-1l3-0.4c0-1.9-0.7-2.9-2.2-2.9c-1.2,0-2.2,0.4-3.2,1.3v-1.4
		c0.2-0.1,0.4-0.3,0.7-0.4s0.5-0.2,0.8-0.3s0.6-0.2,0.9-0.2s0.6-0.1,0.9-0.1c1.1,0,2,0.3,2.5,0.9s0.9,1.6,0.9,2.8v6.5H79.2z
		 M76.7,88.3c-0.4,0.1-0.8,0.1-1.2,0.2s-0.6,0.2-0.8,0.4s-0.4,0.4-0.5,0.6s-0.1,0.5-0.1,0.9c0,0.3,0,0.5,0.1,0.7s0.2,0.4,0.4,0.6
		s0.4,0.3,0.7,0.4s0.5,0.1,0.9,0.1c0.4,0,0.8-0.1,1.2-0.3s0.7-0.4,1-0.7s0.5-0.7,0.6-1.1s0.2-0.9,0.2-1.4v-1L76.7,88.3z"/>
	<path fill="#898989" d="M82.9,91.3c0.2,0.1,0.4,0.3,0.6,0.4s0.4,0.2,0.7,0.3s0.5,0.1,0.7,0.2s0.5,0.1,0.7,0.1
		c1.5,0,2.2-0.6,2.2-1.7c0-0.3-0.1-0.5-0.2-0.7s-0.3-0.4-0.4-0.5s-0.4-0.3-0.7-0.4s-0.6-0.3-0.9-0.4c-0.5-0.2-0.9-0.4-1.2-0.6
		s-0.6-0.4-0.8-0.6s-0.4-0.5-0.5-0.8S83,86,83,85.7c0-0.4,0.1-0.8,0.3-1.2s0.5-0.6,0.8-0.9s0.7-0.4,1.1-0.6s0.9-0.2,1.3-0.2
		c0.9,0,1.6,0.2,2.3,0.5v1.3C88,84.2,87.2,84,86.3,84c-0.3,0-0.6,0-0.9,0.1s-0.5,0.2-0.7,0.3s-0.3,0.3-0.4,0.5s-0.2,0.4-0.2,0.7
		c0,0.2,0,0.5,0.1,0.6s0.2,0.4,0.4,0.5s0.4,0.3,0.6,0.4s0.6,0.3,1,0.4c0.5,0.2,0.9,0.4,1.2,0.6s0.6,0.4,0.9,0.6s0.4,0.5,0.5,0.8
		s0.2,0.6,0.2,1c0,0.4-0.1,0.8-0.3,1.2s-0.4,0.6-0.8,0.9s-0.7,0.4-1.2,0.5s-0.9,0.2-1.4,0.2c-1,0-1.9-0.2-2.5-0.6V91.3z"/>
	<path fill="#898989" d="M98.4,93.1v-5.9c0-1.1-0.2-1.9-0.6-2.5s-1-0.8-1.9-0.8c-0.4,0-0.8,0.1-1.2,0.2s-0.7,0.4-1,0.7
		s-0.5,0.7-0.7,1.1s-0.2,0.9-0.2,1.5v5.6h-1.2V78.3h1.2v6.5h0c0.8-1.3,1.9-2,3.4-2c1.1,0,1.9,0.3,2.5,1s0.8,1.7,0.8,3v6.2H98.4z"/>
	<path fill="#898989" d="M103.2,80.6c-0.2,0-0.4-0.1-0.6-0.3s-0.3-0.4-0.3-0.6c0-0.3,0.1-0.5,0.3-0.6s0.4-0.2,0.6-0.2
		c0.1,0,0.2,0,0.4,0.1s0.2,0.1,0.3,0.2s0.1,0.2,0.2,0.3s0.1,0.2,0.1,0.4c0,0.1,0,0.2-0.1,0.4s-0.1,0.2-0.2,0.3s-0.2,0.1-0.3,0.2
		S103.4,80.6,103.2,80.6z M102.6,93.1v-10h1.2v10H102.6z"/>
	<path fill="#898989" d="M111.2,93.4c-0.7,0-1.4-0.1-2-0.4s-1.1-0.6-1.5-1s-0.7-1-1-1.6s-0.3-1.3-0.3-2.1c0-0.8,0.1-1.6,0.4-2.2
		s0.6-1.2,1-1.7s1-0.8,1.6-1s1.3-0.4,2.1-0.4c0.7,0,1.4,0.1,2,0.4s1.1,0.6,1.5,1s0.7,1,0.9,1.6s0.3,1.4,0.3,2.2
		c0,0.8-0.1,1.5-0.3,2.1s-0.5,1.2-1,1.7s-0.9,0.8-1.5,1.1S111.9,93.4,111.2,93.4z M111.3,84c-0.5,0-1,0.1-1.5,0.3s-0.8,0.5-1.1,0.8
		s-0.6,0.8-0.7,1.3s-0.3,1.1-0.3,1.8c0,0.6,0.1,1.2,0.3,1.7s0.4,0.9,0.7,1.3s0.7,0.6,1.1,0.8s0.9,0.3,1.5,0.3c0.6,0,1.1-0.1,1.5-0.3
		s0.8-0.5,1.1-0.8s0.5-0.8,0.7-1.3s0.2-1.1,0.2-1.8c0-1.3-0.3-2.4-0.9-3.1S112.4,84,111.3,84z"/>
	<path fill="#898989" d="M125.3,93.1v-5.8c0-2.3-0.8-3.4-2.5-3.4c-0.4,0-0.8,0.1-1.2,0.3s-0.7,0.4-1,0.7s-0.5,0.7-0.6,1.1
		s-0.2,0.9-0.2,1.4v5.7h-1.2v-10h1.2v1.7h0c0.7-1.3,1.9-2,3.3-2c1.1,0,1.9,0.4,2.5,1.1s0.9,1.7,0.9,3.1v6.1H125.3z"/>
	<path fill="#898989" d="M136.5,93.1h-1.3v-14h1.3V93.1z"/>
	<path fill="#898989" d="M140,93.1V78.3h1.2v14.8H140z"/>
	<path fill="#898989" d="M144.5,93.1V78.3h1.2v14.8H144.5z"/>
	<path fill="#898989" d="M155.5,93.1v-1.7h0c-0.7,1.3-1.7,1.9-3.2,1.9c-2.4,0-3.6-1.5-3.6-4.4v-5.9h1.2v5.6c0,1.2,0.2,2.1,0.6,2.7
		s1.1,0.9,2,0.9c0.4,0,0.8-0.1,1.2-0.2s0.7-0.4,0.9-0.7s0.5-0.7,0.6-1.1s0.2-0.9,0.2-1.4v-5.7h1.2v10H155.5z"/>
	<path fill="#898989" d="M159.4,91.3c0.2,0.1,0.4,0.3,0.6,0.4s0.4,0.2,0.7,0.3s0.5,0.1,0.7,0.2s0.5,0.1,0.7,0.1
		c1.5,0,2.2-0.6,2.2-1.7c0-0.3-0.1-0.5-0.2-0.7s-0.3-0.4-0.4-0.5s-0.4-0.3-0.7-0.4s-0.6-0.3-0.9-0.4c-0.5-0.2-0.9-0.4-1.2-0.6
		s-0.6-0.4-0.8-0.6s-0.4-0.5-0.5-0.8s-0.2-0.6-0.2-0.9c0-0.4,0.1-0.8,0.3-1.2s0.5-0.6,0.8-0.9s0.7-0.4,1.1-0.6s0.9-0.2,1.3-0.2
		c0.9,0,1.6,0.2,2.3,0.5v1.3c-0.7-0.5-1.6-0.7-2.4-0.7c-0.3,0-0.6,0-0.9,0.1s-0.5,0.2-0.7,0.3s-0.3,0.3-0.4,0.5s-0.2,0.4-0.2,0.7
		c0,0.2,0,0.5,0.1,0.6s0.2,0.4,0.4,0.5s0.4,0.3,0.6,0.4s0.6,0.3,1,0.4c0.5,0.2,0.9,0.4,1.2,0.6s0.6,0.4,0.9,0.6s0.4,0.5,0.5,0.8
		s0.2,0.6,0.2,1c0,0.4-0.1,0.8-0.3,1.2s-0.4,0.6-0.8,0.9s-0.7,0.4-1.2,0.5s-0.9,0.2-1.4,0.2c-1,0-1.9-0.2-2.5-0.6V91.3z"/>
	<path fill="#898989" d="M172.4,93c-0.4,0.2-0.9,0.3-1.4,0.3c-1.6,0-2.4-0.9-2.4-2.8v-6.3h-1.8v-1.1h1.8v-2.5l1.2-0.4v2.9h2.6v1.1
		h-2.6v6.1c0,0.7,0.1,1.2,0.3,1.5s0.6,0.4,1.1,0.4c0.4,0,0.8-0.1,1.1-0.4V93z"/>
	<path fill="#898989" d="M179.4,84.4c-0.3-0.2-0.7-0.3-1.1-0.3c-0.3,0-0.6,0.1-0.9,0.2s-0.5,0.3-0.7,0.5c-0.2,0.2-0.4,0.5-0.5,0.7
		c-0.1,0.3-0.2,0.6-0.3,0.9s-0.1,0.6-0.2,0.9s-0.1,0.6-0.1,0.9v4.9h-1.2v-10h1.2v2.1h0c0.1-0.4,0.3-0.7,0.4-1
		c0.2-0.3,0.4-0.5,0.6-0.7s0.5-0.3,0.8-0.5c0.3-0.1,0.6-0.2,0.9-0.2c0.2,0,0.4,0,0.5,0c0.2,0,0.3,0.1,0.4,0.1V84.4z"/>
	<path fill="#898989" d="M187,93.1v-1.8h0c-0.3,0.6-0.8,1.1-1.3,1.5c-0.6,0.4-1.2,0.5-1.9,0.5c-0.5,0-0.9-0.1-1.3-0.2
		c-0.4-0.1-0.7-0.3-1-0.6c-0.3-0.3-0.5-0.6-0.6-0.9s-0.2-0.7-0.2-1.2c0-0.9,0.3-1.6,0.8-2.2c0.6-0.5,1.4-0.9,2.5-1l3-0.4
		c0-1.9-0.7-2.9-2.2-2.9c-1.2,0-2.2,0.4-3.2,1.3v-1.4c0.2-0.1,0.4-0.3,0.7-0.4s0.5-0.2,0.8-0.3s0.6-0.2,0.9-0.2
		c0.3,0,0.6-0.1,0.9-0.1c1.1,0,2,0.3,2.5,0.9c0.6,0.6,0.9,1.6,0.9,2.8v6.5H187z M184.4,88.3c-0.4,0.1-0.8,0.1-1.2,0.2
		c-0.3,0.1-0.6,0.2-0.8,0.4c-0.2,0.2-0.4,0.4-0.5,0.6s-0.1,0.5-0.1,0.9c0,0.3,0,0.5,0.1,0.7c0.1,0.2,0.2,0.4,0.4,0.6
		c0.2,0.2,0.4,0.3,0.7,0.4c0.3,0.1,0.5,0.1,0.9,0.1c0.4,0,0.8-0.1,1.2-0.3s0.7-0.4,1-0.7c0.3-0.3,0.5-0.7,0.6-1.1
		c0.2-0.4,0.2-0.9,0.2-1.4v-1L184.4,88.3z"/>
	<path fill="#898989" d="M195.5,93c-0.4,0.2-0.9,0.3-1.4,0.3c-1.6,0-2.4-0.9-2.4-2.8v-6.3h-1.8v-1.1h1.8v-2.5l1.2-0.4v2.9h2.6v1.1
		h-2.6v6.1c0,0.7,0.1,1.2,0.3,1.5c0.2,0.3,0.6,0.4,1.1,0.4c0.4,0,0.8-0.1,1.1-0.4V93z"/>
	<path fill="#898989" d="M198.2,80.6c-0.2,0-0.4-0.1-0.6-0.3s-0.3-0.4-0.3-0.6c0-0.3,0.1-0.5,0.3-0.6s0.4-0.2,0.6-0.2
		c0.1,0,0.2,0,0.4,0.1c0.1,0,0.2,0.1,0.3,0.2c0.1,0.1,0.1,0.2,0.2,0.3s0.1,0.2,0.1,0.4c0,0.1,0,0.2-0.1,0.4c0,0.1-0.1,0.2-0.2,0.3
		c-0.1,0.1-0.2,0.1-0.3,0.2S198.3,80.6,198.2,80.6z M197.6,93.1v-10h1.2v10H197.6z"/>
	<path fill="#898989" d="M206.1,93.4c-0.7,0-1.4-0.1-2-0.4c-0.6-0.2-1.1-0.6-1.5-1c-0.4-0.5-0.7-1-1-1.6c-0.2-0.6-0.3-1.3-0.3-2.1
		c0-0.8,0.1-1.6,0.4-2.2s0.6-1.2,1-1.7c0.4-0.5,1-0.8,1.6-1c0.6-0.2,1.3-0.4,2.1-0.4c0.7,0,1.4,0.1,2,0.4c0.6,0.2,1.1,0.6,1.5,1
		c0.4,0.4,0.7,1,0.9,1.6s0.3,1.4,0.3,2.2c0,0.8-0.1,1.5-0.3,2.1s-0.5,1.2-1,1.7c-0.4,0.5-0.9,0.8-1.5,1.1
		C207.6,93.2,206.9,93.4,206.1,93.4z M206.2,84c-0.5,0-1,0.1-1.5,0.3c-0.4,0.2-0.8,0.5-1.1,0.8c-0.3,0.4-0.6,0.8-0.7,1.3
		c-0.2,0.5-0.3,1.1-0.3,1.8c0,0.6,0.1,1.2,0.3,1.7c0.2,0.5,0.4,0.9,0.7,1.3c0.3,0.4,0.7,0.6,1.1,0.8c0.4,0.2,0.9,0.3,1.5,0.3
		c0.6,0,1.1-0.1,1.5-0.3s0.8-0.5,1.1-0.8c0.3-0.4,0.5-0.8,0.7-1.3c0.2-0.5,0.2-1.1,0.2-1.8c0-1.3-0.3-2.4-0.9-3.1
		C208.2,84.3,207.4,84,206.2,84z"/>
	<path fill="#898989" d="M220.3,93.1v-5.8c0-2.3-0.8-3.4-2.5-3.4c-0.4,0-0.8,0.1-1.2,0.3s-0.7,0.4-1,0.7c-0.3,0.3-0.5,0.7-0.6,1.1
		c-0.2,0.4-0.2,0.9-0.2,1.4v5.7h-1.2v-10h1.2v1.7h0c0.7-1.3,1.9-2,3.3-2c1.1,0,1.9,0.4,2.5,1.1c0.6,0.7,0.9,1.7,0.9,3.1v6.1H220.3z"
		/>
	<path fill="#898989" d="M234.7,79.5c-0.3-0.2-0.6-0.3-1.1-0.3c-1.2,0-1.8,0.8-1.8,2.3v1.6h2.5v1.1h-2.5v8.9h-1.2v-8.9h-1.7v-1.1
		h1.7v-1.7c0-0.5,0.1-1,0.2-1.4s0.3-0.8,0.6-1c0.2-0.3,0.6-0.5,0.9-0.7c0.4-0.2,0.8-0.2,1.3-0.2c0.5,0,0.8,0.1,1.1,0.2V79.5z"/>
	<path fill="#898989" d="M240,93.4c-0.7,0-1.4-0.1-2-0.4c-0.6-0.2-1.1-0.6-1.5-1c-0.4-0.5-0.7-1-1-1.6c-0.2-0.6-0.3-1.3-0.3-2.1
		c0-0.8,0.1-1.6,0.4-2.2s0.6-1.2,1-1.7c0.4-0.5,1-0.8,1.6-1c0.6-0.2,1.3-0.4,2.1-0.4c0.7,0,1.4,0.1,2,0.4c0.6,0.2,1.1,0.6,1.5,1
		c0.4,0.4,0.7,1,0.9,1.6s0.3,1.4,0.3,2.2c0,0.8-0.1,1.5-0.3,2.1s-0.5,1.2-1,1.7c-0.4,0.5-0.9,0.8-1.5,1.1
		C241.4,93.2,240.7,93.4,240,93.4z M240.1,84c-0.5,0-1,0.1-1.5,0.3c-0.4,0.2-0.8,0.5-1.1,0.8c-0.3,0.4-0.6,0.8-0.7,1.3
		c-0.2,0.5-0.3,1.1-0.3,1.8c0,0.6,0.1,1.2,0.3,1.7c0.2,0.5,0.4,0.9,0.7,1.3c0.3,0.4,0.7,0.6,1.1,0.8c0.4,0.2,0.9,0.3,1.5,0.3
		c0.6,0,1.1-0.1,1.5-0.3s0.8-0.5,1.1-0.8c0.3-0.4,0.5-0.8,0.7-1.3c0.2-0.5,0.2-1.1,0.2-1.8c0-1.3-0.3-2.4-0.9-3.1
		C242,84.3,241.2,84,240.1,84z"/>
	<path fill="#898989" d="M252.3,84.4c-0.3-0.2-0.7-0.3-1.1-0.3c-0.3,0-0.6,0.1-0.9,0.2s-0.5,0.3-0.7,0.5c-0.2,0.2-0.4,0.5-0.5,0.7
		c-0.1,0.3-0.2,0.6-0.3,0.9c-0.1,0.3-0.1,0.6-0.2,0.9c0,0.3-0.1,0.6-0.1,0.9v4.9h-1.2v-10h1.2v2.1h0c0.1-0.4,0.3-0.7,0.4-1
		c0.2-0.3,0.4-0.5,0.6-0.7s0.5-0.3,0.8-0.5c0.3-0.1,0.6-0.2,0.9-0.2c0.2,0,0.4,0,0.5,0c0.2,0,0.3,0.1,0.4,0.1V84.4z"/>
	<path fill="#898989" d="M259.3,91.1c0.2,0.2,0.5,0.3,0.8,0.5s0.6,0.3,0.9,0.4c0.3,0.1,0.6,0.2,0.9,0.2c0.3,0,0.6,0.1,0.9,0.1
		c1.1,0,1.9-0.2,2.4-0.6s0.8-1,0.8-1.8c0-0.4-0.1-0.7-0.2-1c-0.1-0.3-0.3-0.5-0.6-0.8c-0.3-0.2-0.6-0.5-1-0.7
		c-0.4-0.2-0.9-0.5-1.4-0.8c-0.6-0.3-1.1-0.6-1.5-0.9c-0.4-0.3-0.8-0.6-1-0.9c-0.3-0.3-0.5-0.6-0.6-1s-0.2-0.8-0.2-1.2
		c0-0.6,0.1-1.1,0.4-1.5c0.2-0.4,0.6-0.8,1-1.1s0.9-0.6,1.4-0.7c0.6-0.2,1.1-0.3,1.8-0.3c1.1,0,2,0.2,2.8,0.5v1.4
		c-0.8-0.5-1.8-0.7-2.9-0.7c-0.4,0-0.8,0.1-1.2,0.2c-0.4,0.1-0.7,0.2-1,0.4c-0.3,0.2-0.5,0.4-0.7,0.7c-0.2,0.3-0.2,0.6-0.2,1
		c0,0.4,0.1,0.7,0.2,0.9s0.3,0.5,0.5,0.7c0.2,0.2,0.6,0.5,0.9,0.7c0.4,0.2,0.9,0.5,1.4,0.8c0.6,0.3,1.1,0.6,1.5,0.9
		c0.4,0.3,0.8,0.6,1.1,0.9c0.3,0.3,0.5,0.7,0.6,1c0.1,0.4,0.2,0.8,0.2,1.2c0,0.6-0.1,1.2-0.3,1.6c-0.2,0.5-0.5,0.9-1,1.2
		s-0.9,0.5-1.5,0.7s-1.2,0.2-1.9,0.2c-0.2,0-0.5,0-0.8-0.1c-0.3,0-0.6-0.1-0.9-0.2s-0.6-0.1-0.9-0.2s-0.5-0.2-0.7-0.3V91.1z"/>
	<path fill="#898989" d="M275.8,93.1l-4.6-4.9h0v4.9h-1.2V78.3h1.2v9.5h0l4.4-4.7h1.6l-4.7,4.8l5.1,5.2H275.8z"/>
	<path fill="#898989" d="M279.9,80.6c-0.2,0-0.4-0.1-0.6-0.3S279,80,279,79.7c0-0.3,0.1-0.5,0.3-0.6s0.4-0.2,0.6-0.2
		c0.1,0,0.2,0,0.4,0.1c0.1,0,0.2,0.1,0.3,0.2c0.1,0.1,0.1,0.2,0.2,0.3s0.1,0.2,0.1,0.4c0,0.1,0,0.2-0.1,0.4c0,0.1-0.1,0.2-0.2,0.3
		c-0.1,0.1-0.2,0.1-0.3,0.2S280,80.6,279.9,80.6z M279.3,93.1v-10h1.2v10H279.3z"/>
	<path fill="#898989" d="M288.7,84.4c-0.3-0.2-0.7-0.3-1.1-0.3c-0.3,0-0.6,0.1-0.9,0.2s-0.5,0.3-0.7,0.5c-0.2,0.2-0.4,0.5-0.5,0.7
		c-0.1,0.3-0.2,0.6-0.3,0.9c-0.1,0.3-0.1,0.6-0.2,0.9c0,0.3-0.1,0.6-0.1,0.9v4.9h-1.2v-10h1.2v2.1h0c0.1-0.4,0.3-0.7,0.4-1
		c0.2-0.3,0.4-0.5,0.6-0.7s0.5-0.3,0.8-0.5c0.3-0.1,0.6-0.2,0.9-0.2c0.2,0,0.4,0,0.5,0c0.2,0,0.3,0.1,0.4,0.1V84.4z"/>
	<path fill="#898989" d="M295.4,93c-0.4,0.2-0.9,0.3-1.4,0.3c-1.6,0-2.4-0.9-2.4-2.8v-6.3h-1.8v-1.1h1.8v-2.5l1.2-0.4v2.9h2.6v1.1
		h-2.6v6.1c0,0.7,0.1,1.2,0.3,1.5c0.2,0.3,0.6,0.4,1.1,0.4c0.4,0,0.8-0.1,1.1-0.4V93z"/>
</g>
<g>
	<defs>
		<rect id="SVGID_1_" x="-7.1" y="144.3" width="368.1" height="226.9"/>
	</defs>
	<clipPath id="SVGID_00000016755069104043366140000017605907948138453141_">
		<use xlink:href="#SVGID_1_"  overflow="visible"/>
	</clipPath>
	<g clip-path="url(#SVGID_00000016755069104043366140000017605907948138453141_)">
		<polyline fill="none" points="299.3,371.2 299.3,85.5 -104.3,85.5 		"/>
	</g>
	<g clip-path="url(#SVGID_00000016755069104043366140000017605907948138453141_)">
		<polyline fill="none" points="-104.3,85.8 299.2,85.8 299.2,371.2 		"/>
	</g>
	<g clip-path="url(#SVGID_00000016755069104043366140000017605907948138453141_)">
		<polyline fill="none" points="299.3,371.2 299.3,85.5 -104.3,85.5 		"/>
	</g>
	<g clip-path="url(#SVGID_00000016755069104043366140000017605907948138453141_)">
		<polyline fill="none" points="-104.3,85.8 299.2,85.8 299.2,371.2 		"/>
	</g>
	<g clip-path="url(#SVGID_00000016755069104043366140000017605907948138453141_)">
		<polyline fill="none" points="299.3,371.2 299.3,85.5 -104.3,85.5 		"/>
	</g>
	<g clip-path="url(#SVGID_00000016755069104043366140000017605907948138453141_)">
		<polyline fill="none" points="-104.3,85.8 299.2,85.8 299.2,371.2 		"/>
	</g>
	<g clip-path="url(#SVGID_00000016755069104043366140000017605907948138453141_)">
		<rect x="231.8" y="93.9" fill="#BCBEC0" width="0.5" height="4.1"/>
	</g>
	<g clip-path="url(#SVGID_00000016755069104043366140000017605907948138453141_)">
		<rect x="230" y="95.7" fill="#BCBEC0" width="4.1" height="0.5"/>
	</g>
	<g clip-path="url(#SVGID_00000016755069104043366140000017605907948138453141_)">
		<rect x="164.5" y="93.9" fill="#BCBEC0" width="0.5" height="4.1"/>
	</g>
	<g clip-path="url(#SVGID_00000016755069104043366140000017605907948138453141_)">
		<rect x="162.7" y="95.7" fill="#BCBEC0" width="4.1" height="0.5"/>
	</g>
	<g clip-path="url(#SVGID_00000016755069104043366140000017605907948138453141_)">
		<rect x="97.2" y="93.9" fill="#BCBEC0" width="0.5" height="4.1"/>
	</g>
	<g clip-path="url(#SVGID_00000016755069104043366140000017605907948138453141_)">
		<rect x="95.5" y="95.7" fill="#BCBEC0" width="4.1" height="0.5"/>
	</g>
	<g clip-path="url(#SVGID_00000016755069104043366140000017605907948138453141_)">
		<rect x="30" y="93.9" fill="#BCBEC0" width="0.5" height="4.1"/>
	</g>
	<g clip-path="url(#SVGID_00000016755069104043366140000017605907948138453141_)">
		<rect x="28.2" y="95.7" fill="#BCBEC0" width="4.1" height="0.5"/>
	</g>
	<g clip-path="url(#SVGID_00000016755069104043366140000017605907948138453141_)">
		<polyline fill="none" points="299.3,371.2 299.3,85.5 -104.3,85.5 		"/>
	</g>
	<g clip-path="url(#SVGID_00000016755069104043366140000017605907948138453141_)">
		<polyline fill="none" points="-104.3,85.8 299.2,85.8 299.2,371.2 		"/>
	</g>
	<g clip-path="url(#SVGID_00000016755069104043366140000017605907948138453141_)">
		<polyline fill="none" points="299.2,371.2 299.2,85.8 -104.3,85.8 		"/>
	</g>
	<g clip-path="url(#SVGID_00000016755069104043366140000017605907948138453141_)">
		<path fill="#E0E0E0" d="M305.5,61.4c-0.1,0-0.1,0-0.2,0c-1.2-0.5-30-12.4-34.6-14.9c-4.8-2.6-5.6-7-5.7-7.2c0,0-1-4.9-1.7-9.4
			c0-0.3,0.2-0.5,0.4-0.6c0.3,0,0.5,0.2,0.6,0.4c0.6,4.4,1.6,9.3,1.6,9.3c0,0.1,0.8,4.1,5.2,6.5c4.6,2.5,34.2,14.8,34.5,14.9
			c0.3,0.1,0.4,0.4,0.3,0.7C305.9,61.3,305.7,61.4,305.5,61.4z"/>
	</g>
	<g clip-path="url(#SVGID_00000016755069104043366140000017605907948138453141_)">
		<path fill="#E0E0E0" d="M255.6,342.7c-0.3,0-0.5-0.2-0.5-0.5c-0.5-12.2-1-22.1-1-22.2c0-1.3-0.4-31.2,3.6-35.1
			c0.1-0.1,0.2-0.2,0.3-0.3c-1.8,0.7-4.8,1.8-7.7,1.5c-0.3,0-0.5-0.3-0.5-0.5c0-0.3,0.3-0.5,0.5-0.5c3,0.3,6.2-1,7.9-1.7
			c1.1-0.5,1.6-0.6,1.8-0.2c0.3,0.5,0,0.8-1.7,2.4c-3.1,3-3.5,25.8-3.3,34.3c0,0.1,0.5,10,1,22.2
			C256.1,342.4,255.9,342.7,255.6,342.7C255.6,342.7,255.6,342.7,255.6,342.7z"/>
	</g>
	<g clip-path="url(#SVGID_00000016755069104043366140000017605907948138453141_)">
		<path fill="#E0E0E0" d="M191,62.1c-0.3,0-0.5-0.2-0.5-0.5c0-0.3,0.2-0.5,0.5-0.5l114.3-0.7c0,0,0,0,0,0c0.3,0,0.5,0.2,0.5,0.5
			c0,0.3-0.2,0.5-0.5,0.5L191,62.1C191,62.1,191,62.1,191,62.1z"/>
	</g>
	<g clip-path="url(#SVGID_00000016755069104043366140000017605907948138453141_)">
		<path fill="#E0E0E0" d="M259.7,284.1c-0.1,0-0.3-0.1-0.4-0.2c-0.2-0.2-0.1-0.5,0.1-0.7c27.5-22.9,40-63.8,40.1-64.2
			c0.1-0.3,0.4-0.4,0.6-0.3c0.3,0.1,0.4,0.4,0.3,0.6c-0.1,0.4-12.7,41.6-40.4,64.7C260,284.1,259.9,284.1,259.7,284.1z"/>
	</g>
	<g clip-path="url(#SVGID_00000016755069104043366140000017605907948138453141_)">
		<path fill="#E0E0E0" d="M265.2,284.5c-3.5,0-5.5-0.4-5.6-0.4c-0.3-0.1-0.4-0.3-0.4-0.6c0.1-0.3,0.3-0.4,0.6-0.4
			c0.3,0.1,26.1,5.2,51.6-22.6c0.2-0.2,0.5-0.2,0.7,0c0.2,0.2,0.2,0.5,0,0.7C293.4,281.7,274.4,284.5,265.2,284.5z"/>
	</g>
	<g clip-path="url(#SVGID_00000016755069104043366140000017605907948138453141_)">
		<path fill="#E0E0E0" d="M302,342.4c0,0-0.1,0-0.1,0c-0.3-0.1-0.4-0.3-0.4-0.6c6.3-29.4,11.3-64.6,11.5-70.4
			c0.2-7.4-4.7-21.2-7.1-27.9c-0.3-0.8-0.5-1.4-0.7-1.9c-0.9-2.7-2.2-8.3-3.4-13.2c-1-4.2-1.9-8.3-2.3-9l-0.2-0.3
			c-3.4-6.6-11.6-22.3-13.6-25c-2.5-3.3-1-7.2-1-7.3l16.5-68.5l-0.1-0.3c-3-52.5,3.7-57.1,4-57.3c0.2-0.1,0.5-0.1,0.7,0.2
			c0.1,0.2,0.1,0.5-0.2,0.7c-0.1,0.1-6.4,5.6-3.5,56.3l0.1,0.4c0,0.1,0,0.1,0,0.2l-16.5,68.6c0,0.1-1.3,3.6,0.8,6.5
			c2,2.7,10.2,18.5,13.7,25.2l0.2,0.3c0.4,0.8,1.2,4.1,2.4,9.3c1.1,4.9,2.4,10.4,3.3,13.1c0.2,0.5,0.4,1.2,0.7,1.9
			c2.4,6.7,7.3,20.7,7.1,28.3c-0.2,5.8-5.1,41.1-11.5,70.6C302.4,342.2,302.2,342.4,302,342.4z"/>
	</g>
	<g clip-path="url(#SVGID_00000016755069104043366140000017605907948138453141_)">
		<path fill="#E0E0E0" d="M278.8,342.4C278.8,342.4,278.8,342.4,278.8,342.4c-0.3,0-0.5-0.3-0.5-0.6c4.3-29.9,8.7-62.9,6.2-76.6
			c-4.9-27.2-10.9-58.3-11.2-59.8l-6.7-15.1c0-0.1,0-0.2,0-0.2c0-0.5,4.6-54.9,6.3-86.1c1.8-31.3,7.4-53.3,7.4-53.5
			c0.1-0.3,0.3-0.4,0.6-0.4c0.3,0.1,0.4,0.3,0.4,0.6c-0.1,0.2-5.6,22.2-7.4,53.3c-1.7,30.5-6.1,83-6.3,86l6.7,15c0,0,0,0.1,0,0.1
			c0.1,0.3,6.2,32.1,11.2,59.9c2.5,13.8-1.9,46.9-6.2,76.9C279.3,342.2,279.1,342.4,278.8,342.4z"/>
	</g>
	<g clip-path="url(#SVGID_00000016755069104043366140000017605907948138453141_)">
		<path fill="#E0E0E0" d="M250.4,286c-0.3,0-0.5-0.2-0.5-0.5l-2-256c0-0.3,0.2-0.5,0.5-0.5c0,0,0,0,0,0c0.3,0,0.5,0.2,0.5,0.5l2,256
			C250.9,285.8,250.7,286,250.4,286C250.5,286,250.4,286,250.4,286z"/>
	</g>
	<g clip-path="url(#SVGID_00000016755069104043366140000017605907948138453141_)">
		<path fill="#E0E0E0" d="M191.2,62.1c-0.2,0-0.4-0.1-0.5-0.3c-0.1-0.3,0-0.5,0.3-0.7c0.3-0.1,29.7-12.9,34.2-15.4
			c4.3-2.5,5.2-6,5.2-6c0,0,0.7-4.8,1.2-9.7c0-0.3,0.3-0.5,0.5-0.4c0.3,0,0.5,0.3,0.4,0.5c-0.5,4.9-1.2,9.7-1.2,9.8
			c0,0.2-0.9,4-5.7,6.7c-4.6,2.6-33.1,15-34.3,15.5C191.3,62.1,191.2,62.1,191.2,62.1z"/>
	</g>
	<g clip-path="url(#SVGID_00000016755069104043366140000017605907948138453141_)">
		<path fill="#E0E0E0" d="M245.4,342.7C245.4,342.7,245.4,342.7,245.4,342.7c-0.3,0-0.5-0.2-0.5-0.5c0.3-12,0.5-21.6,0.5-21.6
			c0.4-8.6,0.5-31.5-2.9-34.1c-1.7-1.3-2.1-1.7-1.9-2.2c0.2-0.5,0.7-0.4,2.2,0c1.8,0.4,4.7,1.2,7.5,0.9c0.3,0,0.5,0.2,0.5,0.4
			c0,0.3-0.2,0.5-0.4,0.5c-3,0.3-6-0.5-7.8-0.9c-0.1,0-0.1,0-0.2,0c0.2,0.1,0.4,0.3,0.7,0.5c4.4,3.4,3.4,31.7,3.3,34.9
			c0,0-0.2,9.6-0.5,21.6C245.9,342.5,245.6,342.7,245.4,342.7z M246.4,320.6L246.4,320.6L246.4,320.6z"/>
	</g>
	<g clip-path="url(#SVGID_00000016755069104043366140000017605907948138453141_)">
		<path fill="#E0E0E0" d="M213.9,190.7c-0.3,0-0.5-0.2-0.5-0.5c0-0.3,0.2-0.5,0.5-0.5l71-0.3c0,0,0,0,0,0c0.3,0,0.5,0.2,0.5,0.5
			c0,0.3-0.2,0.5-0.5,0.5L213.9,190.7C213.9,190.7,213.9,190.7,213.9,190.7z"/>
	</g>
	<g clip-path="url(#SVGID_00000016755069104043366140000017605907948138453141_)">
		<path fill="#E0E0E0" d="M198.8,220.5c-0.3,0-0.5-0.2-0.5-0.5c0-0.3,0.2-0.5,0.5-0.5l101.2-0.8c0,0,0,0,0,0c0.3,0,0.5,0.2,0.5,0.5
			c0,0.3-0.2,0.5-0.5,0.5L198.8,220.5C198.8,220.5,198.8,220.5,198.8,220.5z"/>
	</g>
	<g clip-path="url(#SVGID_00000016755069104043366140000017605907948138453141_)">
		<path fill="#E0E0E0" d="M241.1,285.1c-0.1,0-0.2,0-0.3-0.1c-28.1-22.6-42.4-64.4-42.5-64.9c-0.1-0.3,0.1-0.5,0.3-0.6
			c0.3-0.1,0.5,0.1,0.6,0.3c0.1,0.4,14.3,42,42.2,64.4c0.2,0.2,0.2,0.5,0.1,0.7C241.4,285,241.3,285.1,241.1,285.1z"/>
	</g>
	<g clip-path="url(#SVGID_00000016755069104043366140000017605907948138453141_)">
		<path fill="#E0E0E0" d="M236.1,285.3c-9,0-29-2.7-48.6-23.3c-0.2-0.2-0.2-0.5,0-0.7c0.2-0.2,0.5-0.2,0.7,0
			c26,27.4,52.4,22.8,52.7,22.7c0.3-0.1,0.5,0.1,0.6,0.4c0.1,0.3-0.1,0.5-0.4,0.6C241,285,239.2,285.3,236.1,285.3z"/>
	</g>
	<g clip-path="url(#SVGID_00000016755069104043366140000017605907948138453141_)">
		<path fill="#E0E0E0" d="M199.1,343c-0.2,0-0.4-0.2-0.5-0.4c-6.7-29-12.3-64.8-12.5-70.9c-0.3-7.5,4.4-21.6,6.7-28.4
			c0.3-0.8,0.5-1.4,0.6-1.9c0.9-2.7,2.1-8.3,3.1-13.2c1.1-5.2,1.8-8.5,2.2-9.3c2.6-5.3,11.3-22.7,13.4-25.7c2.1-2.9,0.8-6.4,0.8-6.4
			l-17.6-68.4c0,0,0-0.1,0-0.1l0-0.3c2.1-51.1-4.1-55.8-4.3-55.9c-0.2-0.1-0.3-0.4-0.2-0.7c0.1-0.2,0.4-0.3,0.7-0.2
			c0.3,0.2,7,4.3,4.8,56.8l0,0.2l17.6,68.3c0,0.1,1.5,3.9-0.9,7.3c-2.1,3-11.5,21.8-13.3,25.5c-0.4,0.8-1.3,4.8-2.2,9.1
			c-1.1,4.9-2.2,10.5-3.1,13.3c-0.2,0.5-0.4,1.2-0.6,2c-2.2,6.7-6.9,20.7-6.6,28c0.3,6.2,5.8,41.8,12.5,70.8
			c0.1,0.3-0.1,0.5-0.4,0.6C199.2,343,199.2,343,199.1,343z"/>
	</g>
	<g clip-path="url(#SVGID_00000016755069104043366140000017605907948138453141_)">
		<path fill="#E0E0E0" d="M222,343c-0.2,0-0.5-0.2-0.5-0.4c-5.1-32-9.6-63.4-7.4-76.8c4.5-27.9,10.3-59.7,10.4-60c0,0,0-0.1,0-0.1
			l6.2-15.5c-0.3-2.9-5.4-55.1-7.6-85.6c-2.2-31.1-8.3-53.2-8.3-53.4c-0.1-0.3,0.1-0.5,0.3-0.6c0.3-0.1,0.5,0.1,0.6,0.3
			c0.1,0.2,6.1,22.4,8.4,53.6c2.2,31.2,7.6,85.1,7.6,85.7c0,0.1,0,0.2,0,0.2l-6.3,15.6c-0.3,1.4-5.9,32.6-10.3,60
			c-2.2,13.3,2.3,44.6,7.4,76.5C222.6,342.7,222.4,342.9,222,343C222.1,343,222,343,222,343z"/>
	</g>
	<g clip-path="url(#SVGID_00000016755069104043366140000017605907948138453141_)">
		<path fill="#E0E0E0" d="M298.1,134.3h-98.3c-0.3,0-0.5-0.2-0.5-0.5s0.2-0.5,0.5-0.5h98.3c0.3,0,0.5,0.2,0.5,0.5
			S298.3,134.3,298.1,134.3z"/>
	</g>
	<g clip-path="url(#SVGID_00000016755069104043366140000017605907948138453141_)">
		<path fill="#E0E0E0" d="M247.5,47.7c-11.2,0-19.3-3.2-19.3-3.2c-0.3-0.1-0.4-0.4-0.3-0.7c0.1-0.3,0.4-0.4,0.7-0.3
			c0.1,0,8.4,3.3,19.9,3.2c11.5-0.2,19.7-3,19.8-3c0.3-0.1,0.5,0,0.6,0.3c0.1,0.3,0,0.5-0.3,0.6c-0.1,0-8.5,2.9-20.1,3.1
			C248.1,47.7,247.8,47.7,247.5,47.7z"/>
	</g>
	<g clip-path="url(#SVGID_00000016755069104043366140000017605907948138453141_)">
		<path fill="#E0E0E0" d="M301.2,106.3H196.1c-0.3,0-0.5-0.2-0.5-0.5s0.2-0.5,0.5-0.5h105.1c0.3,0,0.5,0.2,0.5,0.5
			S301.5,106.3,301.2,106.3z"/>
	</g>
	<g clip-path="url(#SVGID_00000016755069104043366140000017605907948138453141_)">
		<path fill="#E0E0E0" d="M205.9,206.3c-0.3,0-0.5-0.2-0.5-0.5c0-0.3,0.2-0.5,0.5-0.5l86.8-0.7c0,0,0,0,0,0c0.3,0,0.5,0.2,0.5,0.5
			c0,0.3-0.2,0.5-0.5,0.5L205.9,206.3C205.9,206.3,205.9,206.3,205.9,206.3z"/>
	</g>
	<g clip-path="url(#SVGID_00000016755069104043366140000017605907948138453141_)">
		<path fill="#E0E0E0" d="M193.2,244.4c-0.3,0-0.5-0.2-0.5-0.5c0-0.3,0.2-0.5,0.5-0.5l113.1-0.9c0,0,0,0,0,0c0.3,0,0.5,0.2,0.5,0.5
			c0,0.3-0.2,0.5-0.5,0.5L193.2,244.4C193.2,244.4,193.2,244.4,193.2,244.4z"/>
	</g>
	<g clip-path="url(#SVGID_00000016755069104043366140000017605907948138453141_)">
		<path fill="#E0E0E0" d="M209.8,287.8c-11,0-20.6-0.5-21.5-0.5c-0.3,0-0.5-0.2-0.5-0.5c0-0.3,0.3-0.5,0.5-0.5
			c0.4,0,38.7,2,51.1-1.9c-6.1-2.5-32.9-14.5-46.8-40.2c-0.1-0.2,0-0.5,0.2-0.7c0.2-0.1,0.5,0,0.7,0.2
			c15.5,28.6,47.2,40.1,47.5,40.2c0.2,0.1,0.3,0.3,0.3,0.5s-0.1,0.4-0.3,0.5C235.4,287.2,221.8,287.8,209.8,287.8z"/>
	</g>
	<g clip-path="url(#SVGID_00000016755069104043366140000017605907948138453141_)">
		<path fill="#E0E0E0" d="M287.2,286.7c-10.9,0-22.4-0.5-27.6-2.6c-0.2-0.1-0.3-0.3-0.3-0.5s0.1-0.4,0.3-0.5
			c0.3-0.1,31.3-11.5,46.3-40.3c0.1-0.2,0.4-0.3,0.7-0.2c0.2,0.1,0.3,0.4,0.2,0.7c-13.4,25.8-39.5,37.8-45.6,40.3
			c12.4,3.6,50.2,1.4,50.6,1.3c0.3,0,0.5,0.2,0.5,0.5c0,0.3-0.2,0.5-0.5,0.5C311,286,299.4,286.7,287.2,286.7z"/>
	</g>
	<g clip-path="url(#SVGID_00000016755069104043366140000017605907948138453141_)">
		<path fill="#E0E0E0" d="M241,284.9c-0.3,0-0.5-0.2-0.5-0.5c-1.7-48.8-41.4-63.8-41.8-63.9c-0.3-0.1-0.4-0.4-0.3-0.6
			c0.1-0.3,0.4-0.4,0.6-0.3c0.4,0.1,40.7,15.3,42.4,64.8C241.5,284.7,241.3,284.9,241,284.9C241,284.9,241,284.9,241,284.9z"/>
	</g>
	<g clip-path="url(#SVGID_00000016755069104043366140000017605907948138453141_)">
		<path fill="#E0E0E0" d="M259.7,284C259.7,284,259.7,284,259.7,284c-0.3,0-0.5-0.2-0.5-0.5c1-49.5,40.2-64.7,40.6-64.8
			c0.3-0.1,0.5,0,0.6,0.3c0.1,0.3,0,0.5-0.3,0.6c-0.4,0.1-39,15.1-40,63.9C260.2,283.8,260,284,259.7,284z"/>
	</g>
	<g clip-path="url(#SVGID_00000016755069104043366140000017605907948138453141_)">
		<path fill="#E0E0E0" d="M250.4,281.9c-0.3,0-0.5-0.2-0.5-0.5c0-31-13.8-45.9-25.4-52.9c-12.6-7.6-25.3-8-25.4-8
			c-0.3,0-0.5-0.2-0.5-0.5c0-0.3,0.3-0.5,0.5-0.5c0.1,0,13.1,0.3,25.9,8.1c11.8,7.2,25.9,22.3,25.9,53.8
			C250.9,281.7,250.7,281.9,250.4,281.9L250.4,281.9z"/>
	</g>
	<g clip-path="url(#SVGID_00000016755069104043366140000017605907948138453141_)">
		<path fill="#E0E0E0" d="M250.4,281.9c-0.3,0-0.5-0.2-0.5-0.5c-0.5-31.5,13.2-46.9,24.7-54.2c12.5-8,25.3-8.5,25.4-8.5
			c0.3,0,0.5,0.2,0.5,0.5c0,0.3-0.2,0.5-0.5,0.5c-0.1,0-12.7,0.5-24.9,8.4c-11.3,7.2-24.7,22.3-24.2,53.3
			C250.9,281.6,250.7,281.8,250.4,281.9C250.4,281.9,250.4,281.9,250.4,281.9z"/>
	</g>
	<g opacity="0.2" clip-path="url(#SVGID_00000016755069104043366140000017605907948138453141_)" enable-background="new    ">
		<g>
			<defs>
				<rect id="SVGID_00000161592521311526853890000016933356485921944988_" x="71.2" y="35.2" width="0.7" height="0.7"/>
			</defs>
			<clipPath id="SVGID_00000121995700221445681750000011431743757608025500_">
				<use xlink:href="#SVGID_00000161592521311526853890000016933356485921944988_"  overflow="visible"/>
			</clipPath>
			<g clip-path="url(#SVGID_00000121995700221445681750000011431743757608025500_)">
				<defs>
					<rect id="SVGID_00000043437354067792103990000005861941851247552658_" x="71.4" y="35.2" width="0.2" height="0"/>
				</defs>
				<clipPath id="SVGID_00000181061873522050690220000007571704913824892299_">
					<use xlink:href="#SVGID_00000043437354067792103990000005861941851247552658_"  overflow="visible"/>
				</clipPath>
				<g clip-path="url(#SVGID_00000181061873522050690220000007571704913824892299_)">
					<path fill="#FFFFFF" d="M71.6,35.2l-0.2,0L71.6,35.2z"/>
				</g>
			</g>
		</g>
	</g>
	<g clip-path="url(#SVGID_00000016755069104043366140000017605907948138453141_)">
		<path fill="#E0E0E0" d="M44.1,119C44.1,119,44.1,119,44.1,119c-0.3,0-0.5-0.2-0.5-0.5c2.1-51.1-3.7-56.6-4-56.8
			c-0.2-0.2-0.2-0.5-0.1-0.7c0.2-0.2,0.5-0.3,0.7-0.1c0.3,0.2,6.5,5.2,4.4,57.6C44.6,118.8,44.3,119,44.1,119z"/>
	</g>
	<g clip-path="url(#SVGID_00000016755069104043366140000017605907948138453141_)">
		<path fill="#E0E0E0" d="M146.1,118.4c-0.3,0-0.5-0.2-0.5-0.5c-3-52.4,3-57.6,3.2-57.8c0.2-0.2,0.5-0.1,0.7,0.1
			c0.2,0.2,0.1,0.5-0.1,0.7c-0.3,0.2-5.8,6-2.9,56.9C146.7,118.2,146.5,118.4,146.1,118.4C146.2,118.4,146.2,118.4,146.1,118.4z"/>
	</g>
	<g clip-path="url(#SVGID_00000016755069104043366140000017605907948138453141_)">
		<path fill="#E0E0E0" d="M39.9,61.8c-0.2,0-0.4-0.1-0.5-0.3c-0.1-0.3,0-0.5,0.3-0.7c0.3-0.1,29.4-12.8,33.9-15.3
			c4.1-2.3,5.1-5.6,5.2-6l0.1-9.8c0-0.3,0.2-0.5,0.5-0.5c0.3,0,0.5,0.2,0.5,0.5l-0.1,9.8c0,0,0,0.1,0,0.1c0,0.2-0.9,4-5.7,6.7
			c-4.6,2.6-32.8,14.9-34,15.4C40.1,61.8,40,61.8,39.9,61.8z"/>
	</g>
	<g clip-path="url(#SVGID_00000016755069104043366140000017605907948138453141_)">
		<path fill="#E0E0E0" d="M47.3,342.7c-0.2,0-0.4-0.2-0.5-0.4c-6.7-29.1-12.2-64.6-12.5-70.6c-0.3-7.6,4.4-21.7,6.7-28.4
			c0.2-0.7,0.5-1.4,0.6-1.9c0.9-2.7,2.1-8.2,3.1-13.1c1.1-5.2,1.8-8.5,2.2-9.3c1.9-3.7,11.2-22.6,13.4-25.7c2.1-2.9,0.8-6.4,0.8-6.4
			l-17.6-68.4c-0.1-0.3,0.1-0.5,0.4-0.6c0.3-0.1,0.5,0.1,0.6,0.4l17.6,68.4c0,0.1,1.5,4-0.9,7.3C59,197,49,217.1,47.9,219.4
			c-0.4,0.8-1.2,4.8-2.2,9.1c-1,4.9-2.2,10.5-3.1,13.2c-0.2,0.5-0.4,1.2-0.6,1.9c-2.3,6.7-6.9,20.7-6.6,28.1
			c0.3,6,5.8,41.3,12.5,70.4c0.1,0.3-0.1,0.5-0.4,0.6C47.4,342.7,47.4,342.7,47.3,342.7z"/>
	</g>
	<g clip-path="url(#SVGID_00000016755069104043366140000017605907948138453141_)">
		<path fill="#E0E0E0" d="M93.6,342.5C93.6,342.5,93.6,342.5,93.6,342.5c-0.3,0-0.5-0.2-0.5-0.5c0.2-9.5,0.4-16.5,0.4-16.5
			c0-8.5-0.7-31.4-3.9-34.3c-0.5-0.4-0.9-0.8-1.1-1c-0.4-0.3-0.6-0.5-0.7-0.6c-0.1-0.2,0-0.5,0.2-0.6c0.2-0.2,0.4-0.2,1.2,0.5
			c1.1,0.7,3.7,1.9,6.7,1.6l0.2,0c0.3,0,0.5,0.2,0.5,0.5s-0.2,0.5-0.5,0.5l-0.2,0c-1.9,0.2-3.6-0.2-5-0.7c3.4,6.5,3.5,32.8,3.4,34
			c0,0-0.2,7-0.4,16.5C94.1,342.3,93.9,342.5,93.6,342.5z"/>
	</g>
	<g clip-path="url(#SVGID_00000016755069104043366140000017605907948138453141_)">
		<path fill="#E0E0E0" d="M39.9,61.8c-0.3,0-0.5-0.2-0.5-0.5c0-0.3,0.2-0.5,0.5-0.5l109.3-0.7c0.3,0,0.5,0.2,0.5,0.5
			c0,0.3-0.2,0.5-0.5,0.5L39.9,61.8C39.9,61.8,39.9,61.8,39.9,61.8z"/>
	</g>
	<g clip-path="url(#SVGID_00000016755069104043366140000017605907948138453141_)">
		<path fill="#E0E0E0" d="M96.3,292.2c-0.3,0-0.5-0.2-0.5-0.5l-2.1-262c0-0.3,0.2-0.5,0.5-0.5c0,0,0,0,0,0c0.3,0,0.5,0.2,0.5,0.5
			l2.1,262C96.8,292,96.6,292.2,96.3,292.2C96.3,292.2,96.3,292.2,96.3,292.2z"/>
	</g>
	<g clip-path="url(#SVGID_00000016755069104043366140000017605907948138453141_)">
		<path fill="#E0E0E0" d="M88.3,290c-0.2,0-0.4-0.2-0.5-0.4c-6.8-34.9-40.4-69.7-40.8-70.1c-0.2-0.2-0.2-0.5,0-0.7
			c0.2-0.2,0.5-0.2,0.7,0c0.3,0.3,34.1,35.4,41,70.6C88.9,289.7,88.7,290,88.3,290C88.4,290,88.4,290,88.3,290z"/>
	</g>
	<g clip-path="url(#SVGID_00000016755069104043366140000017605907948138453141_)">
		<path fill="#E0E0E0" d="M88.3,290c-0.1,0-0.3,0-0.4-0.1C61.1,263.4,35.6,270,35.3,270c-0.3,0.1-0.5-0.1-0.6-0.4
			c-0.1-0.3,0.1-0.5,0.4-0.6c0.3-0.1,26.3-6.8,53.6,20.1c0.2,0.2,0.2,0.5,0,0.7C88.6,290,88.5,290,88.3,290z"/>
	</g>
	<g clip-path="url(#SVGID_00000016755069104043366140000017605907948138453141_)">
		<path fill="#E0E0E0" d="M68.2,133.3c-11.7,0-21.2-8.9-21.3-20c0-5.4,2.1-10.5,6.1-14.3c4-3.8,9.3-6,15-6c5.7,0,11.1,2,15.1,5.8
			c4.1,3.8,6.3,8.8,6.4,14.2l0,0c0,5.4-2.1,10.5-6.1,14.3c-4,3.8-9.3,6-15,6C68.3,133.3,68.3,133.3,68.2,133.3z M68.3,93.9
			c-0.1,0-0.1,0-0.2,0c-5.4,0-10.5,2.1-14.3,5.7c-3.8,3.7-5.9,8.5-5.8,13.6c0.1,10.5,9.2,19,20.3,19c0.1,0,0.1,0,0.2,0
			c5.4,0,10.5-2.1,14.3-5.7c3.8-3.7,5.9-8.5,5.8-13.6l0,0c0-5.1-2.2-9.9-6-13.5C78.7,95.8,73.6,93.9,68.3,93.9z"/>
	</g>
	<g clip-path="url(#SVGID_00000016755069104043366140000017605907948138453141_)">
		<path fill="#E0E0E0" d="M44.2,114c-0.3,0-0.5-0.2-0.5-0.5c0-0.3,0.2-0.5,0.5-0.5l101.6-0.8c0,0,0,0,0,0c0.3,0,0.5,0.2,0.5,0.5
			c0,0.3-0.2,0.5-0.5,0.5L44.2,114C44.2,114,44.2,114,44.2,114z"/>
	</g>
	<g clip-path="url(#SVGID_00000016755069104043366140000017605907948138453141_)">
		<path fill="#E0E0E0" d="M67.4,342.7c-0.2,0-0.5-0.2-0.5-0.4c-4.7-29.2-8.7-57.9-6.6-70.5c4.5-27.4,9.2-52.6,9.2-52.8l5.6-25.1
			c-0.3-2.3-6.2-50.1-8.4-80.2C64.4,82.9,59,53,59,52.7c0-0.3,0.1-0.5,0.4-0.6c0.3,0,0.5,0.1,0.6,0.4c0.1,0.3,5.4,30.3,7.7,61
			c2.2,30.7,8.3,79.8,8.4,80.3c0,0.1,0,0.1,0,0.2l-5.6,25.2c0,0.2-4.7,25.4-9.2,52.8c-2.1,12.5,2,41.1,6.6,70.2
			C67.9,342.4,67.7,342.6,67.4,342.7C67.4,342.7,67.4,342.7,67.4,342.7z"/>
	</g>
	<g clip-path="url(#SVGID_00000016755069104043366140000017605907948138453141_)">
		<path fill="#E0E0E0" d="M149.2,61.1c-0.1,0-0.1,0-0.2,0c-1.2-0.5-29.4-12.2-34.1-14.7c-4.8-2.6-5.8-6.4-5.8-6.6c0,0,0-0.1,0-0.1
			l-0.3-10.2c0-0.3,0.2-0.5,0.5-0.5c0.3,0,0.5,0.2,0.5,0.5l0.3,10.1c0.1,0.4,1.2,3.6,5.3,5.9c4.6,2.5,33.7,14.6,34,14.7
			c0.3,0.1,0.4,0.4,0.3,0.7C149.6,61,149.4,61.1,149.2,61.1z"/>
	</g>
	<g clip-path="url(#SVGID_00000016755069104043366140000017605907948138453141_)">
		<path fill="#E0E0E0" d="M146.6,342.1c0,0-0.1,0-0.1,0c-0.3-0.1-0.4-0.3-0.4-0.6c6.2-28.9,11.1-64.4,11.3-70.5
			c0.2-7.4-4.7-21.3-7.1-27.9c-0.3-0.7-0.5-1.4-0.7-1.9c-0.9-2.7-2.2-8.3-3.4-13.2c-1-4.3-1.9-8.3-2.3-9l0-0.1
			c-5.5-10.7-12-23-13.7-25.2c-2.5-3.3-1.1-7.2-1-7.3l16.4-68.3c0.1-0.3,0.3-0.4,0.6-0.4c0.3,0.1,0.4,0.3,0.4,0.6l-16.5,68.4
			c0,0.1-1.3,3.6,0.8,6.5c2.2,2.9,11.1,20.2,13.8,25.4l0,0.1c0.4,0.8,1.2,4.1,2.4,9.3c1.1,4.9,2.4,10.4,3.3,13.1
			c0.2,0.5,0.4,1.2,0.7,1.9c2.4,6.7,7.3,20.7,7.1,28.3c-0.2,6.2-5.1,41.8-11.3,70.7C147,341.9,146.8,342.1,146.6,342.1z"/>
	</g>
	<g clip-path="url(#SVGID_00000016755069104043366140000017605907948138453141_)">
		<path fill="#E0E0E0" d="M100.2,342.4c-0.3,0-0.5-0.2-0.5-0.5c-0.4-9.5-0.7-16.3-0.7-16.3c0-1.2-0.4-27.5,2.9-34.1
			c-1.4,0.5-3.1,0.9-5,0.7l-0.7-0.1c-0.3,0-0.5-0.3-0.4-0.6c0-0.3,0.3-0.5,0.6-0.4l0.7,0.1c3,0.3,5.5-1,6.7-1.7
			c0.8-0.7,1-0.7,1.2-0.5c0.2,0.1,0.3,0.4,0.2,0.6c0,0.1-0.3,0.3-0.7,0.6c-0.2,0.2-0.6,0.5-1.1,1c-3.2,3-3.5,25.8-3.3,34.3l0,0
			c0,0,0.3,6.8,0.7,16.3C100.8,342.1,100.5,342.4,100.2,342.4C100.3,342.4,100.2,342.4,100.2,342.4z"/>
	</g>
	<g clip-path="url(#SVGID_00000016755069104043366140000017605907948138453141_)">
		<path fill="#E0E0E0" d="M104.7,290C104.7,290,104.6,290,104.7,290c-0.4-0.1-0.5-0.3-0.5-0.6c6.3-35.3,39.2-71.1,39.6-71.4
			c0.2-0.2,0.5-0.2,0.7,0c0.2,0.2,0.2,0.5,0,0.7c-0.3,0.4-33,35.9-39.3,70.9C105.1,289.8,104.9,290,104.7,290z"/>
	</g>
	<g clip-path="url(#SVGID_00000016755069104043366140000017605907948138453141_)">
		<path fill="#E0E0E0" d="M104.7,290c-0.1,0-0.3,0-0.4-0.1c-0.2-0.2-0.2-0.5,0-0.7c26.9-27.3,53.1-21,53.3-21
			c0.3,0.1,0.4,0.3,0.4,0.6s-0.3,0.4-0.6,0.4c-0.3-0.1-25.9-6.2-52.4,20.7C105,290,104.8,290,104.7,290z"/>
	</g>
	<g clip-path="url(#SVGID_00000016755069104043366140000017605907948138453141_)">
		<path fill="#E0E0E0" d="M121.9,132.9c-11.7,0-21.2-8.9-21.3-20l0,0c-0.1-11.1,9.4-20.3,21.2-20.3c0.1,0,0.1,0,0.2,0
			c11.7,0,21.2,8.9,21.3,20c0,5.4-2.1,10.5-6.1,14.3c-4,3.8-9.3,6-15,6C122.1,132.9,122,132.9,121.9,132.9z M101.6,112.9
			c0.1,10.5,9.2,19,20.3,19c0.1,0,0.1,0,0.2,0c5.4,0,10.5-2.1,14.3-5.7c3.8-3.7,5.9-8.5,5.8-13.6c-0.1-10.5-9.2-19-20.3-19
			c-0.1,0-0.1,0-0.2,0C110.6,93.7,101.6,102.3,101.6,112.9L101.6,112.9z"/>
	</g>
	<g clip-path="url(#SVGID_00000016755069104043366140000017605907948138453141_)">
		<path fill="#E0E0E0" d="M126.5,341.8C126.5,341.8,126.5,341.8,126.5,341.8c-0.3,0-0.5-0.3-0.5-0.6c4-27.7,7.8-57.6,5.5-70.2
			c-5-27.3-10-52.4-10.1-52.6l-6.5-24.9c0-0.1,0-0.1,0-0.2c0.1-0.5,5.7-49.7,7.4-80.4c1.8-30.7,5.5-60.9,5.5-61.2
			c0-0.3,0.3-0.5,0.6-0.4c0.3,0,0.5,0.3,0.4,0.6c0,0.3-3.8,30.4-5.5,61.1c-1.7,30.1-7.2,77.9-7.4,80.3l6.5,24.8
			c0.1,0.3,5.1,25.3,10.1,52.7c2.3,12.7-1.3,41.4-5.5,70.5C127,341.7,126.8,341.8,126.5,341.8z"/>
	</g>
	<g clip-path="url(#SVGID_00000016755069104043366140000017605907948138453141_)">
		<line fill="#FFFFFF" x1="89.4" y1="113.1" x2="100.9" y2="113"/>
	</g>
	<g clip-path="url(#SVGID_00000016755069104043366140000017605907948138453141_)">
		
			<rect x="89.4" y="112.6" transform="matrix(1 -7.812262e-03 7.812262e-03 1 -0.8805 0.7466)" fill="#E0E0E0" width="11.5" height="1"/>
	</g>
	<g clip-path="url(#SVGID_00000016755069104043366140000017605907948138453141_)">
		<path fill="#E0E0E0" d="M89.4,113.6c-0.3,0-0.5-0.2-0.5-0.5c0-0.3,0.2-0.5,0.5-0.5l11.5-0.1c0,0,0,0,0,0c0.3,0,0.5,0.2,0.5,0.5
			c0,0.3-0.2,0.5-0.5,0.5L89.4,113.6C89.4,113.6,89.4,113.6,89.4,113.6z"/>
	</g>
	<g clip-path="url(#SVGID_00000016755069104043366140000017605907948138453141_)">
		<path fill="#E0E0E0" d="M69,136.6c-0.1,0-0.1,0-0.2,0c-12-0.1-21.3-9-25.1-17.9c0-0.1,0-0.1,0-0.2l0.3-10.8c0-0.1,0-0.1,0-0.2
			c3.7-8.9,13.1-14.6,24-14.5c7.3,0.1,12.7,3.1,17.5,5.8c3.5,1.9,6.5,3.6,9.3,3.5c3.1,0,6.8-2.1,10.9-4.3c4.5-2.4,9.7-5.2,14.7-5.5
			c11.8-0.8,22.7,6.4,25.9,17.1c0,0,0,0.1,0,0.1l0.4,8.2c0,0.1,0,0.1,0,0.2c-3.1,11.1-14.4,19.1-25.6,18.2
			c-6.3-0.5-10.1-2.6-14.9-5.2c-0.6-0.3-1.3-0.7-1.9-1c-0.5-0.3-1.1-0.7-1.8-1.1c-2-1.3-4.8-3.1-7.4-3c-2.4,0.1-4.3,1.4-6.4,2.8
			c-0.7,0.5-1.4,1-2.1,1.4l-0.5,0.3C80.7,133.6,75.8,136.6,69,136.6z M44.6,118.4c3.7,8.5,12.7,17.1,24.2,17.2
			c6.7,0.1,11.3-2.7,16.7-6l0.5-0.3c0.7-0.4,1.4-0.9,2.1-1.4c2.1-1.4,4.3-2.9,6.9-3c3-0.1,5.9,1.8,8,3.2c0.7,0.4,1.2,0.8,1.7,1
			c0.7,0.4,1.3,0.7,2,1c4.7,2.5,8.4,4.5,14.5,5.1c10.7,0.9,21.5-6.7,24.5-17.4l-0.4-8.1c-3.1-10.2-13.5-17-24.8-16.3
			c-4.8,0.3-9.6,2.9-14.3,5.4c-4.1,2.2-8,4.3-11.3,4.4c-3.1,0.1-6.2-1.7-9.8-3.7c-4.7-2.6-10-5.5-17.1-5.6
			c-10.4-0.2-19.4,5.2-23,13.8L44.6,118.4z"/>
	</g>
	<g clip-path="url(#SVGID_00000016755069104043366140000017605907948138453141_)">
		<path fill="#E0E0E0" d="M47.7,133.4c-0.3,0-0.5-0.2-0.5-0.5c0-0.3,0.2-0.5,0.5-0.5l95-0.8c0,0,0,0,0,0c0.3,0,0.5,0.2,0.5,0.5
			c0,0.3-0.2,0.5-0.5,0.5L47.7,133.4C47.8,133.4,47.7,133.4,47.7,133.4z"/>
	</g>
	<g clip-path="url(#SVGID_00000016755069104043366140000017605907948138453141_)">
		<path fill="#E0E0E0" d="M44.6,94.1c-0.3,0-0.5-0.2-0.5-0.5c0-0.3,0.2-0.5,0.5-0.5l100.7-0.8c0.3,0,0.5,0.2,0.5,0.5
			c0,0.3-0.2,0.5-0.5,0.5L44.6,94.1C44.6,94.1,44.6,94.1,44.6,94.1z"/>
	</g>
	<g clip-path="url(#SVGID_00000016755069104043366140000017605907948138453141_)">
		<path fill="#E0E0E0" d="M94.9,229c-28.8,0-47.5-9.4-47.7-9.5c-0.2-0.1-0.3-0.4-0.2-0.7c0.1-0.2,0.4-0.3,0.7-0.2
			c0.2,0.1,19.1,9.6,48.3,9.4c29.2-0.2,47.8-10,47.9-10.1c0.2-0.1,0.5,0,0.7,0.2s0,0.5-0.2,0.7c-0.2,0.1-19,10-48.4,10.3
			C95.6,229,95.3,229,94.9,229z"/>
	</g>
	<g clip-path="url(#SVGID_00000016755069104043366140000017605907948138453141_)">
		<path fill="#E0E0E0" d="M94.4,212.4c-23.9,0-40.5-5.4-40.6-5.4c-0.3-0.1-0.4-0.4-0.3-0.6c0.1-0.3,0.4-0.4,0.6-0.3
			c0.2,0.1,17.1,5.6,41.6,5.4c24.4-0.2,40.7-7.6,40.8-7.7c0.3-0.1,0.5,0,0.7,0.2c0.1,0.3,0,0.5-0.2,0.7c-0.2,0.1-16.6,7.6-41.2,7.8
			C95.2,212.4,94.8,212.4,94.4,212.4z"/>
	</g>
	<g clip-path="url(#SVGID_00000016755069104043366140000017605907948138453141_)">
		<path fill="#E0E0E0" d="M93.3,195.5c-23,0-31-4.9-31.4-5.1c-0.2-0.1-0.3-0.5-0.2-0.7c0.1-0.2,0.5-0.3,0.7-0.2
			c0.1,0.1,8.6,5.2,33,4.9c24.3-0.3,33.3-5.5,33.4-5.6c0.2-0.1,0.5-0.1,0.7,0.2c0.1,0.2,0.1,0.5-0.2,0.7c-0.4,0.2-9.3,5.4-33.9,5.7
			C94.7,195.5,94,195.5,93.3,195.5z"/>
	</g>
	<g clip-path="url(#SVGID_00000016755069104043366140000017605907948138453141_)">
		<path fill="#E0E0E0" d="M87.8,289.5c-0.2,0-0.3-0.1-0.4-0.2c-19.9-32.2-45.5-46.2-45.7-46.3c-0.2-0.1-0.3-0.4-0.2-0.7
			c0.1-0.2,0.4-0.3,0.7-0.2c0.3,0.1,26,14.3,46.1,46.7c0.1,0.2,0.1,0.5-0.2,0.7C88,289.5,87.9,289.5,87.8,289.5z"/>
	</g>
	<g clip-path="url(#SVGID_00000016755069104043366140000017605907948138453141_)">
		<path fill="#E0E0E0" d="M104.9,289.8c-0.1,0-0.2,0-0.3-0.1c-0.2-0.1-0.3-0.4-0.2-0.7c19.5-32.7,45.1-47.3,45.4-47.4
			c0.2-0.1,0.5,0,0.7,0.2c0.1,0.2,0,0.5-0.2,0.7c-0.3,0.1-25.6,14.5-45,47C105.2,289.7,105,289.8,104.9,289.8z"/>
	</g>
	<g clip-path="url(#SVGID_00000016755069104043366140000017605907948138453141_)">
		<path fill="#E0E0E0" d="M90,291c0,0-0.1,0-0.1,0c-0.4-0.1-44-11.4-52.9-4.7c-0.2,0.2-0.5,0.1-0.7-0.1c-0.2-0.2-0.1-0.5,0.1-0.7
			c9.3-7,52,4,53.8,4.5c0.3,0.1,0.4,0.3,0.4,0.6C90.4,290.9,90.2,291,90,291z"/>
	</g>
	<g clip-path="url(#SVGID_00000016755069104043366140000017605907948138453141_)">
		<path fill="#E0E0E0" d="M103.4,291c-0.2,0-0.4-0.1-0.5-0.4c-0.1-0.3,0.1-0.5,0.3-0.6c1.8-0.5,43.9-12.1,53.3-5.2
			c0.2,0.2,0.3,0.5,0.1,0.7c-0.2,0.2-0.5,0.3-0.7,0.1c-9.1-6.6-52,5.2-52.5,5.3C103.5,291,103.5,291,103.4,291z"/>
	</g>
	<g clip-path="url(#SVGID_00000016755069104043366140000017605907948138453141_)">
		<path fill="#E0E0E0" d="M93.5,250.5c-36.8,0-51.7-7.4-51.8-7.5c-0.2-0.1-0.3-0.4-0.2-0.7c0.1-0.2,0.4-0.3,0.7-0.2
			c0.1,0.1,15.4,7.7,53.5,7.4c38.2-0.3,54-8.2,54.2-8.2c0.2-0.1,0.5,0,0.7,0.2c0.1,0.2,0,0.5-0.2,0.7c-0.2,0.1-16.2,8.1-54.6,8.4
			C94.9,250.5,94.2,250.5,93.5,250.5z"/>
	</g>
	<g opacity="0.2" clip-path="url(#SVGID_00000016755069104043366140000017605907948138453141_)" enable-background="new    ">
		<g>
			<defs>
				<rect id="SVGID_00000061470190208938636480000015325418627991350152_" x="71.2" y="35.2" width="0.7" height="0.7"/>
			</defs>
			<clipPath id="SVGID_00000114788653230931770280000011401002412223534243_">
				<use xlink:href="#SVGID_00000061470190208938636480000015325418627991350152_"  overflow="visible"/>
			</clipPath>
			<g clip-path="url(#SVGID_00000114788653230931770280000011401002412223534243_)">
				<defs>
					<rect id="SVGID_00000005952913510977207110000013794964327266395022_" x="71.4" y="35.2" width="0.2" height="0"/>
				</defs>
				<clipPath id="SVGID_00000150784110541002058480000006989046559283073426_">
					<use xlink:href="#SVGID_00000005952913510977207110000013794964327266395022_"  overflow="visible"/>
				</clipPath>
				<g clip-path="url(#SVGID_00000150784110541002058480000006989046559283073426_)">
					<path fill="#FFFFFF" d="M71.6,35.2l-0.2,0L71.6,35.2z"/>
				</g>
			</g>
		</g>
	</g>
</g>
<g id="AI_ML_LOGO" transform="translate(-4.5 -3.044)">
	<g id="Group_52_00000086655633711834073320000015996640387000184511_" transform="translate(-20 -35.945)">
		<g id="Subtraction_7_00000173879748534758038710000004245972871994287794_">
			<path fill="#C9B79C" d="M167.9,95.9L167.9,95.9l0.1-1c2.3-0.4,3.9-1,4.8-1.8c1-0.9,1.7-2,1.9-3.3c0.4-2.6,0.7-5.2,0.8-7.8
				l1.1-18.6c0.1-1.7,0.2-2.9,0.2-3.5c0.1-1.9-0.2-3.8-0.9-5.5c-0.5-1.2-1.5-2.1-2.7-2.6c-1.6-0.5-3.2-0.9-4.8-0.9l0.1-1.4l0,0
				c0.5,0,0.9,0,1.3,0.1s1.2,0.1,2.2,0.1c1.3,0.1,2.5,0.2,3.5,0.2c1,0.1,2.2,0.1,3.3,0.1c0.5,0,0.9,0,1.3-0.1c0.4,0,1,0,1.8,0
				c0.8,2.1,1.5,3.9,2.1,5.3c0.6,1.4,1.9,4,3.8,7.6c1.9,3.7,3.7,7.1,5.4,10.3c1.7,3.3,3.9,7.4,6.6,12.3c1.1-1.8,2.8-5,5.2-9.7
				c0.5-0.9,2.4-4.4,5-9.3c2.7-5,4.7-8.7,5.8-11l1.2,3c-0.7,1.4-1.8,3.4-3.2,5.9c-1.6,2.9-2.9,5.4-4.1,7.7c-1.2,2.3-2.4,4.6-3.6,6.9
				c-1.2,2.2-2.1,4.1-2.8,5.7c-1.5,3.4-2.5,5.6-3,6.7c-0.5,1.2-1,2.5-1.4,4l-1.1,0.1c-0.6-1.9-1.3-3.9-2.1-6.2
				c-1-2.6-2.2-5.2-3.5-7.7c-3-5.8-7.1-13.5-12.3-23.6c-0.4,4-0.8,8.8-1.2,14.2c-0.4,5.4-0.6,11.1-0.6,17.1c0,1.8,0.4,3.2,1.2,3.9
				c0.8,0.7,2.6,1.3,5.4,1.6l-0.1,1.2c-1.7-0.2-3.4-0.3-5.1-0.3l-4.3,0.1c-0.5,0-0.9,0-1.4,0l-1.2,0l-0.6,0c-0.8,0-1.6,0.1-2.3,0.1
				C168.8,95.9,168.2,95.9,167.9,95.9z M227.5,51.4L227.5,51.4l-0.6-1.4c0.7,0,1.4,0,1.9-0.1l-0.1,1.3
				C228.4,51.2,227.9,51.3,227.5,51.4L227.5,51.4z"/>
			<path fill="#C9B79C" d="M184.9,96.5l-0.5-0.1c-1.7-0.2-3.4-0.3-5-0.3l-4.3,0.1c-0.5,0-0.9,0-1.4,0l-1.8,0.1
				c-0.8,0-1.6,0.1-2.3,0.1c-0.8,0-1.3,0.1-1.7,0.1h-0.5l0.1-2l0.4-0.1c2.2-0.4,3.7-0.9,4.6-1.7c0.9-0.8,1.5-1.8,1.7-3
				c0.4-2.6,0.7-5.2,0.8-7.8l1.1-18.6c0.1-1.7,0.2-2.8,0.2-3.4c0.1-1.8-0.2-3.7-0.9-5.3c-0.5-1-1.4-1.9-2.4-2.3
				c-1.5-0.5-3.1-0.8-4.7-0.9l-0.5,0l0.2-2.3h0.5c0.5,0,0.9,0,1.4,0.1c0.4,0,1.1,0.1,2.2,0.1c1.4,0.1,2.5,0.2,3.5,0.2
				c1,0.1,2.1,0.1,3.2,0.1c0.5,0,0.9,0,1.3-0.1c0.4,0,1,0,1.8,0h0.3l0.1,0.3c0.8,2.1,1.5,3.9,2.1,5.3c0.6,1.4,1.9,4,3.8,7.6
				c1.9,3.7,3.7,7.2,5.4,10.3l6.2,11.5c1.1-1.9,2.7-4.9,4.8-8.9c0.5-0.9,2.4-4.4,5-9.3c2.7-5,4.7-8.7,5.8-11l0.5-1l1.6,4.2l-0.1,0.2
				c-0.7,1.4-1.8,3.4-3.2,5.9c-1.6,2.9-2.9,5.4-4.1,7.7c-1.2,2.3-2.4,4.6-3.6,6.9c-1.1,2.2-2.1,4.1-2.8,5.7c-1.5,3.4-2.5,5.6-3,6.7
				c-0.5,1.2-1,2.5-1.4,4l-0.1,0.3l-1.8,0.1l-0.1-0.4c-0.6-1.9-1.3-4-2.1-6.1c-1-2.6-2.2-5.2-3.5-7.6c-2.9-5.5-6.7-12.8-11.5-22.1
				c-0.3,3.6-0.7,7.8-1,12.5c-0.4,5.4-0.6,11.1-0.6,17.1c0,1.7,0.3,2.9,1,3.5c0.5,0.5,1.7,1.1,5.1,1.4l0.5,0.1L184.9,96.5z
				 M168.4,95.3l0,0.1c0.3,0,0.6,0,1.1,0c0.7,0,1.5-0.1,2.3-0.1l1.8-0.1c0.4,0,0.9,0,1.4,0l4.3-0.1c1.5,0,3.1,0.1,4.6,0.2l0-0.2
				c-2.7-0.3-4.4-0.9-5.3-1.6c-0.9-0.8-1.3-2.3-1.3-4.2c0-6,0.2-11.8,0.6-17.1c0.4-5.4,0.8-10.1,1.2-14.2l0.2-1.7l0.8,1.5
				c5.2,10.1,9.3,17.8,12.3,23.6c1.3,2.5,2.5,5.1,3.6,7.8c0.8,2,1.4,4,2,5.8l0.4,0c0.4-1.4,0.9-2.6,1.4-3.7c0.5-1.2,1.4-3.3,3-6.8
				c0.8-1.6,1.7-3.6,2.9-5.7c1.2-2.3,2.4-4.6,3.6-6.9c1.2-2.3,2.5-4.8,4.1-7.7c1.3-2.4,2.3-4.3,3-5.7l-0.7-1.8
				c-1.2,2.3-3,5.7-5.3,10c-2.6,4.9-4.5,8.4-5,9.3c-2.4,4.7-4.2,7.9-5.2,9.7l-0.5,0.8l-7-13.1c-1.7-3.2-3.5-6.7-5.4-10.3
				c-1.9-3.6-3.1-6.2-3.8-7.6c-0.6-1.4-1.3-3.1-2-5c-0.6,0-1.1,0-1.4,0c-0.4,0-0.8,0-1.3,0.1c-1.1,0-2.3,0-3.3-0.1
				c-1-0.1-2.1-0.1-3.5-0.2c-1.1,0-1.8-0.1-2.2-0.1c-0.3,0-0.5,0-0.8,0l0,0.4c1.5,0.1,3,0.4,4.4,0.9c1.3,0.5,2.4,1.6,3,2.8
				c0.8,1.8,1.1,3.8,1,5.8c0,0.6-0.1,1.8-0.2,3.5L176,82c-0.1,2.6-0.4,5.3-0.8,7.9c-0.2,1.4-0.9,2.7-2,3.6
				C172.2,94.3,170.6,94.9,168.4,95.3z M227.2,51.9l-1-2.5l0.7,0c0.7,0,1.4,0,1.9-0.1l0.6,0l-0.1,2.3l-0.4,0
				c-0.5,0.1-0.9,0.1-1.3,0.2L227.2,51.9z M227.7,50.4l0.2,0.4c0.2,0,0.3,0,0.5-0.1l0-0.4C228.2,50.4,227.9,50.4,227.7,50.4z"/>
		</g>
	</g>
	<g id="Subtraction_11_00000133506981748572775720000013923540180508088457_">
		<path fill="#010101" d="M229.6,61.9L229.6,61.9c-1.5-0.2-3.1-0.3-4.6-0.3c-0.7,0-1.4,0-1.9-0.1c-0.6,0-1.3,0-2.1,0h-23.7l-0.1-1
			c1-0.2,2-0.5,2.9-0.9c0.6-0.4,1.1-0.9,1.4-1.6c0.4-1.1,0.6-2.3,0.6-3.5c0.1-1.5,0.1-3.8,0.1-6.7l0-10.4h4.7c0,1.7-0.1,3.3-0.1,4.9
			c0,2.8-0.1,5.7-0.1,8.4c0,2.5,0.1,4.4,0.2,5.6c0,0.8,0.2,1.6,0.7,2.3c0.6,0.4,1.2,0.6,1.9,0.6c1.9,0.2,3.8,0.2,5.7,0.2
			c2.7,0,5.4-0.2,8-0.8c1.7-0.4,3.3-0.9,4.8-1.7c1.5-1,2.6-2.7,3-4.5l1.1,0.1c-0.1,0.9-0.4,2.3-0.9,4.1
			C230.9,58.6,230.3,60.2,229.6,61.9L229.6,61.9z"/>
		<path fill="#010101" d="M230.1,62.5l-0.6-0.1c-1.5-0.2-3-0.3-4.6-0.3c-0.7,0-1.4,0-1.9-0.1s-1.3,0-2.1,0h-24.2l-0.1-2l0.4-0.1
			c1-0.2,1.9-0.4,2.8-0.8c0.5-0.3,0.9-0.8,1.1-1.3c0.3-1.1,0.5-2.2,0.6-3.3c0.1-1.5,0.1-3.8,0.1-6.7l0-10.9h5.7l0,0.5
			c0,1.7-0.1,3.3-0.1,4.9c0,2.8-0.1,5.7-0.1,8.4c0,2.5,0.1,4.4,0.2,5.6c0,0.7,0.2,1.4,0.5,2c0.5,0.3,1,0.5,1.6,0.5
			c1.9,0.2,3.8,0.2,5.6,0.2c2.7,0,5.3-0.2,7.9-0.8c1.6-0.3,3.2-0.9,4.7-1.6c1.4-0.9,2.4-2.4,2.7-4.1l0.1-0.5l2.1,0.3l-0.1,0.5
			c-0.1,0.9-0.4,2.4-0.9,4.2c-0.4,1.7-1,3.4-1.6,5V62.5z M197.8,61H221c0.8,0,1.5,0,2.1,0s1.2,0,2,0.1c1.4,0,2.9,0.1,4.3,0.3
			c0.6-1.5,1.1-3.1,1.5-4.6c0.4-1.5,0.7-2.7,0.8-3.6l-0.1,0c-0.5,1.8-1.6,3.3-3.1,4.4c-1.6,0.8-3.3,1.4-5,1.7
			c-2.7,0.6-5.4,0.8-8.1,0.8c-1.9,0-3.8,0-5.7-0.2c-0.8-0.1-1.5-0.3-2.1-0.7l-0.2-0.2c-0.5-0.8-0.8-1.7-0.8-2.6
			c-0.1-1.2-0.2-3.1-0.2-5.6c0-2.8,0-5.6,0.1-8.5c0-1.5,0.1-3,0.1-4.4h-3.7l0,9.9c0,2.9,0,5.2-0.1,6.7c0,1.2-0.2,2.4-0.6,3.6
			c-0.3,0.8-0.8,1.5-1.6,1.9c-0.9,0.4-1.7,0.7-2.6,0.9L197.8,61z"/>
	</g>
	<g id="Group_53_00000150795258653081603460000001789232329439914675_" transform="translate(5.169 75.684)">
		<g id="Path_745_00000173847448468472747730000010908464810072019596_">
			<path fill="#010101" d="M204-54.2c0.1-1,2.5-6.5,2.5-7.5s-2.6-1.9-3.9-2.6c-1.3-0.7-1.1-2.6-1.1-2.6h-4c0,0,0.1,1.9-1.1,2.6
				c-1.3,0.7-3.9,1.6-3.9,2.6c0,1,2.4,6.5,2.5,7.5c0.1,1,0.8,2.9,0.4,4.1c-0.5,1.1-2.9,4.2-3.3,9.7l7.3,0.2h0.2l7.1-0.2
				c0.1-4.8-2.6-8.5-3.1-9.7C203.2-51.2,203.9-53.2,204-54.2z"/>
		</g>
	</g>
	<g id="skirt-svgrepo-com_00000083789267389304590430000004827691093068393384_" transform="translate(66.263 -8.483)">
		<g id="Path_1032_00000013886053464163022500000015824498206631485317_">
			<path fill="#E2DDCD" d="M135.6,34.8h-2l-4.7,6.6c-0.1,0.2-0.1,0.4,0,0.6c0,0.1,1.1,2.1,4.9,3.2L135.6,34.8z"/>
		</g>
		<g id="Path_1033_00000015347520101834982070000005669616354536617887_">
			<path fill="#E2DDCD" d="M142.9,34v-1.2c0-0.3-0.3-0.6-0.6-0.6l0,0h-8c-0.3,0-0.6,0.3-0.6,0.6l0,0V34H142.9z"/>
		</g>
		<g id="Path_1034_00000053533013190055253290000017087630898291785148_">
			<path fill="#E2DDCD" d="M140.1,34.8h-3.7l-2.1,11.5c2.4,1.5,5.5,1.5,8,0L140.1,34.8z"/>
		</g>
		<g id="Path_1035_00000156573119420421478110000009502583348303420604_">
			<path fill="#E2DDCD" d="M147.7,41.4l-4.7-6.6h-2l2,10.4c3.8-1.1,4.8-3.1,4.9-3.2C147.9,41.9,147.9,41.6,147.7,41.4z"/>
		</g>
	</g>
</g>
<g>
	<path d="M315.1,330.7H187.5v-57.4c0-41.4,27.8-84.3,28.1-84.7l0.2-0.4l0.4,0.2c0.3,0.1,28.6,12.5,68.9-0.7l0.4-0.1l0.2,0.3
		c0.3,0.5,29.5,47.4,29.5,84.5V330.7z M188.5,329.7h125.6v-57.3c0-35.1-26.5-79.3-29.1-83.6c-37.9,12.3-65.2,2.2-68.8,0.7
		c-2.6,4.2-27.7,44.7-27.7,83.8V329.7z"/>
</g>
<g>
	<path d="M250,211.2c-23.3,0-43.3-4.7-43.6-4.8l0.2-1c0.5,0.1,53.2,12.5,86.8-3.1l0.4,0.9C280.7,209.3,264.7,211.2,250,211.2z"/>
</g>
<g>
	<path d="M115.2,330.7H34.8v-0.5c0-0.4,0-43.3,0.2-72.4c0.2-29.3,26.7-68.8,26.9-69.2l0.2-0.3l0.4,0.1c0.3,0.1,29.7,9.9,66.6-0.6
		l0.4-0.1l0.2,0.3c0.3,0.5,28.4,47.1,28.4,71v35.8h-43.1L115.2,330.7z M35.8,329.7h78.4l-0.3-35.9H157V259c0-22.6-25.6-66-28.1-70.2
		c-34.7,9.8-62.9,1.7-66.4,0.6c-2.5,3.8-26.4,40.8-26.6,68.4C35.8,285.2,35.8,324.8,35.8,329.7z"/>
</g>
<g>
	<path d="M138.8,323.7c-3.8,0-6.9-3.1-6.9-6.9s3.1-6.9,6.9-6.9s6.9,3.1,6.9,6.9S142.6,323.7,138.8,323.7z M138.8,310.8
		c-3.3,0-5.9,2.7-5.9,5.9s2.7,5.9,5.9,5.9c3.3,0,5.9-2.7,5.9-5.9S142.1,310.8,138.8,310.8z"/>
</g>
<g>
	<rect x="114.5" y="312.3" width="19.2" height="1"/>
</g>
<g>
	<rect x="114.5" y="319.8" width="19.2" height="1"/>
</g>
<g>
	<path d="M144.1,314.2l0-1c0.1,0,11.2-0.5,13.7-1.8l0.5,0.9C155.5,313.7,144.6,314.2,144.1,314.2z"/>
</g>
<g>
	<path d="M144.1,320.1l0-1c4.7-0.1,12.2-0.3,13.3-0.8l0.4,0.9C156.1,319.9,145.3,320.1,144.1,320.1z"/>
</g>
<g>
	<path d="M138.8,321.4c-2.6,0-4.7-2.1-4.7-4.7s2.1-4.7,4.7-4.7c2.6,0,4.7,2.1,4.7,4.7S141.4,321.4,138.8,321.4z M138.8,313.1
		c-2,0-3.7,1.7-3.7,3.7s1.7,3.7,3.7,3.7c2,0,3.7-1.7,3.7-3.7S140.8,313.1,138.8,313.1z"/>
</g>
<g>
	<rect x="114" y="191.5" width="1" height="102.9"/>
</g>
<g>
	<rect x="220.8" y="212.6" transform="matrix(0.1581 -0.9874 0.9874 0.1581 -20.9751 401.6522)" width="8.4" height="1"/>
</g>
<g>
	<rect x="274.6" y="208.5" transform="matrix(0.9874 -0.1585 0.1585 0.9874 -30.2696 46.3026)" width="1" height="8.8"/>
</g>
<g>
	<rect x="235" y="210.7" width="1" height="11.9"/>
</g>
<g>
	<rect x="258.8" y="210.7" width="1" height="11.9"/>
</g>
<g>
	<rect x="157" y="294.3" width="1" height="35.9"/>
</g>
</svg>
