<svg id="Layer_1" data-name="Layer 1" xmlns="http://www.w3.org/2000/svg" xmlns:xlink="http://www.w3.org/1999/xlink" viewBox="0 0 493.36 500"><defs><style>.cls-1,.cls-12,.cls-18,.cls-19,.cls-6,.cls-7{fill:none;}.cls-2{font-size:24.68px;fill:#888;font-family:NirmalaUI-Semilight, Nirmala UI;font-weight:300;}.cls-3{letter-spacing:-0.04em;}.cls-4{letter-spacing:0.03em;}.cls-5{clip-path:url(#clip-path);}.cls-6{stroke:#bbbdbf;stroke-width:0.5px;}.cls-12,.cls-17,.cls-18,.cls-19,.cls-6{stroke-miterlimit:10;}.cls-12,.cls-7{stroke:#e0e0e0;}.cls-7{stroke-linecap:round;stroke-linejoin:round;}.cls-8{isolation:isolate;opacity:0.2;}.cls-9{clip-path:url(#clip-path-2);}.cls-10{clip-path:url(#clip-path-3);}.cls-11,.cls-17{fill:#fff;}.cls-13{clip-path:url(#clip-path-5);}.cls-14{fill:#c8b69b;stroke:#c8b69b;}.cls-15,.cls-19{stroke:#000;}.cls-16{fill:#e1dccc;}.cls-17,.cls-18{stroke:#231f20;}</style><clipPath id="clip-path"><rect class="cls-1" x="19.57" y="195.48" width="454.22" height="279.98"/></clipPath><clipPath id="clip-path-2"><rect class="cls-1" x="116.16" y="60.77" width="0.85" height="0.85"/></clipPath><clipPath id="clip-path-3"><rect class="cls-1" x="116.44" y="60.84" width="0.21" height="0.03"/></clipPath><clipPath id="clip-path-5"><rect class="cls-1" x="116.44" y="60.84" width="0.21" height="0.03"/></clipPath></defs><text class="cls-2" transform="translate(106.16 132.3)"><tspan class="cls-3">F</tspan><tspan x="10.85" y="0">ashion Illustration for Ski</tspan><tspan class="cls-4" x="270.35" y="0">r</tspan><tspan x="279.42" y="0">t</tspan></text><g class="cls-5"><polyline class="cls-1" points="397.61 475.46 397.61 122.83 -100.32 122.83"/><polyline class="cls-1" points="-100.32 123.26 397.55 123.26 397.55 475.46"/><polyline class="cls-1" points="397.61 475.46 397.61 122.83 -100.32 122.83"/><polyline class="cls-1" points="-100.32 123.26 397.55 123.26 397.55 475.46"/><polyline class="cls-1" points="397.61 475.46 397.61 122.83 -100.32 122.83"/><polyline class="cls-1" points="-100.32 123.26 397.55 123.26 397.55 475.46"/><line class="cls-6" x1="314.61" y1="133.3" x2="314.61" y2="138.32"/><line class="cls-6" x1="312.1" y1="135.81" x2="317.12" y2="135.81"/><line class="cls-6" x1="231.62" y1="133.3" x2="231.62" y2="138.32"/><line class="cls-6" x1="229.11" y1="135.81" x2="234.14" y2="135.81"/><line class="cls-6" x1="148.64" y1="133.3" x2="148.64" y2="138.32"/><line class="cls-6" x1="146.12" y1="135.81" x2="151.15" y2="135.81"/><line class="cls-6" x1="65.65" y1="133.3" x2="65.65" y2="138.32"/><line class="cls-6" x1="63.13" y1="135.81" x2="68.16" y2="135.81"/><polyline class="cls-1" points="397.61 475.46 397.61 122.83 -100.32 122.83"/><polyline class="cls-1" points="-100.32 123.26 397.55 123.26 397.55 475.46"/><polyline class="cls-1" points="397.55 475.46 397.55 123.26 -100.32 123.26"/><path class="cls-7" d="M405.3,92.57s-36.88-15.28-42.62-18.42A13.12,13.12,0,0,1,356,65.71s-1.27-6-2-11.55"/><path class="cls-7" d="M337.37,369.86c7.5.65,15.25-6,9.5-.44-4.9,4.7-4.3,42.83-4.3,42.83s.61,12.19,1.2,27.38"/><line class="cls-7" x1="405.07" y1="92.57" x2="264.01" y2="93.41"/><path class="cls-7" d="M348.85,367.35c34.48-28.67,49.71-79.52,49.71-79.52"/><path class="cls-7" d="M348.85,367.35s32.11,6.9,64.26-28"/><path class="cls-7" d="M405.3,92.57s-8.34,5-4.61,70.07l.09.55-20.39,84.69s-1.75,4.61,1.14,8.47,15.93,29.23,17,31.35,4.8,21.18,7,27.53,9.84,26.8,9.57,37.06c-.2,7.54-6.54,51.52-14.14,86.95"/><path class="cls-7" d="M374.9,79.73s-6.95,27-9.14,65.94S358,252,358,252l8.29,18.71s7.61,39.2,13.84,73.9c2.95,16.47-2.08,55.69-7.7,94.71"/><line class="cls-7" x1="334.85" y1="53.88" x2="337.37" y2="369.73"/><path class="cls-7" d="M264.24,93.41s36.63-15.85,42.32-19.07,6.71-7.84,6.71-7.84.9-5.88,1.53-12"/><path class="cls-7" d="M337.37,369.86c-7.49.77-15.42-4.14-9.4.55,5.35,4.18,3.78,42.6,3.78,42.6s-.3,11.9-.64,26.7"/><line class="cls-7" x1="292.22" y1="252.12" x2="379.87" y2="251.78"/><line class="cls-7" x1="398.56" y1="287.83" x2="273.63" y2="288.81"/><path class="cls-7" d="M325.88,368.56c-34.94-28.12-52.25-79.75-52.25-79.75"/><path class="cls-7" d="M325.71,368.43s-32.85,6.2-65.55-28.21"/><path class="cls-7" d="M264.24,93.41s8.34,4.42,5.65,69.52l0,.38,21.73,84.36s1.82,4.58-1,8.5-15.47,29.47-16.52,31.6-4.47,21.26-6.57,27.64-9.41,27-9,37.2c.33,7.58,7.25,52.05,15.46,87.43"/><path class="cls-7" d="M294,80.28s7.51,27.11,10.32,66S313.73,252,313.73,252L306,271.32s-7.11,39.29-12.78,74.08c-2.69,16.47,2.86,55.76,9.09,94.61"/><line class="cls-7" x1="274.85" y1="182.49" x2="396.13" y2="182.49"/><path class="cls-7" d="M310.09,71.67a69.37,69.37,0,0,0,24.77,3.94,86.15,86.15,0,0,0,24.65-3.79"/><line class="cls-7" x1="270.35" y1="147.92" x2="400.01" y2="147.92"/><line class="cls-7" x1="282.39" y1="271.32" x2="389.54" y2="270.48"/><line class="cls-7" x1="406.31" y1="317.3" x2="266.69" y2="318.37"/><path class="cls-7" d="M260.81,371.25s51.22,2.66,64.81-2.9c0,0-39.53-14-58.95-49.87"/><path class="cls-7" d="M413.11,369.56s-50.59,3.13-64.26-2.21c0,0,38.62-13.88,57.46-50.05"/><path class="cls-7" d="M325.71,368.35c-2.16-61.36-52-79.4-52-79.4"/><path class="cls-7" d="M398.56,287.83s-48.53,18-49.71,79.4"/><path class="cls-7" d="M274,288.91s63.18,1.13,63.3,75.78"/><path class="cls-7" d="M398.56,287.83s-62.28,2.09-61.21,76.74"/><g class="cls-8"><g class="cls-9"><g class="cls-10"><path class="cls-11" d="M116.66,60.84l-.22,0Z"/></g></g></g><path class="cls-7" d="M77.59,93.06s7.82,5.48,5.12,70.57"/><path class="cls-7" d="M212.43,92.16s-7.49,5.72-3.76,70.77"/><path class="cls-7" d="M77.59,93.06s36.22-15.72,41.9-19,6.72-7.84,6.72-7.84l.16-12.13"/><path class="cls-7" d="M86.75,439.67c-8.14-35.27-15.09-79.44-15.41-86.95-.44-10.25,6.89-30.83,9-37.21s5.5-25.51,6.56-27.64,13.7-27.69,16.52-31.6,1-8.5,1-8.5L82.68,163.42"/><path class="cls-7" d="M147.17,377.32l-.28,0c-7.48.76-12.53-5.56-7.5-1s5,42.76,5,42.76-.22,8.62-.49,20.31"/><line class="cls-7" x1="77.59" y1="93.06" x2="212.43" y2="92.16"/><line class="cls-7" x1="144.58" y1="54.06" x2="147.17" y2="377.32"/><path class="cls-7" d="M137.33,374.67c-8.56-43.79-50.45-86.8-50.45-86.8"/><path class="cls-7" d="M71.73,350s31.78-8.65,65.6,24.68"/><path class="cls-7" d="M138.23,156.72c.1,13.41-11.31,24.37-25.5,24.48S87,170.53,86.84,157.12s11.31-24.37,25.5-24.48S138.12,143.31,138.23,156.72Z"/><line class="cls-7" x1="82.93" y1="157.5" x2="208.33" y2="156.53"/><path class="cls-7" d="M101.74,82.36s6.65,36.86,9.46,75.15,10.36,99.07,10.36,99.07l-6.91,31.06s-5.69,30.93-11.37,65.17c-2.54,15.32,2.39,50.71,8.18,86.82"/><path class="cls-7" d="M212.43,92.16s-36.23-15-42-18.14-6.84-7.73-6.84-7.73l-.35-12.53"/><path class="cls-7" d="M209.18,438.91c7.6-35.42,13.71-79.61,13.91-87.15.28-10.26-7.38-30.71-9.57-37.06s-5.91-25.42-7-27.53-14.14-27.48-17-31.35-1.13-8.48-1.13-8.48l20.31-84.41"/><path class="cls-7" d="M147.17,377.32l.83.14c7.5.65,12.44-5.76,7.48-1.12s-4.3,42.82-4.3,42.82.38,8.38.85,20.1"/><path class="cls-7" d="M157.52,374.64c7.86-43.91,48.66-87.84,48.66-87.84"/><path class="cls-7" d="M222.72,348.93s-31.92-8.15-65.2,25.71"/><path class="cls-7" d="M153.14,156.73c.11,13.41,11.7,24.19,25.89,24.08s25.61-11.07,25.51-24.48-11.71-24.2-25.9-24.09S153,143.32,153.14,156.73Z"/><path class="cls-7" d="M186.72,81.4s-4.62,37.09-6.81,75.41S170.72,256,170.72,256l8.08,30.76s6.19,30.84,12.41,65c2.79,15.3-1.53,50.58-6.75,86.82"/><line class="cls-11" x1="138.62" y1="156.98" x2="152.8" y2="156.87"/><line class="cls-12" x1="138.62" y1="156.98" x2="152.8" y2="156.87"/><line class="cls-7" x1="138.62" y1="156.98" x2="152.8" y2="156.87"/><path class="cls-7" d="M83.09,150.27c4.63-11.06,16.18-17.64,29.06-17.45,15.61.23,24.61,11.6,33.16,11.47,8.31-.12,20.1-11.38,31.56-12.1,14.15-.89,27.45,7.81,31.29,20.61l.51,10.13c-3.63,12.86-16.83,23.16-30.93,22-8.69-.73-13.42-3.81-20.57-7.6-2.57-1.37-7.13-5.26-11.64-5.14-4.17.11-7.33,3.21-10.86,5.33-6.85,4.12-12.85,7.87-21.5,7.8-14.23-.13-25.66-10.68-30.46-21.68l.38-13.36"/><line class="cls-7" x1="87.25" y1="181.33" x2="204.43" y2="180.33"/><line class="cls-7" x1="83.34" y1="132.92" x2="207.65" y2="131.95"/><path class="cls-7" d="M206.18,286.8s-22.86,12.3-59.45,12.59-59.89-11.65-59.89-11.65"/><path class="cls-7" d="M94.85,272.13s20.86,6.92,51.47,6.68S197,269.27,197,269.27"/><path class="cls-7" d="M187.68,251.08s-11,6.57-41.56,7-41-6.16-41-6.16"/><path class="cls-7" d="M80,316.63s31.71,17.05,56.66,57.38"/><path class="cls-7" d="M213.46,316.06S182,333.6,157.73,374.32"/><path class="cls-7" d="M139.33,375.89s-54.41-14.27-65.82-5.65"/><path class="cls-7" d="M156,375.89s53.71-14.93,65.25-6.49"/><path class="cls-7" d="M80,316.63s18.49,9.57,66.32,9.19,67.12-10.24,67.12-10.24"/><g class="cls-8"><g class="cls-9"><g class="cls-13"><path class="cls-11" d="M116.66,60.84l-.22,0Z"/></g></g></g></g><g id="AI_ML_LOGO" data-name="AI ML LOGO"><g id="Group_52" data-name="Group 52"><path id="Subtraction_7" data-name="Subtraction 7" class="cls-14" d="M205.27,87.64h0l.09-1.27c2.8-.5,4.81-1.23,6-2.19a6.78,6.78,0,0,0,2.29-4.11,89,89,0,0,0,1-9.63l1.32-23c.15-2.1.22-3.54.22-4.27A15.92,15.92,0,0,0,215,36.39a6.3,6.3,0,0,0-3.35-3.19,21.57,21.57,0,0,0-6-1.16l.18-1.67h0q.84,0,1.62.06c.53.05,1.46.08,2.77.11,1.64.13,3,.23,4.26.31s2.66.13,4.05.13l1.58-.06c.51,0,1.25,0,2.19,0,1,2.62,1.86,4.84,2.63,6.6s2.34,4.95,4.64,9.39,4.61,8.81,6.72,12.76l8.14,15.19c1.3-2.18,3.48-6.21,6.45-12l6.13-11.53c3.32-6.22,5.75-10.79,7.21-13.57l1.42,3.71c-.89,1.72-2.2,4.18-3.88,7.31-1.93,3.57-3.58,6.66-5.06,9.46s-3,5.66-4.46,8.49-2.6,5.09-3.51,7c-1.91,4.17-3.12,6.89-3.72,8.31s-1.19,3.09-1.78,4.93l-1.35.08c-.73-2.29-1.62-4.85-2.65-7.6A83.26,83.26,0,0,0,234.93,70c-3.76-7.15-8.72-16.68-15.19-29.11-.49,4.92-1,10.79-1.45,17.46s-.71,13.74-.71,21.11c0,2.28.48,3.89,1.43,4.8s3.21,1.55,6.71,1.93l-.09,1.45a52.14,52.14,0,0,0-6.25-.35l-5.32.09-1.69,0-1.5,0-.72,0c-1,0-2,.06-2.86.11S205.68,87.64,205.27,87.64Zm73.59-55h0l-.68-1.77,2.4-.07-.09,1.63c-.57.06-1.12.13-1.63.21Z"/></g><path id="Subtraction_11" data-name="Subtraction 11" class="cls-15" d="M306.16,90h0a52,52,0,0,0-5.71-.41l-2.4-.07-2.56,0H266.24l-.09-1.29a14.65,14.65,0,0,0,3.56-1.08,3.71,3.71,0,0,0,1.68-2,15.1,15.1,0,0,0,.72-4.32c.11-1.9.17-4.69.17-8.29l.06-12.81h5.81c0,2-.09,4.09-.12,6.1-.06,3.5-.08,7-.08,10.42a68.54,68.54,0,0,0,.25,7A5.28,5.28,0,0,0,279,86a5.22,5.22,0,0,0,2.35.79,58.83,58.83,0,0,0,7,.25,43.86,43.86,0,0,0,9.9-1,26.26,26.26,0,0,0,6-2A8.66,8.66,0,0,0,308,78.5l1.37.17a52.06,52.06,0,0,1-1.12,5.12A45.59,45.59,0,0,1,306.15,90Z"/><g id="Group_53" data-name="Group 53"><path id="Path_745" data-name="Path 745" d="M280.86,40.19c.13-1.23,3.08-8,3.08-9.26s-3.19-2.39-4.75-3.2-1.4-3.19-1.4-3.19h-5s.16,2.37-1.39,3.19-4.76,2-4.76,3.2,3,8,3.08,9.26,1,3.61.45,5-3.57,5.13-4.05,11.91l9.05.22h.21l8.8-.22c.07-5.88-3.22-10.52-3.8-11.91S280.74,41.43,280.86,40.19Z"/></g><g id="skirt-svgrepo-com"><path id="Path_1032" data-name="Path 1032" class="cls-16" d="M271.85,46.13h-2.51L263.5,54.3a.74.74,0,0,0-.05.77c.05.11,1.32,2.56,6,3.91Z"/><path id="Path_1033" data-name="Path 1033" class="cls-16" d="M280.84,45.09V43.66a.74.74,0,0,0-.74-.74h-9.84a.75.75,0,0,0-.75.74h0v1.43Z"/><path id="Path_1034" data-name="Path 1034" class="cls-16" d="M277.45,46.13h-4.54l-2.64,14.13a9.47,9.47,0,0,0,9.82,0Z"/><path id="Path_1035" data-name="Path 1035" class="cls-16" d="M286.85,54.3,281,46.13h-2.5L280.91,59c4.68-1.35,5.95-3.8,6-3.91A.74.74,0,0,0,286.85,54.3Z"/></g></g><path class="cls-17" d="M416.51,424.86v-71.3c0-46.06-36.25-103.9-36.25-103.9-50.56,16.6-85.46.85-85.46.85s-34.52,52.66-34.52,104.17v70.18Z"/><path class="cls-18" d="M283.16,271.48s65.33,15.64,107.48-3.88"/><path class="cls-18" d="M222.74,380.6V337c0-29.73-35-87.33-35-87.33-46.19,13.23-82.51.74-82.51.74s-32.94,48.73-33.13,85.07-.19,89.39-.19,89.39h98l-.32-44.26h53.19Z"/><circle class="cls-18" cx="199.61" cy="408.26" r="7.93"/><line class="cls-18" x1="169.67" y1="403.42" x2="193.34" y2="403.42"/><line class="cls-18" x1="169.67" y1="412.63" x2="193.34" y2="412.63"/><path class="cls-18" d="M206.11,404.54s13.54-.63,16.63-2.24"/><path class="cls-18" d="M206.11,411.75s14.64-.22,16.63-1.06"/><circle class="cls-18" cx="199.61" cy="408.26" r="5.16"/><line class="cls-18" x1="169.67" y1="253.69" x2="169.55" y2="380.6"/><line class="cls-19" x1="306.85" y1="275.27" x2="305.21" y2="285.49"/><line class="cls-19" x1="366.99" y1="274.76" x2="368.71" y2="285.49"/><line class="cls-19" x1="318.87" y1="277.41" x2="318.87" y2="292.08"/><line class="cls-19" x1="348.35" y1="277.41" x2="348.35" y2="292.08"/><line class="cls-18" x1="222.74" y1="380.6" x2="222.74" y2="424.86"/></svg>