<?xml version="1.0" encoding="utf-8"?>
<!-- Generator: Adobe Illustrator 26.3.1, SVG Export Plug-In . SVG Version: 6.00 Build 0)  -->
<svg version="1.1" id="Layer_1" xmlns="http://www.w3.org/2000/svg" xmlns:xlink="http://www.w3.org/1999/xlink" x="0px" y="0px"
	 viewBox="0 0 350 350" enable-background="new 0 0 350 350" xml:space="preserve">
<g>
	<path fill="#898989" d="M70.4,81.1v5.3h5.1v1.2h-5.1v6.4h-1.3v-14h6.8v1.2H70.4z"/>
	<path fill="#898989" d="M83.4,93.9v-1.8h0c-0.3,0.6-0.8,1.1-1.3,1.5s-1.2,0.5-1.9,0.5c-0.5,0-0.9-0.1-1.3-0.2s-0.7-0.3-1-0.6
		s-0.5-0.6-0.6-0.9S77,91.7,77,91.3c0-0.9,0.3-1.6,0.8-2.2s1.4-0.9,2.5-1l3-0.4c0-1.9-0.7-2.9-2.2-2.9c-1.2,0-2.2,0.4-3.2,1.3v-1.4
		c0.2-0.1,0.4-0.3,0.7-0.4s0.5-0.2,0.8-0.3s0.6-0.2,0.9-0.2s0.6-0.1,0.9-0.1c1.1,0,2,0.3,2.5,0.9s0.9,1.6,0.9,2.8v6.5H83.4z
		 M80.8,89.1c-0.4,0.1-0.8,0.1-1.2,0.2s-0.6,0.2-0.8,0.4s-0.4,0.4-0.5,0.6s-0.1,0.5-0.1,0.9c0,0.3,0,0.5,0.1,0.7s0.2,0.4,0.4,0.6
		s0.4,0.3,0.7,0.4s0.5,0.1,0.9,0.1c0.4,0,0.8-0.1,1.2-0.3s0.7-0.4,1-0.7s0.5-0.7,0.6-1.1s0.2-0.9,0.2-1.4v-1L80.8,89.1z"/>
	<path fill="#898989" d="M87.1,92.1c0.2,0.1,0.4,0.3,0.6,0.4s0.4,0.2,0.7,0.3s0.5,0.1,0.7,0.2s0.5,0.1,0.7,0.1
		c1.5,0,2.2-0.6,2.2-1.7c0-0.3-0.1-0.5-0.2-0.7s-0.3-0.4-0.4-0.5S91,90,90.7,89.8s-0.6-0.3-0.9-0.4c-0.5-0.2-0.9-0.4-1.2-0.6
		s-0.6-0.4-0.8-0.6s-0.4-0.5-0.5-0.8s-0.2-0.6-0.2-0.9c0-0.4,0.1-0.8,0.3-1.2s0.5-0.6,0.8-0.9s0.7-0.4,1.1-0.6s0.9-0.2,1.3-0.2
		c0.9,0,1.6,0.2,2.3,0.5v1.3c-0.7-0.5-1.6-0.7-2.4-0.7c-0.3,0-0.6,0-0.9,0.1s-0.5,0.2-0.7,0.3s-0.3,0.3-0.4,0.5s-0.2,0.4-0.2,0.7
		c0,0.2,0,0.5,0.1,0.6s0.2,0.4,0.4,0.5s0.4,0.3,0.6,0.4s0.6,0.3,1,0.4c0.5,0.2,0.9,0.4,1.2,0.6s0.6,0.4,0.9,0.6s0.4,0.5,0.5,0.8
		s0.2,0.6,0.2,1c0,0.4-0.1,0.8-0.3,1.2s-0.4,0.6-0.8,0.9s-0.7,0.4-1.2,0.5s-0.9,0.2-1.4,0.2c-1,0-1.9-0.2-2.5-0.6V92.1z"/>
	<path fill="#898989" d="M102.5,93.9v-5.9c0-1.1-0.2-1.9-0.6-2.5s-1-0.8-1.9-0.8c-0.4,0-0.8,0.1-1.2,0.2s-0.7,0.4-1,0.7
		s-0.5,0.7-0.7,1.1S97,87.8,97,88.3v5.6h-1.2V79.1H97v6.5h0c0.8-1.3,1.9-2,3.4-2c1.1,0,1.9,0.3,2.5,1s0.8,1.7,0.8,3v6.2H102.5z"/>
	<path fill="#898989" d="M107.4,81.4c-0.2,0-0.4-0.1-0.6-0.3s-0.3-0.4-0.3-0.6c0-0.3,0.1-0.5,0.3-0.6s0.4-0.2,0.6-0.2
		c0.1,0,0.2,0,0.4,0.1s0.2,0.1,0.3,0.2s0.1,0.2,0.2,0.3s0.1,0.2,0.1,0.4c0,0.1,0,0.2-0.1,0.4s-0.1,0.2-0.2,0.3s-0.2,0.1-0.3,0.2
		S107.5,81.4,107.4,81.4z M106.8,93.9v-10h1.2v10H106.8z"/>
	<path fill="#898989" d="M115.4,94.2c-0.7,0-1.4-0.1-2-0.4s-1.1-0.6-1.5-1s-0.7-1-1-1.6s-0.3-1.3-0.3-2.1c0-0.8,0.1-1.6,0.4-2.2
		s0.6-1.2,1-1.7s1-0.8,1.6-1s1.3-0.4,2.1-0.4c0.7,0,1.4,0.1,2,0.4s1.1,0.6,1.5,1s0.7,1,0.9,1.6s0.3,1.4,0.3,2.2
		c0,0.8-0.1,1.5-0.3,2.1s-0.5,1.2-1,1.7s-0.9,0.8-1.5,1.1S116.1,94.2,115.4,94.2z M115.5,84.8c-0.5,0-1,0.1-1.5,0.3
		s-0.8,0.5-1.1,0.8s-0.6,0.8-0.7,1.3s-0.3,1.1-0.3,1.8c0,0.6,0.1,1.2,0.3,1.7s0.4,0.9,0.7,1.3s0.7,0.6,1.1,0.8s0.9,0.3,1.5,0.3
		c0.6,0,1.1-0.1,1.5-0.3s0.8-0.5,1.1-0.8s0.5-0.8,0.7-1.3s0.2-1.1,0.2-1.8c0-1.3-0.3-2.4-0.9-3.1S116.6,84.8,115.5,84.8z"/>
	<path fill="#898989" d="M129.5,93.9v-5.8c0-2.3-0.8-3.4-2.5-3.4c-0.4,0-0.8,0.1-1.2,0.3s-0.7,0.4-1,0.7s-0.5,0.7-0.6,1.1
		s-0.2,0.9-0.2,1.4v5.7h-1.2v-10h1.2v1.7h0c0.7-1.3,1.9-2,3.3-2c1.1,0,1.9,0.4,2.5,1.1s0.9,1.7,0.9,3.1v6.1H129.5z"/>
	<path fill="#898989" d="M140.7,93.9h-1.3v-14h1.3V93.9z"/>
	<path fill="#898989" d="M144.2,93.9V79.1h1.2v14.8H144.2z"/>
	<path fill="#898989" d="M148.6,93.9V79.1h1.2v14.8H148.6z"/>
	<path fill="#898989" d="M159.6,93.9v-1.7h0c-0.7,1.3-1.7,1.9-3.2,1.9c-2.4,0-3.6-1.5-3.6-4.4v-5.9h1.2v5.6c0,1.2,0.2,2.1,0.6,2.7
		s1.1,0.9,2,0.9c0.4,0,0.8-0.1,1.2-0.2s0.7-0.4,0.9-0.7s0.5-0.7,0.6-1.1s0.2-0.9,0.2-1.4v-5.7h1.2v10H159.6z"/>
	<path fill="#898989" d="M163.6,92.1c0.2,0.1,0.4,0.3,0.6,0.4s0.4,0.2,0.7,0.3s0.5,0.1,0.7,0.2s0.5,0.1,0.7,0.1
		c1.5,0,2.2-0.6,2.2-1.7c0-0.3-0.1-0.5-0.2-0.7s-0.3-0.4-0.4-0.5s-0.4-0.3-0.7-0.4s-0.6-0.3-0.9-0.4c-0.5-0.2-0.9-0.4-1.2-0.6
		s-0.6-0.4-0.8-0.6s-0.4-0.5-0.5-0.8s-0.2-0.6-0.2-0.9c0-0.4,0.1-0.8,0.3-1.2s0.5-0.6,0.8-0.9s0.7-0.4,1.1-0.6s0.9-0.2,1.3-0.2
		c0.9,0,1.6,0.2,2.3,0.5v1.3c-0.7-0.5-1.6-0.7-2.4-0.7c-0.3,0-0.6,0-0.9,0.1s-0.5,0.2-0.7,0.3s-0.3,0.3-0.4,0.5s-0.2,0.4-0.2,0.7
		c0,0.2,0,0.5,0.1,0.6s0.2,0.4,0.4,0.5s0.4,0.3,0.6,0.4s0.6,0.3,1,0.4c0.5,0.2,0.9,0.4,1.2,0.6s0.6,0.4,0.9,0.6s0.4,0.5,0.5,0.8
		s0.2,0.6,0.2,1c0,0.4-0.1,0.8-0.3,1.2s-0.4,0.6-0.8,0.9s-0.7,0.4-1.2,0.5s-0.9,0.2-1.4,0.2c-1,0-1.9-0.2-2.5-0.6V92.1z"/>
	<path fill="#898989" d="M176.5,93.8c-0.4,0.2-0.9,0.3-1.4,0.3c-1.6,0-2.4-0.9-2.4-2.8V85H171v-1.1h1.8v-2.5L174,81v2.9h2.6V85H174
		v6.1c0,0.7,0.1,1.2,0.3,1.5s0.6,0.4,1.1,0.4c0.4,0,0.8-0.1,1.1-0.4V93.8z"/>
	<path fill="#898989" d="M183.6,85.2c-0.3-0.2-0.7-0.3-1.1-0.3c-0.3,0-0.6,0.1-0.9,0.2s-0.5,0.3-0.7,0.5c-0.2,0.2-0.4,0.5-0.5,0.7
		c-0.1,0.3-0.2,0.6-0.3,0.9c-0.1,0.3-0.1,0.6-0.2,0.9c0,0.3-0.1,0.6-0.1,0.9v4.9h-1.2v-10h1.2v2.1h0c0.1-0.4,0.3-0.7,0.4-1
		c0.2-0.3,0.4-0.5,0.6-0.7s0.5-0.3,0.8-0.5c0.3-0.1,0.6-0.2,0.9-0.2c0.2,0,0.4,0,0.5,0c0.2,0,0.3,0.1,0.4,0.1V85.2z"/>
	<path fill="#898989" d="M191.1,93.9v-1.8h0c-0.3,0.6-0.8,1.1-1.3,1.5c-0.6,0.4-1.2,0.5-1.9,0.5c-0.5,0-0.9-0.1-1.3-0.2
		c-0.4-0.1-0.7-0.3-1-0.6c-0.3-0.3-0.5-0.6-0.6-0.9s-0.2-0.7-0.2-1.2c0-0.9,0.3-1.6,0.8-2.2c0.6-0.5,1.4-0.9,2.5-1l3-0.4
		c0-1.9-0.7-2.9-2.2-2.9c-1.2,0-2.2,0.4-3.2,1.3v-1.4c0.2-0.1,0.4-0.3,0.7-0.4s0.5-0.2,0.8-0.3s0.6-0.2,0.9-0.2
		c0.3,0,0.6-0.1,0.9-0.1c1.1,0,2,0.3,2.5,0.9c0.6,0.6,0.9,1.6,0.9,2.8v6.5H191.1z M188.6,89.1c-0.4,0.1-0.8,0.1-1.2,0.2
		c-0.3,0.1-0.6,0.2-0.8,0.4c-0.2,0.2-0.4,0.4-0.5,0.6s-0.1,0.5-0.1,0.9c0,0.3,0,0.5,0.1,0.7c0.1,0.2,0.2,0.4,0.4,0.6
		c0.2,0.2,0.4,0.3,0.7,0.4c0.3,0.1,0.5,0.1,0.9,0.1c0.4,0,0.8-0.1,1.2-0.3s0.7-0.4,1-0.7c0.3-0.3,0.5-0.7,0.6-1.1
		c0.2-0.4,0.2-0.9,0.2-1.4v-1L188.6,89.1z"/>
	<path fill="#898989" d="M199.7,93.8c-0.4,0.2-0.9,0.3-1.4,0.3c-1.6,0-2.4-0.9-2.4-2.8V85h-1.8v-1.1h1.8v-2.5l1.2-0.4v2.9h2.6V85
		h-2.6v6.1c0,0.7,0.1,1.2,0.3,1.5c0.2,0.3,0.6,0.4,1.1,0.4c0.4,0,0.8-0.1,1.1-0.4V93.8z"/>
	<path fill="#898989" d="M202.4,81.4c-0.2,0-0.4-0.1-0.6-0.3s-0.3-0.4-0.3-0.6c0-0.3,0.1-0.5,0.3-0.6s0.4-0.2,0.6-0.2
		c0.1,0,0.2,0,0.4,0.1c0.1,0,0.2,0.1,0.3,0.2c0.1,0.1,0.1,0.2,0.2,0.3s0.1,0.2,0.1,0.4c0,0.1,0,0.2-0.1,0.4c0,0.1-0.1,0.2-0.2,0.3
		c-0.1,0.1-0.2,0.1-0.3,0.2S202.5,81.4,202.4,81.4z M201.8,93.9v-10h1.2v10H201.8z"/>
	<path fill="#898989" d="M210.3,94.2c-0.7,0-1.4-0.1-2-0.4c-0.6-0.2-1.1-0.6-1.5-1c-0.4-0.5-0.7-1-1-1.6c-0.2-0.6-0.3-1.3-0.3-2.1
		c0-0.8,0.1-1.6,0.4-2.2s0.6-1.2,1-1.7c0.4-0.5,1-0.8,1.6-1c0.6-0.2,1.3-0.4,2.1-0.4c0.7,0,1.4,0.1,2,0.4c0.6,0.2,1.1,0.6,1.5,1
		c0.4,0.4,0.7,1,0.9,1.6s0.3,1.4,0.3,2.2c0,0.8-0.1,1.5-0.3,2.1s-0.5,1.2-1,1.7c-0.4,0.5-0.9,0.8-1.5,1.1
		C211.8,94,211.1,94.2,210.3,94.2z M210.4,84.8c-0.5,0-1,0.1-1.5,0.3c-0.4,0.2-0.8,0.5-1.1,0.8c-0.3,0.4-0.6,0.8-0.7,1.3
		c-0.2,0.5-0.3,1.1-0.3,1.8c0,0.6,0.1,1.2,0.3,1.7c0.2,0.5,0.4,0.9,0.7,1.3c0.3,0.4,0.7,0.6,1.1,0.8c0.4,0.2,0.9,0.3,1.5,0.3
		c0.6,0,1.1-0.1,1.5-0.3s0.8-0.5,1.1-0.8c0.3-0.4,0.5-0.8,0.7-1.3c0.2-0.5,0.2-1.1,0.2-1.8c0-1.3-0.3-2.4-0.9-3.1
		C212.4,85.1,211.5,84.8,210.4,84.8z"/>
	<path fill="#898989" d="M224.4,93.9v-5.8c0-2.3-0.8-3.4-2.5-3.4c-0.4,0-0.8,0.1-1.2,0.3s-0.7,0.4-1,0.7c-0.3,0.3-0.5,0.7-0.6,1.1
		c-0.2,0.4-0.2,0.9-0.2,1.4v5.7h-1.2v-10h1.2v1.7h0c0.7-1.3,1.9-2,3.3-2c1.1,0,1.9,0.4,2.5,1.1c0.6,0.7,0.9,1.7,0.9,3.1v6.1H224.4z"
		/>
	<path fill="#898989" d="M238.8,80.3c-0.3-0.2-0.6-0.3-1.1-0.3c-1.2,0-1.8,0.8-1.8,2.3v1.6h2.5V85H236v8.9h-1.2V85H233v-1.1h1.7
		v-1.7c0-0.5,0.1-1,0.2-1.4s0.3-0.8,0.6-1c0.2-0.3,0.6-0.5,0.9-0.7c0.4-0.2,0.8-0.2,1.3-0.2c0.5,0,0.8,0.1,1.1,0.2V80.3z"/>
	<path fill="#898989" d="M244.2,94.2c-0.7,0-1.4-0.1-2-0.4c-0.6-0.2-1.1-0.6-1.5-1c-0.4-0.5-0.7-1-1-1.6c-0.2-0.6-0.3-1.3-0.3-2.1
		c0-0.8,0.1-1.6,0.4-2.2s0.6-1.2,1-1.7c0.4-0.5,1-0.8,1.6-1c0.6-0.2,1.3-0.4,2.1-0.4c0.7,0,1.4,0.1,2,0.4c0.6,0.2,1.1,0.6,1.5,1
		c0.4,0.4,0.7,1,0.9,1.6s0.3,1.4,0.3,2.2c0,0.8-0.1,1.5-0.3,2.1s-0.5,1.2-1,1.7c-0.4,0.5-0.9,0.8-1.5,1.1
		C245.6,94,244.9,94.2,244.2,94.2z M244.3,84.8c-0.5,0-1,0.1-1.5,0.3c-0.4,0.2-0.8,0.5-1.1,0.8c-0.3,0.4-0.6,0.8-0.7,1.3
		c-0.2,0.5-0.3,1.1-0.3,1.8c0,0.6,0.1,1.2,0.3,1.7c0.2,0.5,0.4,0.9,0.7,1.3c0.3,0.4,0.7,0.6,1.1,0.8c0.4,0.2,0.9,0.3,1.5,0.3
		c0.6,0,1.1-0.1,1.5-0.3s0.8-0.5,1.1-0.8c0.3-0.4,0.5-0.8,0.7-1.3c0.2-0.5,0.2-1.1,0.2-1.8c0-1.3-0.3-2.4-0.9-3.1
		C246.2,85.1,245.4,84.8,244.3,84.8z"/>
	<path fill="#898989" d="M256.5,85.2c-0.3-0.2-0.7-0.3-1.1-0.3c-0.3,0-0.6,0.1-0.9,0.2s-0.5,0.3-0.7,0.5c-0.2,0.2-0.4,0.5-0.5,0.7
		c-0.1,0.3-0.2,0.6-0.3,0.9c-0.1,0.3-0.1,0.6-0.2,0.9c0,0.3-0.1,0.6-0.1,0.9v4.9h-1.2v-10h1.2v2.1h0c0.1-0.4,0.3-0.7,0.4-1
		c0.2-0.3,0.4-0.5,0.6-0.7s0.5-0.3,0.8-0.5c0.3-0.1,0.6-0.2,0.9-0.2c0.2,0,0.4,0,0.5,0c0.2,0,0.3,0.1,0.4,0.1V85.2z"/>
	<path fill="#898989" d="M263.4,91.9c0.2,0.2,0.5,0.3,0.8,0.5s0.6,0.3,0.9,0.4c0.3,0.1,0.6,0.2,0.9,0.2c0.3,0,0.6,0.1,0.9,0.1
		c1.1,0,1.9-0.2,2.4-0.6s0.8-1,0.8-1.8c0-0.4-0.1-0.7-0.2-1c-0.1-0.3-0.3-0.5-0.6-0.8c-0.3-0.2-0.6-0.5-1-0.7
		c-0.4-0.2-0.9-0.5-1.4-0.8c-0.6-0.3-1.1-0.6-1.5-0.9c-0.4-0.3-0.8-0.6-1-0.9c-0.3-0.3-0.5-0.6-0.6-1s-0.2-0.8-0.2-1.2
		c0-0.6,0.1-1.1,0.4-1.5c0.2-0.4,0.6-0.8,1-1.1s0.9-0.6,1.4-0.7c0.5-0.2,1.1-0.3,1.8-0.3c1.1,0,2,0.2,2.8,0.5v1.4
		c-0.8-0.5-1.8-0.7-2.9-0.7c-0.4,0-0.8,0.1-1.2,0.2c-0.4,0.1-0.7,0.2-1,0.4c-0.3,0.2-0.5,0.4-0.7,0.7c-0.2,0.3-0.2,0.6-0.2,1
		c0,0.4,0.1,0.7,0.2,0.9s0.3,0.5,0.5,0.7c0.2,0.2,0.5,0.5,0.9,0.7c0.4,0.2,0.9,0.5,1.4,0.8c0.6,0.3,1.1,0.6,1.5,0.9
		c0.4,0.3,0.8,0.6,1.1,0.9c0.3,0.3,0.5,0.7,0.6,1c0.1,0.4,0.2,0.8,0.2,1.2c0,0.6-0.1,1.2-0.3,1.6c-0.2,0.5-0.5,0.9-1,1.2
		s-0.9,0.5-1.5,0.7s-1.2,0.2-1.9,0.2c-0.2,0-0.5,0-0.8-0.1c-0.3,0-0.6-0.1-0.9-0.2s-0.6-0.1-0.9-0.2s-0.5-0.2-0.7-0.3V91.9z"/>
	<path fill="#898989" d="M280,93.9l-4.6-4.9h0v4.9h-1.2V79.1h1.2v9.5h0l4.4-4.7h1.6l-4.7,4.8l5.1,5.2H280z"/>
	<path fill="#898989" d="M284.1,81.4c-0.2,0-0.4-0.1-0.6-0.3s-0.3-0.4-0.3-0.6c0-0.3,0.1-0.5,0.3-0.6s0.4-0.2,0.6-0.2
		c0.1,0,0.2,0,0.4,0.1c0.1,0,0.2,0.1,0.3,0.2c0.1,0.1,0.1,0.2,0.2,0.3s0.1,0.2,0.1,0.4c0,0.1,0,0.2-0.1,0.4c0,0.1-0.1,0.2-0.2,0.3
		c-0.1,0.1-0.2,0.1-0.3,0.2S284.2,81.4,284.1,81.4z M283.5,93.9v-10h1.2v10H283.5z"/>
	<path fill="#898989" d="M292.9,85.2c-0.3-0.2-0.7-0.3-1.1-0.3c-0.3,0-0.6,0.1-0.9,0.2s-0.5,0.3-0.7,0.5c-0.2,0.2-0.4,0.5-0.5,0.7
		c-0.1,0.3-0.2,0.6-0.3,0.9c-0.1,0.3-0.1,0.6-0.2,0.9c0,0.3-0.1,0.6-0.1,0.9v4.9h-1.2v-10h1.2v2.1h0c0.1-0.4,0.3-0.7,0.4-1
		c0.2-0.3,0.4-0.5,0.6-0.7s0.5-0.3,0.8-0.5c0.3-0.1,0.6-0.2,0.9-0.2c0.2,0,0.4,0,0.5,0c0.2,0,0.3,0.1,0.4,0.1V85.2z"/>
	<path fill="#898989" d="M299.6,93.8c-0.4,0.2-0.9,0.3-1.4,0.3c-1.6,0-2.4-0.9-2.4-2.8V85H294v-1.1h1.8v-2.5L297,81v2.9h2.6V85H297
		v6.1c0,0.7,0.1,1.2,0.3,1.5c0.2,0.3,0.6,0.4,1.1,0.4c0.4,0,0.8-0.1,1.1-0.4V93.8z"/>
</g>
<g>
	<defs>
		<rect id="SVGID_1_" x="-2.9" y="145.1" width="368.1" height="226.9"/>
	</defs>
	<clipPath id="SVGID_00000183968018586456293580000012456196218495426981_">
		<use xlink:href="#SVGID_1_"  overflow="visible"/>
	</clipPath>
	<g clip-path="url(#SVGID_00000183968018586456293580000012456196218495426981_)">
		<polyline fill="none" points="303.4,372 303.4,86.3 -100.1,86.3 		"/>
	</g>
	<g clip-path="url(#SVGID_00000183968018586456293580000012456196218495426981_)">
		<polyline fill="none" points="-100.1,86.6 303.4,86.6 303.4,372 		"/>
	</g>
	<g clip-path="url(#SVGID_00000183968018586456293580000012456196218495426981_)">
		<polyline fill="none" points="303.4,372 303.4,86.3 -100.1,86.3 		"/>
	</g>
	<g clip-path="url(#SVGID_00000183968018586456293580000012456196218495426981_)">
		<polyline fill="none" points="-100.1,86.6 303.4,86.6 303.4,372 		"/>
	</g>
	<g clip-path="url(#SVGID_00000183968018586456293580000012456196218495426981_)">
		<polyline fill="none" points="303.4,372 303.4,86.3 -100.1,86.3 		"/>
	</g>
	<g clip-path="url(#SVGID_00000183968018586456293580000012456196218495426981_)">
		<polyline fill="none" points="-100.1,86.6 303.4,86.6 303.4,372 		"/>
	</g>
	<g clip-path="url(#SVGID_00000183968018586456293580000012456196218495426981_)">
		<rect x="235.9" y="94.7" fill="#BCBEC0" width="0.5" height="4.1"/>
	</g>
	<g clip-path="url(#SVGID_00000183968018586456293580000012456196218495426981_)">
		<rect x="234.1" y="96.5" fill="#BCBEC0" width="4.1" height="0.5"/>
	</g>
	<g clip-path="url(#SVGID_00000183968018586456293580000012456196218495426981_)">
		<rect x="168.7" y="94.7" fill="#BCBEC0" width="0.5" height="4.1"/>
	</g>
	<g clip-path="url(#SVGID_00000183968018586456293580000012456196218495426981_)">
		<rect x="166.9" y="96.5" fill="#BCBEC0" width="4.1" height="0.5"/>
	</g>
	<g clip-path="url(#SVGID_00000183968018586456293580000012456196218495426981_)">
		<rect x="101.4" y="94.7" fill="#BCBEC0" width="0.5" height="4.1"/>
	</g>
	<g clip-path="url(#SVGID_00000183968018586456293580000012456196218495426981_)">
		<rect x="99.6" y="96.5" fill="#BCBEC0" width="4.1" height="0.5"/>
	</g>
	<g clip-path="url(#SVGID_00000183968018586456293580000012456196218495426981_)">
		<rect x="34.2" y="94.7" fill="#BCBEC0" width="0.5" height="4.1"/>
	</g>
	<g clip-path="url(#SVGID_00000183968018586456293580000012456196218495426981_)">
		<rect x="32.4" y="96.5" fill="#BCBEC0" width="4.1" height="0.5"/>
	</g>
	<g clip-path="url(#SVGID_00000183968018586456293580000012456196218495426981_)">
		<polyline fill="none" points="303.4,372 303.4,86.3 -100.1,86.3 		"/>
	</g>
	<g clip-path="url(#SVGID_00000183968018586456293580000012456196218495426981_)">
		<polyline fill="none" points="-100.1,86.6 303.4,86.6 303.4,372 		"/>
	</g>
	<g clip-path="url(#SVGID_00000183968018586456293580000012456196218495426981_)">
		<polyline fill="none" points="303.4,372 303.4,86.6 -100.1,86.6 		"/>
	</g>
	<g clip-path="url(#SVGID_00000183968018586456293580000012456196218495426981_)">
		<path fill="#E0E0E0" d="M309.7,62.2c-0.1,0-0.1,0-0.2,0c-1.2-0.5-30-12.4-34.6-14.9c-4.8-2.6-5.6-7-5.7-7.2c0,0-1-4.9-1.7-9.4
			c0-0.3,0.2-0.5,0.4-0.6c0.3,0,0.5,0.2,0.6,0.4c0.6,4.4,1.6,9.3,1.6,9.3c0,0.1,0.8,4.1,5.2,6.5c4.6,2.5,34.2,14.8,34.5,14.9
			c0.3,0.1,0.4,0.4,0.3,0.7C310.1,62.1,309.9,62.2,309.7,62.2z"/>
	</g>
	<g clip-path="url(#SVGID_00000183968018586456293580000012456196218495426981_)">
		<path fill="#E0E0E0" d="M259.8,343.5c-0.3,0-0.5-0.2-0.5-0.5c-0.5-12.2-1-22.1-1-22.2c0-1.3-0.4-31.2,3.6-35.1
			c0.1-0.1,0.2-0.2,0.3-0.3c-1.8,0.7-4.8,1.8-7.7,1.5c-0.3,0-0.5-0.3-0.5-0.5s0.3-0.5,0.5-0.5c3,0.3,6.2-1,7.9-1.7
			c1.1-0.5,1.6-0.6,1.8-0.2c0.3,0.5,0,0.8-1.7,2.4c-3.1,3-3.5,25.8-3.3,34.3c0,0.1,0.5,10,1,22.2
			C260.3,343.3,260.1,343.5,259.8,343.5C259.8,343.5,259.8,343.5,259.8,343.5z"/>
	</g>
	<g clip-path="url(#SVGID_00000183968018586456293580000012456196218495426981_)">
		<path fill="#E0E0E0" d="M195.2,62.9c-0.3,0-0.5-0.2-0.5-0.5c0-0.3,0.2-0.5,0.5-0.5l114.3-0.7c0,0,0,0,0,0c0.3,0,0.5,0.2,0.5,0.5
			c0,0.3-0.2,0.5-0.5,0.5L195.2,62.9C195.2,62.9,195.2,62.9,195.2,62.9z"/>
	</g>
	<g clip-path="url(#SVGID_00000183968018586456293580000012456196218495426981_)">
		<path fill="#E0E0E0" d="M263.9,284.9c-0.1,0-0.3-0.1-0.4-0.2c-0.2-0.2-0.1-0.5,0.1-0.7c27.5-22.9,40-63.8,40.1-64.2
			c0.1-0.3,0.4-0.4,0.6-0.3c0.3,0.1,0.4,0.4,0.3,0.6c-0.1,0.4-12.7,41.6-40.4,64.7C264.1,284.9,264,284.9,263.9,284.9z"/>
	</g>
	<g clip-path="url(#SVGID_00000183968018586456293580000012456196218495426981_)">
		<path fill="#E0E0E0" d="M269.4,285.3c-3.5,0-5.5-0.4-5.6-0.4c-0.3-0.1-0.4-0.3-0.4-0.6c0.1-0.3,0.3-0.4,0.6-0.4
			c0.3,0.1,26.1,5.2,51.6-22.6c0.2-0.2,0.5-0.2,0.7,0c0.2,0.2,0.2,0.5,0,0.7C297.6,282.5,278.5,285.3,269.4,285.3z"/>
	</g>
	<g clip-path="url(#SVGID_00000183968018586456293580000012456196218495426981_)">
		<path fill="#E0E0E0" d="M306.2,343.2c0,0-0.1,0-0.1,0c-0.3-0.1-0.4-0.3-0.4-0.6c6.3-29.4,11.3-64.6,11.5-70.4
			c0.2-7.4-4.7-21.2-7-27.9c-0.3-0.8-0.5-1.4-0.7-1.9c-0.9-2.7-2.2-8.3-3.4-13.2c-1-4.2-1.9-8.3-2.3-9l-0.1-0.2
			c-2.7-5.2-11.6-22.3-13.6-25.1c-2.5-3.3-1-7.2-1-7.3l16.5-68.5l-0.1-0.3c-3-52.5,3.7-57.1,4-57.3c0.2-0.1,0.5-0.1,0.7,0.2
			c0.1,0.2,0.1,0.5-0.2,0.7c-0.1,0.1-6.4,5.6-3.5,56.3l0.1,0.4c0,0.1,0,0.1,0,0.2L290,187.7c0,0.1-1.3,3.6,0.8,6.5
			c2.1,2.8,10.3,18.6,13.7,25.2l0.1,0.2c0.4,0.8,1.2,4.1,2.4,9.3c1.1,4.9,2.4,10.4,3.3,13.1c0.2,0.5,0.4,1.2,0.7,1.9
			c2.4,6.7,7.3,20.7,7.1,28.3c-0.2,5.8-5.2,41.1-11.5,70.6C306.6,343,306.4,343.2,306.2,343.2z"/>
	</g>
	<g clip-path="url(#SVGID_00000183968018586456293580000012456196218495426981_)">
		<path fill="#E0E0E0" d="M283,343.2C283,343.2,282.9,343.2,283,343.2c-0.3,0-0.5-0.3-0.5-0.6c4.3-29.9,8.7-62.9,6.2-76.6
			c-4.9-27.2-10.9-58.3-11.2-59.8l-6.7-15.1c0-0.1,0-0.2,0-0.2c0-0.5,4.6-54.9,6.3-86.1c1.8-31.3,7.4-53.3,7.4-53.5
			c0.1-0.3,0.3-0.4,0.6-0.4c0.3,0.1,0.4,0.3,0.4,0.6c-0.1,0.2-5.6,22.2-7.4,53.3c-1.7,30.5-6.1,83-6.3,86l6.7,15c0,0,0,0.1,0,0.1
			c0.1,0.3,6.2,32.1,11.2,59.9c2.5,13.8-1.9,46.9-6.2,76.9C283.5,343,283.2,343.2,283,343.2z"/>
	</g>
	<g clip-path="url(#SVGID_00000183968018586456293580000012456196218495426981_)">
		<path fill="#E0E0E0" d="M254.6,286.8c-0.3,0-0.5-0.2-0.5-0.5l-2-256c0-0.3,0.2-0.5,0.5-0.5c0,0,0,0,0,0c0.3,0,0.5,0.2,0.5,0.5
			l2,256C255.1,286.6,254.9,286.8,254.6,286.8C254.6,286.8,254.6,286.8,254.6,286.8z"/>
	</g>
	<g clip-path="url(#SVGID_00000183968018586456293580000012456196218495426981_)">
		<path fill="#E0E0E0" d="M195.4,62.9c-0.2,0-0.4-0.1-0.5-0.3c-0.1-0.3,0-0.5,0.3-0.7c0.3-0.1,29.7-12.9,34.2-15.4
			c4.3-2.5,5.2-6,5.2-6c0,0,0.7-4.8,1.2-9.7c0-0.3,0.3-0.5,0.5-0.4c0.3,0,0.5,0.3,0.4,0.5c-0.5,4.9-1.2,9.7-1.2,9.8
			c0,0.2-0.9,4-5.7,6.7c-4.6,2.6-33.1,15-34.3,15.5C195.5,62.9,195.4,62.9,195.4,62.9z"/>
	</g>
	<g clip-path="url(#SVGID_00000183968018586456293580000012456196218495426981_)">
		<path fill="#E0E0E0" d="M249.5,343.6C249.5,343.6,249.5,343.6,249.5,343.6c-0.3,0-0.5-0.2-0.5-0.5c0.3-12,0.5-21.6,0.5-21.6
			c0.4-8.6,0.5-31.5-2.9-34.1c-1.7-1.3-2.1-1.7-1.9-2.2c0.2-0.5,0.7-0.4,2.2,0c1.8,0.4,4.7,1.2,7.5,0.9c0.3,0,0.5,0.2,0.5,0.4
			c0,0.3-0.2,0.5-0.4,0.5c-3,0.3-6-0.5-7.9-0.9c-0.1,0-0.1,0-0.2,0c0.2,0.1,0.4,0.3,0.7,0.5c4.4,3.4,3.4,31.7,3.3,34.9
			c0,0-0.2,9.6-0.5,21.6C250,343.3,249.8,343.6,249.5,343.6z M250.6,321.4L250.6,321.4L250.6,321.4z"/>
	</g>
	<g clip-path="url(#SVGID_00000183968018586456293580000012456196218495426981_)">
		<path fill="#E0E0E0" d="M218,191.5c-0.3,0-0.5-0.2-0.5-0.5c0-0.3,0.2-0.5,0.5-0.5l71-0.3c0,0,0,0,0,0c0.3,0,0.5,0.2,0.5,0.5
			c0,0.3-0.2,0.5-0.5,0.5L218,191.5C218,191.5,218,191.5,218,191.5z"/>
	</g>
	<g clip-path="url(#SVGID_00000183968018586456293580000012456196218495426981_)">
		<path fill="#E0E0E0" d="M203,221.3c-0.3,0-0.5-0.2-0.5-0.5c0-0.3,0.2-0.5,0.5-0.5l101.2-0.8c0,0,0,0,0,0c0.3,0,0.5,0.2,0.5,0.5
			c0,0.3-0.2,0.5-0.5,0.5L203,221.3C203,221.3,203,221.3,203,221.3z"/>
	</g>
	<g clip-path="url(#SVGID_00000183968018586456293580000012456196218495426981_)">
		<path fill="#E0E0E0" d="M245.3,285.9c-0.1,0-0.2,0-0.3-0.1c-28.1-22.6-42.4-64.4-42.5-64.9c-0.1-0.3,0.1-0.5,0.3-0.6
			c0.3-0.1,0.5,0.1,0.6,0.3c0.1,0.4,14.3,42,42.2,64.4c0.2,0.2,0.2,0.5,0.1,0.7C245.6,285.8,245.5,285.9,245.3,285.9z"/>
	</g>
	<g clip-path="url(#SVGID_00000183968018586456293580000012456196218495426981_)">
		<path fill="#E0E0E0" d="M240.3,286.1c-9,0-29-2.7-48.6-23.3c-0.2-0.2-0.2-0.5,0-0.7c0.2-0.2,0.5-0.2,0.7,0
			c26,27.4,52.4,22.8,52.7,22.7c0.3,0,0.5,0.1,0.6,0.4c0.1,0.3-0.1,0.5-0.4,0.6C245.2,285.8,243.4,286.1,240.3,286.1z"/>
	</g>
	<g clip-path="url(#SVGID_00000183968018586456293580000012456196218495426981_)">
		<path fill="#E0E0E0" d="M203.3,343.8c-0.2,0-0.4-0.2-0.5-0.4c-6.7-29-12.3-64.8-12.5-70.9c-0.3-7.5,4.4-21.6,6.7-28.4
			c0.3-0.8,0.5-1.4,0.6-2c0.9-2.7,2.1-8.3,3.1-13.2c1.1-5.2,1.8-8.5,2.2-9.3c2.6-5.3,11.3-22.7,13.4-25.7c2.1-2.9,0.8-6.4,0.8-6.4
			l-17.6-68.4c0,0,0-0.1,0-0.1l0-0.3c2.1-51.1-4.1-55.8-4.3-55.9c-0.2-0.1-0.3-0.4-0.2-0.7c0.1-0.2,0.4-0.3,0.7-0.2
			c0.3,0.2,7,4.3,4.8,56.8l0,0.2l17.6,68.3c0,0.1,1.5,3.9-0.9,7.3c-1.6,2.3-8,14.6-13.3,25.5c-0.4,0.8-1.3,4.9-2.2,9.1
			c-1.1,4.9-2.2,10.5-3.1,13.3c-0.2,0.5-0.4,1.2-0.6,2c-2.2,6.7-6.9,20.7-6.6,28c0.3,6.2,5.8,41.8,12.5,70.8
			c0.1,0.3-0.1,0.5-0.4,0.6C203.4,343.8,203.3,343.8,203.3,343.8z"/>
	</g>
	<g clip-path="url(#SVGID_00000183968018586456293580000012456196218495426981_)">
		<path fill="#E0E0E0" d="M226.2,343.8c-0.2,0-0.5-0.2-0.5-0.4c-5.1-32-9.6-63.4-7.4-76.8c4.5-27.9,10.3-59.7,10.4-60
			c0,0,0-0.1,0-0.1l6.2-15.5c-0.3-2.9-5.4-55.1-7.6-85.6c-2.2-31.1-8.3-53.2-8.3-53.4c-0.1-0.3,0.1-0.5,0.3-0.6
			c0.3-0.1,0.5,0.1,0.6,0.3c0.1,0.2,6.1,22.4,8.4,53.6c2.2,31.2,7.6,85.1,7.6,85.7c0,0.1,0,0.2,0,0.2l-6.3,15.6
			c-0.3,1.4-5.9,32.6-10.3,60c-2.2,13.3,2.3,44.6,7.4,76.5C226.7,343.5,226.5,343.8,226.2,343.8
			C226.2,343.8,226.2,343.8,226.2,343.8z"/>
	</g>
	<g clip-path="url(#SVGID_00000183968018586456293580000012456196218495426981_)">
		<path fill="#E0E0E0" d="M302.2,135.1H204c-0.3,0-0.5-0.2-0.5-0.5s0.2-0.5,0.5-0.5h98.3c0.3,0,0.5,0.2,0.5,0.5
			S302.5,135.1,302.2,135.1z"/>
	</g>
	<g clip-path="url(#SVGID_00000183968018586456293580000012456196218495426981_)">
		<path fill="#E0E0E0" d="M251.7,48.5c-11.2,0-19.3-3.2-19.3-3.2c-0.3-0.1-0.4-0.4-0.3-0.7c0.1-0.3,0.4-0.4,0.7-0.3
			c0.1,0,8.4,3.3,19.9,3.2c11.5-0.2,19.7-3,19.8-3c0.3-0.1,0.5,0,0.6,0.3c0.1,0.3,0,0.5-0.3,0.6c-0.1,0-8.5,2.9-20.1,3.1
			C252.3,48.5,252,48.5,251.7,48.5z"/>
	</g>
	<g clip-path="url(#SVGID_00000183968018586456293580000012456196218495426981_)">
		<path fill="#E0E0E0" d="M305.4,107.1H200.3c-0.3,0-0.5-0.2-0.5-0.5s0.2-0.5,0.5-0.5h105.1c0.3,0,0.5,0.2,0.5,0.5
			S305.7,107.1,305.4,107.1z"/>
	</g>
	<g clip-path="url(#SVGID_00000183968018586456293580000012456196218495426981_)">
		<path fill="#E0E0E0" d="M210.1,207.1c-0.3,0-0.5-0.2-0.5-0.5c0-0.3,0.2-0.5,0.5-0.5l86.8-0.7c0,0,0,0,0,0c0.3,0,0.5,0.2,0.5,0.5
			c0,0.3-0.2,0.5-0.5,0.5L210.1,207.1C210.1,207.1,210.1,207.1,210.1,207.1z"/>
	</g>
	<g clip-path="url(#SVGID_00000183968018586456293580000012456196218495426981_)">
		<path fill="#E0E0E0" d="M197.3,245.2c-0.3,0-0.5-0.2-0.5-0.5c0-0.3,0.2-0.5,0.5-0.5l113.1-0.9c0,0,0,0,0,0c0.3,0,0.5,0.2,0.5,0.5
			c0,0.3-0.2,0.5-0.5,0.5L197.3,245.2C197.3,245.2,197.3,245.2,197.3,245.2z"/>
	</g>
	<g clip-path="url(#SVGID_00000183968018586456293580000012456196218495426981_)">
		<path fill="#E0E0E0" d="M214,288.6c-11,0-20.6-0.5-21.5-0.5c-0.3,0-0.5-0.2-0.5-0.5c0-0.3,0.3-0.5,0.5-0.5c0.4,0,38.7,2,51.1-1.9
			c-6.1-2.5-32.9-14.5-46.8-40.2c-0.1-0.2,0-0.5,0.2-0.7c0.2-0.1,0.5,0,0.7,0.2c15.5,28.6,47.2,40.1,47.5,40.2
			c0.2,0.1,0.3,0.3,0.3,0.5s-0.1,0.4-0.3,0.5C239.6,288,226,288.6,214,288.6z"/>
	</g>
	<g clip-path="url(#SVGID_00000183968018586456293580000012456196218495426981_)">
		<path fill="#E0E0E0" d="M291.3,287.5c-10.9,0-22.4-0.5-27.6-2.6c-0.2-0.1-0.3-0.3-0.3-0.5s0.1-0.4,0.3-0.5
			c0.3-0.1,31.3-11.5,46.3-40.3c0.1-0.2,0.4-0.3,0.7-0.2c0.2,0.1,0.3,0.4,0.2,0.7c-13.4,25.8-39.5,37.8-45.6,40.3
			c12.4,3.6,50.2,1.4,50.6,1.3c0.3,0,0.5,0.2,0.5,0.5c0,0.3-0.2,0.5-0.5,0.5C315.1,286.8,303.6,287.5,291.3,287.5z"/>
	</g>
	<g clip-path="url(#SVGID_00000183968018586456293580000012456196218495426981_)">
		<path fill="#E0E0E0" d="M245.2,285.7c-0.3,0-0.5-0.2-0.5-0.5c-1.7-48.8-41.4-63.8-41.8-63.9c-0.3-0.1-0.4-0.4-0.3-0.6
			c0.1-0.3,0.4-0.4,0.6-0.3c0.4,0.1,40.7,15.3,42.4,64.8C245.7,285.5,245.5,285.7,245.2,285.7C245.2,285.7,245.2,285.7,245.2,285.7z
			"/>
	</g>
	<g clip-path="url(#SVGID_00000183968018586456293580000012456196218495426981_)">
		<path fill="#E0E0E0" d="M263.9,284.8C263.9,284.8,263.9,284.8,263.9,284.8c-0.3,0-0.5-0.2-0.5-0.5c1-49.5,40.2-64.7,40.6-64.8
			c0.3-0.1,0.5,0,0.6,0.3c0.1,0.3,0,0.5-0.3,0.6c-0.4,0.1-39,15.1-40,63.9C264.4,284.6,264.2,284.8,263.9,284.8z"/>
	</g>
	<g clip-path="url(#SVGID_00000183968018586456293580000012456196218495426981_)">
		<path fill="#E0E0E0" d="M254.6,282.8c-0.3,0-0.5-0.2-0.5-0.5c0-31-13.8-45.9-25.4-52.9c-12.6-7.6-25.3-8-25.4-8
			c-0.3,0-0.5-0.2-0.5-0.5c0-0.3,0.3-0.5,0.5-0.5c0.1,0,13.1,0.3,25.9,8.1c11.8,7.2,25.9,22.3,25.9,53.8
			C255.1,282.5,254.9,282.8,254.6,282.8L254.6,282.8z"/>
	</g>
	<g clip-path="url(#SVGID_00000183968018586456293580000012456196218495426981_)">
		<path fill="#E0E0E0" d="M254.6,282.7c-0.3,0-0.5-0.2-0.5-0.5c-0.5-31.5,13.2-46.9,24.7-54.2c12.5-8,25.3-8.5,25.4-8.5
			c0.3,0,0.5,0.2,0.5,0.5c0,0.3-0.2,0.5-0.5,0.5c-0.1,0-12.7,0.5-24.9,8.4c-11.3,7.2-24.7,22.3-24.2,53.3
			C255.1,282.4,254.9,282.7,254.6,282.7C254.6,282.7,254.6,282.7,254.6,282.7z"/>
	</g>
	<g opacity="0.2" clip-path="url(#SVGID_00000183968018586456293580000012456196218495426981_)" enable-background="new    ">
		<g>
			<defs>
				<rect id="SVGID_00000152975141367802679050000007591826117029223846_" x="75.3" y="36" width="0.7" height="0.7"/>
			</defs>
			<clipPath id="SVGID_00000096772014239442185820000005683897860143439288_">
				<use xlink:href="#SVGID_00000152975141367802679050000007591826117029223846_"  overflow="visible"/>
			</clipPath>
			<g clip-path="url(#SVGID_00000096772014239442185820000005683897860143439288_)">
				<defs>
					<rect id="SVGID_00000137820901094863790320000013286877351079238789_" x="75.6" y="36" width="0.2" height="0"/>
				</defs>
				<clipPath id="SVGID_00000029009719424653704170000016041337658624531369_">
					<use xlink:href="#SVGID_00000137820901094863790320000013286877351079238789_"  overflow="visible"/>
				</clipPath>
				<g clip-path="url(#SVGID_00000029009719424653704170000016041337658624531369_)">
					<path fill="#FFFFFF" d="M75.8,36l-0.2,0L75.8,36z"/>
				</g>
			</g>
		</g>
	</g>
	<g clip-path="url(#SVGID_00000183968018586456293580000012456196218495426981_)">
		<path fill="#E0E0E0" d="M48.2,119.8C48.2,119.8,48.2,119.8,48.2,119.8c-0.3,0-0.5-0.2-0.5-0.5c2.1-51.1-3.7-56.6-4-56.8
			c-0.2-0.2-0.2-0.5-0.1-0.7c0.2-0.2,0.5-0.3,0.7-0.1c0.3,0.2,6.5,5.2,4.4,57.6C48.7,119.6,48.5,119.8,48.2,119.8z"/>
	</g>
	<g clip-path="url(#SVGID_00000183968018586456293580000012456196218495426981_)">
		<path fill="#E0E0E0" d="M150.3,119.3c-0.3,0-0.5-0.2-0.5-0.5c-3-52.4,3-57.6,3.2-57.8c0.2-0.2,0.5-0.1,0.7,0.1
			c0.2,0.2,0.1,0.5-0.1,0.7c-0.3,0.2-5.8,6-2.9,56.9C150.8,119,150.6,119.2,150.3,119.3C150.3,119.3,150.3,119.3,150.3,119.3z"/>
	</g>
	<g clip-path="url(#SVGID_00000183968018586456293580000012456196218495426981_)">
		<path fill="#E0E0E0" d="M44.1,62.6c-0.2,0-0.4-0.1-0.5-0.3c-0.1-0.3,0-0.5,0.3-0.7c0.3-0.1,29.4-12.8,33.9-15.3
			c4.1-2.3,5.1-5.6,5.2-6l0.1-9.8c0-0.3,0.2-0.5,0.5-0.5c0,0,0,0,0,0c0.3,0,0.5,0.2,0.5,0.5L84,40.4c0,0,0,0.1,0,0.1
			c0,0.2-0.9,4-5.7,6.7c-4.6,2.6-32.8,14.9-34,15.4C44.2,62.6,44.2,62.6,44.1,62.6z"/>
	</g>
	<g clip-path="url(#SVGID_00000183968018586456293580000012456196218495426981_)">
		<path fill="#E0E0E0" d="M51.5,343.5c-0.2,0-0.4-0.2-0.5-0.4c-6.7-29.1-12.2-64.6-12.5-70.6c-0.3-7.6,4.4-21.7,6.7-28.4
			c0.2-0.7,0.5-1.4,0.6-1.9c0.9-2.7,2.1-8.2,3.1-13.1c1.1-5.2,1.8-8.5,2.2-9.3c1.9-3.7,11.2-22.6,13.4-25.7c2.1-2.9,0.8-6.4,0.8-6.4
			l-17.6-68.4c-0.1-0.3,0.1-0.5,0.4-0.6c0.3-0.1,0.5,0.1,0.6,0.4l17.6,68.4c0,0.1,1.5,4-0.9,7.3c-2.2,3.1-12.2,23.3-13.3,25.5
			c-0.4,0.8-1.2,4.8-2.2,9.1c-1,4.9-2.2,10.5-3.1,13.2c-0.2,0.5-0.4,1.2-0.6,1.9c-2.3,6.7-6.9,20.7-6.6,28.1
			c0.3,6,5.8,41.3,12.5,70.4c0.1,0.3-0.1,0.5-0.4,0.6C51.6,343.5,51.6,343.5,51.5,343.5z"/>
	</g>
	<g clip-path="url(#SVGID_00000183968018586456293580000012456196218495426981_)">
		<path fill="#E0E0E0" d="M97.8,343.3C97.8,343.3,97.8,343.3,97.8,343.3c-0.3,0-0.5-0.2-0.5-0.5c0.2-9.5,0.4-16.5,0.4-16.5
			c0-8.5-0.7-31.4-3.9-34.3c-0.5-0.5-0.9-0.8-1.1-1c-0.4-0.3-0.6-0.5-0.7-0.6c-0.1-0.2,0-0.5,0.2-0.6c0.2-0.2,0.3-0.2,1.2,0.5
			c1.1,0.7,3.7,1.9,6.7,1.6l0.2,0c0.3,0,0.5,0.2,0.5,0.5s-0.2,0.5-0.5,0.5l-0.2,0c-1.9,0.2-3.6-0.2-5-0.7c3.4,6.5,3.5,32.8,3.4,34
			c0,0-0.2,7-0.4,16.5C98.3,343.1,98.1,343.3,97.8,343.3z"/>
	</g>
	<g clip-path="url(#SVGID_00000183968018586456293580000012456196218495426981_)">
		<path fill="#E0E0E0" d="M44.1,62.6c-0.3,0-0.5-0.2-0.5-0.5c0-0.3,0.2-0.5,0.5-0.5l109.3-0.7c0.2,0,0.5,0.2,0.5,0.5
			s-0.2,0.5-0.5,0.5L44.1,62.6C44.1,62.6,44.1,62.6,44.1,62.6z"/>
	</g>
	<g clip-path="url(#SVGID_00000183968018586456293580000012456196218495426981_)">
		<path fill="#E0E0E0" d="M100.5,293c-0.3,0-0.5-0.2-0.5-0.5l-2.1-262c0-0.3,0.2-0.5,0.5-0.5c0,0,0,0,0,0c0.3,0,0.5,0.2,0.5,0.5
			l2.1,262C101,292.8,100.8,293,100.5,293C100.5,293,100.5,293,100.5,293z"/>
	</g>
	<g clip-path="url(#SVGID_00000183968018586456293580000012456196218495426981_)">
		<path fill="#E0E0E0" d="M92.5,290.9c-0.2,0-0.4-0.2-0.5-0.4c-6.8-34.9-40.4-69.7-40.8-70.1c-0.2-0.2-0.2-0.5,0-0.7
			c0.2-0.2,0.5-0.2,0.7,0c0.3,0.3,34.1,35.4,41,70.6C93,290.5,92.9,290.8,92.5,290.9C92.6,290.9,92.5,290.9,92.5,290.9z"/>
	</g>
	<g clip-path="url(#SVGID_00000183968018586456293580000012456196218495426981_)">
		<path fill="#E0E0E0" d="M92.5,290.9c-0.1,0-0.3,0-0.4-0.1c-26.9-26.5-52.4-19.9-52.7-19.9c-0.3,0.1-0.5-0.1-0.6-0.4
			c-0.1-0.3,0.1-0.5,0.4-0.6c0.3-0.1,26.3-6.8,53.6,20.1c0.2,0.2,0.2,0.5,0,0.7C92.8,290.8,92.6,290.9,92.5,290.9z"/>
	</g>
	<g clip-path="url(#SVGID_00000183968018586456293580000012456196218495426981_)">
		<path fill="#E0E0E0" d="M72.4,134.1c-11.7,0-21.2-8.9-21.3-20c0-5.4,2.1-10.5,6.1-14.3c4-3.8,9.3-6,15-6c0.1,0,0.1,0,0.2,0
			c5.6,0,10.9,2,14.9,5.8c4.1,3.8,6.3,8.8,6.4,14.2l0,0c0,5.4-2.1,10.5-6.1,14.3c-4,3.8-9.3,6-15,6
			C72.5,134.1,72.5,134.1,72.4,134.1z M72.4,94.7c-0.1,0-0.1,0-0.2,0c-5.4,0-10.5,2.1-14.3,5.7c-3.8,3.7-5.9,8.5-5.8,13.6
			c0.1,10.5,9.2,19,20.3,19c0.1,0,0.1,0,0.2,0c5.4,0,10.5-2.1,14.3-5.7c3.8-3.7,5.9-8.5,5.8-13.6l0,0c0-5.1-2.2-9.9-6-13.5
			C82.9,96.7,77.8,94.7,72.4,94.7z"/>
	</g>
	<g clip-path="url(#SVGID_00000183968018586456293580000012456196218495426981_)">
		<path fill="#E0E0E0" d="M48.4,114.9c-0.3,0-0.5-0.2-0.5-0.5c0-0.3,0.2-0.5,0.5-0.5l101.6-0.8c0,0,0,0,0,0c0.3,0,0.5,0.2,0.5,0.5
			c0,0.3-0.2,0.5-0.5,0.5L48.4,114.9C48.4,114.9,48.4,114.9,48.4,114.9z"/>
	</g>
	<g clip-path="url(#SVGID_00000183968018586456293580000012456196218495426981_)">
		<path fill="#E0E0E0" d="M71.5,343.5c-0.2,0-0.5-0.2-0.5-0.4c-4.7-29.2-8.7-57.9-6.6-70.5c4.6-27.4,9.2-52.6,9.2-52.8l5.6-25.1
			c-0.3-2.3-6.2-50.1-8.4-80.2c-2.2-30.6-7.6-60.6-7.7-60.9c0-0.3,0.1-0.5,0.4-0.6c0.3,0,0.5,0.1,0.6,0.4c0.1,0.3,5.4,30.3,7.7,61
			c2.2,30.7,8.3,79.8,8.4,80.3c0,0.1,0,0.1,0,0.2l-5.6,25.2c0,0.2-4.7,25.4-9.2,52.8c-2.1,12.5,2,41.1,6.6,70.2
			C72.1,343.2,71.9,343.5,71.5,343.5C71.6,343.5,71.6,343.5,71.5,343.5z"/>
	</g>
	<g clip-path="url(#SVGID_00000183968018586456293580000012456196218495426981_)">
		<path fill="#E0E0E0" d="M153.4,61.9c-0.1,0-0.1,0-0.2,0c-1.2-0.5-29.4-12.2-34.1-14.7c-4.8-2.6-5.8-6.4-5.8-6.6c0,0,0-0.1,0-0.1
			L113,30.3c0-0.3,0.2-0.5,0.5-0.5c0.3,0,0.5,0.2,0.5,0.5l0.3,10.1c0.1,0.4,1.2,3.6,5.3,5.9c4.6,2.5,33.7,14.6,34,14.7
			c0.3,0.1,0.4,0.4,0.3,0.7C153.8,61.8,153.6,61.9,153.4,61.9z"/>
	</g>
	<g clip-path="url(#SVGID_00000183968018586456293580000012456196218495426981_)">
		<path fill="#E0E0E0" d="M150.7,342.9c0,0-0.1,0-0.1,0c-0.3-0.1-0.4-0.3-0.4-0.6c6.2-28.9,11.1-64.4,11.3-70.5
			c0.2-7.4-4.7-21.3-7.1-27.9c-0.3-0.7-0.5-1.4-0.7-1.9c-0.9-2.7-2.2-8.3-3.3-13.2c-1-4.3-1.9-8.3-2.3-9.1
			c-1.9-3.8-11.6-22.4-13.8-25.3c-2.5-3.3-1.1-7.2-1-7.3l16.4-68.3c0.1-0.3,0.3-0.4,0.6-0.4c0.3,0.1,0.4,0.3,0.4,0.6l-16.5,68.4
			c0,0.1-1.3,3.6,0.8,6.5c2.2,2.9,11.1,20.2,13.8,25.4c0.5,0.9,1.2,4.1,2.4,9.3c1.1,4.9,2.4,10.4,3.3,13.1c0.2,0.5,0.4,1.2,0.7,1.9
			c2.4,6.7,7.3,20.7,7.1,28.3c-0.2,6.2-5.1,41.8-11.3,70.7C151.2,342.8,151,342.9,150.7,342.9z"/>
	</g>
	<g clip-path="url(#SVGID_00000183968018586456293580000012456196218495426981_)">
		<path fill="#E0E0E0" d="M104.4,343.2c-0.3,0-0.5-0.2-0.5-0.5c-0.4-9.5-0.7-16.3-0.7-16.3c0-1.2-0.4-27.5,2.9-34.1
			c-1.4,0.5-3.1,0.9-5,0.7l-0.7-0.1c-0.3,0-0.5-0.3-0.4-0.6c0-0.3,0.3-0.5,0.6-0.4l0.7,0.1c3,0.3,5.5-1,6.7-1.7
			c0.8-0.7,1-0.6,1.2-0.5c0.2,0.1,0.3,0.4,0.2,0.6c0,0.1-0.3,0.3-0.6,0.6c-0.2,0.2-0.6,0.5-1.1,1c-3.2,3-3.5,25.8-3.3,34.3l0,0
			c0,0,0.3,6.8,0.7,16.3C104.9,343,104.7,343.2,104.4,343.2C104.4,343.2,104.4,343.2,104.4,343.2z"/>
	</g>
	<g clip-path="url(#SVGID_00000183968018586456293580000012456196218495426981_)">
		<path fill="#E0E0E0" d="M108.9,290.8C108.8,290.8,108.8,290.8,108.9,290.8c-0.4-0.1-0.5-0.3-0.5-0.6c6.3-35.3,39.2-71.1,39.6-71.4
			c0.2-0.2,0.5-0.2,0.7,0c0.2,0.2,0.2,0.5,0,0.7c-0.3,0.4-33,35.9-39.3,70.9C109.3,290.7,109.1,290.8,108.9,290.8z"/>
	</g>
	<g clip-path="url(#SVGID_00000183968018586456293580000012456196218495426981_)">
		<path fill="#E0E0E0" d="M108.9,290.8c-0.1,0-0.3,0-0.4-0.1c-0.2-0.2-0.2-0.5,0-0.7c26.9-27.3,53.1-21,53.3-21
			c0.3,0.1,0.4,0.3,0.4,0.6s-0.3,0.4-0.6,0.4c-0.3-0.1-25.9-6.2-52.4,20.7C109.1,290.8,109,290.8,108.9,290.8z"/>
	</g>
	<g clip-path="url(#SVGID_00000183968018586456293580000012456196218495426981_)">
		<path fill="#E0E0E0" d="M126.1,133.7c-11.7,0-21.2-8.9-21.3-20l0,0c-0.1-11.1,9.4-20.3,21.2-20.3c0.1,0,0.1,0,0.2,0
			c11.7,0,21.2,8.9,21.3,20c0,5.4-2.1,10.5-6.1,14.3c-4,3.8-9.3,6-15,6C126.2,133.7,126.2,133.7,126.1,133.7z M105.8,113.7
			c0.1,10.6,9.2,19.1,20.5,19c5.4,0,10.5-2.1,14.3-5.7c3.8-3.7,5.9-8.5,5.8-13.6c-0.1-10.5-9.2-19-20.3-19c-0.1,0-0.1,0-0.2,0
			C114.8,94.5,105.7,103.2,105.8,113.7L105.8,113.7z"/>
	</g>
	<g clip-path="url(#SVGID_00000183968018586456293580000012456196218495426981_)">
		<path fill="#E0E0E0" d="M130.7,342.7C130.7,342.7,130.7,342.7,130.7,342.7c-0.3,0-0.5-0.3-0.5-0.6c4-27.7,7.8-57.6,5.5-70.2
			c-5-27.3-10-52.4-10.1-52.6l-6.5-24.9c0-0.1,0-0.1,0-0.2c0.1-0.5,5.7-49.7,7.4-80.4c1.8-30.7,5.5-60.9,5.5-61.2
			c0-0.3,0.3-0.5,0.6-0.4c0.3,0,0.5,0.3,0.4,0.6c0,0.3-3.8,30.4-5.5,61.1c-1.7,30.1-7.2,77.9-7.4,80.3l6.5,24.8
			c0.1,0.3,5.1,25.3,10.1,52.7c2.3,12.7-1.3,41.4-5.5,70.5C131.2,342.5,130.9,342.7,130.7,342.7z"/>
	</g>
	<g clip-path="url(#SVGID_00000183968018586456293580000012456196218495426981_)">
		<line fill="#FFFFFF" x1="93.6" y1="113.9" x2="105.1" y2="113.8"/>
	</g>
	<g clip-path="url(#SVGID_00000183968018586456293580000012456196218495426981_)">
		
			<rect x="93.6" y="113.4" transform="matrix(1 -7.812262e-03 7.812262e-03 1 -0.8867 0.7792)" fill="#E0E0E0" width="11.5" height="1"/>
	</g>
	<g clip-path="url(#SVGID_00000183968018586456293580000012456196218495426981_)">
		<path fill="#E0E0E0" d="M93.6,114.4c-0.3,0-0.5-0.2-0.5-0.5c0-0.3,0.2-0.5,0.5-0.5l11.5-0.1c0,0,0,0,0,0c0.3,0,0.5,0.2,0.5,0.5
			c0,0.3-0.2,0.5-0.5,0.5L93.6,114.4C93.6,114.4,93.6,114.4,93.6,114.4z"/>
	</g>
	<g clip-path="url(#SVGID_00000183968018586456293580000012456196218495426981_)">
		<path fill="#E0E0E0" d="M73.1,137.4c-0.1,0-0.1,0-0.2,0c-12-0.1-21.3-9-25.1-17.9c0-0.1,0-0.1,0-0.2l0.3-10.8c0-0.1,0-0.1,0-0.2
			c3.7-8.9,13.2-14.6,24-14.5c7.3,0.1,12.7,3.1,17.5,5.8c3.5,1.9,6.5,3.6,9.3,3.5c3.1,0,6.8-2.1,10.9-4.3c4.5-2.4,9.7-5.2,14.7-5.5
			c11.8-0.7,22.7,6.4,25.9,17.1c0,0,0,0.1,0,0.1l0.4,8.2c0,0.1,0,0.1,0,0.2c-3.1,11.1-14.4,19.1-25.6,18.2
			c-6.3-0.5-10.1-2.6-14.9-5.2c-0.6-0.3-1.3-0.7-1.9-1c-0.5-0.3-1.1-0.7-1.8-1.1c-2-1.3-4.8-3.1-7.4-3c-2.4,0.1-4.3,1.4-6.4,2.8
			c-0.7,0.5-1.4,1-2.1,1.4l-0.5,0.3C84.9,134.4,80,137.4,73.1,137.4z M48.8,119.2c3.7,8.5,12.7,17.1,24.2,17.2
			c6.7,0,11.3-2.7,16.7-6l0.5-0.3c0.7-0.4,1.4-0.9,2.1-1.4c2.1-1.4,4.3-2.9,6.9-3c2.9-0.1,5.9,1.8,8,3.2c0.7,0.4,1.2,0.8,1.7,1
			c0.7,0.4,1.3,0.7,1.9,1c4.7,2.5,8.4,4.5,14.5,5.1c10.7,0.9,21.5-6.7,24.5-17.4l-0.4-8.1c-3.1-10.2-13.5-17-24.8-16.3
			c-4.8,0.3-9.6,2.9-14.3,5.4c-4.1,2.2-8,4.3-11.3,4.4c-3.2,0-6.2-1.7-9.8-3.7c-4.7-2.6-10-5.5-17.1-5.6c-10.4-0.2-19.4,5.2-23,13.8
			L48.8,119.2z"/>
	</g>
	<g clip-path="url(#SVGID_00000183968018586456293580000012456196218495426981_)">
		<path fill="#E0E0E0" d="M51.9,134.2c-0.3,0-0.5-0.2-0.5-0.5c0-0.3,0.2-0.5,0.5-0.5l95-0.8c0.3,0,0.5,0.2,0.5,0.5
			c0,0.3-0.2,0.5-0.5,0.5L51.9,134.2C51.9,134.2,51.9,134.2,51.9,134.2z"/>
	</g>
	<g clip-path="url(#SVGID_00000183968018586456293580000012456196218495426981_)">
		<path fill="#E0E0E0" d="M48.8,94.9c-0.3,0-0.5-0.2-0.5-0.5c0-0.3,0.2-0.5,0.5-0.5l100.7-0.8c0,0,0,0,0,0c0.3,0,0.5,0.2,0.5,0.5
			c0,0.3-0.2,0.5-0.5,0.5L48.8,94.9C48.8,94.9,48.8,94.9,48.8,94.9z"/>
	</g>
	<g clip-path="url(#SVGID_00000183968018586456293580000012456196218495426981_)">
		<path fill="#E0E0E0" d="M99.1,229.8c-28.8,0-47.5-9.4-47.7-9.5c-0.2-0.1-0.3-0.4-0.2-0.7c0.1-0.2,0.4-0.3,0.7-0.2
			c0.2,0.1,18.7,9.4,47.3,9.4c0.3,0,0.7,0,1,0c29.2-0.2,47.8-10,47.9-10.1c0.2-0.1,0.5,0,0.7,0.2s0,0.5-0.2,0.7
			c-0.2,0.1-19,10-48.4,10.3C99.8,229.8,99.4,229.8,99.1,229.8z"/>
	</g>
	<g clip-path="url(#SVGID_00000183968018586456293580000012456196218495426981_)">
		<path fill="#E0E0E0" d="M98.5,213.2c-23.9,0-40.5-5.4-40.6-5.4c-0.3-0.1-0.4-0.4-0.3-0.6c0.1-0.3,0.4-0.4,0.6-0.3
			c0.2,0.1,17.1,5.6,41.6,5.4c24.4-0.2,40.7-7.6,40.8-7.7c0.2-0.1,0.5,0,0.7,0.2c0.1,0.3,0,0.5-0.2,0.7c-0.2,0.1-16.6,7.6-41.2,7.8
			C99.4,213.2,99,213.2,98.5,213.2z"/>
	</g>
	<g clip-path="url(#SVGID_00000183968018586456293580000012456196218495426981_)">
		<path fill="#E0E0E0" d="M97.5,196.4c-23,0-31-4.9-31.4-5.1c-0.2-0.1-0.3-0.5-0.2-0.7c0.1-0.2,0.5-0.3,0.7-0.2
			c0.1,0.1,8.6,5.2,33,4.9c24.4-0.3,33.3-5.5,33.4-5.6c0.2-0.1,0.5-0.1,0.7,0.2c0.1,0.2,0.1,0.5-0.2,0.7c-0.4,0.2-9.3,5.4-33.9,5.7
			C98.9,196.4,98.2,196.4,97.5,196.4z"/>
	</g>
	<g clip-path="url(#SVGID_00000183968018586456293580000012456196218495426981_)">
		<path fill="#E0E0E0" d="M92,290.3c-0.2,0-0.3-0.1-0.4-0.2c-19.9-32.2-45.5-46.2-45.7-46.3c-0.2-0.1-0.3-0.4-0.2-0.7
			s0.4-0.3,0.7-0.2c0.3,0.1,26,14.3,46.1,46.7c0.1,0.2,0.1,0.5-0.2,0.7C92.2,290.3,92.1,290.3,92,290.3z"/>
	</g>
	<g clip-path="url(#SVGID_00000183968018586456293580000012456196218495426981_)">
		<path fill="#E0E0E0" d="M109,290.6c-0.1,0-0.2,0-0.3-0.1c-0.2-0.1-0.3-0.4-0.2-0.7c19.5-32.7,45.1-47.3,45.4-47.4
			c0.2-0.1,0.5,0,0.7,0.2c0.1,0.2,0,0.5-0.2,0.7c-0.3,0.1-25.6,14.5-45,47C109.4,290.5,109.2,290.6,109,290.6z"/>
	</g>
	<g clip-path="url(#SVGID_00000183968018586456293580000012456196218495426981_)">
		<path fill="#E0E0E0" d="M94.1,291.8c0,0-0.1,0-0.1,0c-0.4-0.1-44-11.4-52.9-4.7c-0.2,0.2-0.5,0.1-0.7-0.1
			c-0.2-0.2-0.1-0.5,0.1-0.7c9.3-7,52,4,53.8,4.5c0.3,0.1,0.4,0.3,0.4,0.6C94.6,291.7,94.3,291.8,94.1,291.8z"/>
	</g>
	<g clip-path="url(#SVGID_00000183968018586456293580000012456196218495426981_)">
		<path fill="#E0E0E0" d="M107.6,291.8c-0.2,0-0.4-0.1-0.5-0.4c-0.1-0.3,0.1-0.5,0.3-0.6c1.8-0.5,43.9-12.1,53.3-5.2
			c0.2,0.2,0.3,0.5,0.1,0.7c-0.2,0.2-0.5,0.3-0.7,0.1c-9.1-6.6-52,5.2-52.5,5.3C107.7,291.8,107.7,291.8,107.6,291.8z"/>
	</g>
	<g clip-path="url(#SVGID_00000183968018586456293580000012456196218495426981_)">
		<path fill="#E0E0E0" d="M97.6,251.3c-36.8,0-51.7-7.4-51.8-7.5c-0.2-0.1-0.3-0.4-0.2-0.7c0.1-0.2,0.4-0.3,0.7-0.2
			c0.1,0.1,15.4,7.7,53.5,7.4c38.2-0.3,54-8.2,54.2-8.2c0.2-0.1,0.5,0,0.7,0.2c0.1,0.2,0,0.5-0.2,0.7c-0.2,0.1-16.2,8.1-54.6,8.4
			C99.1,251.3,98.4,251.3,97.6,251.3z"/>
	</g>
	<g opacity="0.2" clip-path="url(#SVGID_00000183968018586456293580000012456196218495426981_)" enable-background="new    ">
		<g>
			<defs>
				<rect id="SVGID_00000073697781261162247000000015301036400053699725_" x="75.3" y="36" width="0.7" height="0.7"/>
			</defs>
			<clipPath id="SVGID_00000106833271324912694500000014991373080842098065_">
				<use xlink:href="#SVGID_00000073697781261162247000000015301036400053699725_"  overflow="visible"/>
			</clipPath>
			<g clip-path="url(#SVGID_00000106833271324912694500000014991373080842098065_)">
				<defs>
					<rect id="SVGID_00000121976750026407656150000017928510971862568862_" x="75.6" y="36" width="0.2" height="0"/>
				</defs>
				<clipPath id="SVGID_00000027578332433843909580000002902833213219861693_">
					<use xlink:href="#SVGID_00000121976750026407656150000017928510971862568862_"  overflow="visible"/>
				</clipPath>
				<g clip-path="url(#SVGID_00000027578332433843909580000002902833213219861693_)">
					<path fill="#FFFFFF" d="M75.8,36l-0.2,0L75.8,36z"/>
				</g>
			</g>
		</g>
	</g>
</g>
<g>
	<path d="M319.3,331.5H191.7v-57.4c0-41.4,27.8-84.3,28.1-84.7l0.2-0.4l0.4,0.2c0.3,0.1,28.6,12.5,68.9-0.7l0.4-0.1l0.2,0.3
		c0.3,0.5,29.5,47.4,29.5,84.5V331.5z M192.7,330.5h125.6v-57.3c0-35.1-26.5-79.3-29.1-83.6c-37.9,12.3-65.2,2.2-68.8,0.7
		c-2.6,4.2-27.7,44.7-27.7,83.8V330.5z"/>
</g>
<g>
	<path d="M254.2,212c-23.3,0-43.3-4.7-43.6-4.8l0.2-1c0.5,0.1,53.2,12.5,86.8-3.1l0.4,0.9C284.9,210.1,268.9,212,254.2,212z"/>
</g>
<g>
	<path d="M119.4,331.5H39V331c0-0.4,0-43.3,0.2-72.4c0.2-29.3,26.7-68.8,26.9-69.2l0.2-0.3l0.4,0.1c0.3,0.1,29.7,9.9,66.6-0.6
		l0.4-0.1l0.2,0.3c0.3,0.5,28.4,47.1,28.4,71v35.8h-43.1L119.4,331.5z M40,330.5h78.4l-0.3-35.9h43.1v-34.8
		c0-22.6-25.6-66-28.1-70.2c-34.7,9.8-62.9,1.7-66.4,0.6c-2.5,3.8-26.4,40.8-26.6,68.4C40,286,40,325.6,40,330.5z"/>
</g>
<g>
	<path d="M143,324.5c-3.8,0-6.9-3.1-6.9-6.9s3.1-6.9,6.9-6.9s6.9,3.1,6.9,6.9S146.8,324.5,143,324.5z M143,311.6
		c-3.3,0-5.9,2.7-5.9,5.9s2.7,5.9,5.9,5.9c3.3,0,5.9-2.7,5.9-5.9S146.3,311.6,143,311.6z"/>
</g>
<g>
	<rect x="118.7" y="313.2" width="19.2" height="1"/>
</g>
<g>
	<rect x="118.7" y="320.6" width="19.2" height="1"/>
</g>
<g>
	<path d="M148.8,315.3l-0.1-1c2.9-0.2,10.8-0.8,12.7-2l0.5,0.8C159.5,314.7,149.3,315.3,148.8,315.3z"/>
</g>
<g>
	<path d="M148.6,320.9l0-1c4.6-0.1,11.9-0.3,12.9-0.8l0.4,0.9C160.3,320.7,149.8,320.9,148.6,320.9z"/>
</g>
<g>
	<path d="M143,322.3c-2.6,0-4.7-2.1-4.7-4.7s2.1-4.7,4.7-4.7c2.6,0,4.7,2.1,4.7,4.7S145.6,322.3,143,322.3z M143,313.9
		c-2,0-3.7,1.7-3.7,3.7s1.7,3.7,3.7,3.7c2,0,3.7-1.7,3.7-3.7S145,313.9,143,313.9z"/>
</g>
<g>
	<rect x="118.2" y="192.3" width="1" height="102.9"/>
</g>
<g>
	<rect x="225" y="213.4" transform="matrix(0.1581 -0.9874 0.9874 0.1581 -18.2633 406.4635)" width="8.4" height="1"/>
</g>
<g>
	<rect x="278.8" y="209.3" transform="matrix(0.9874 -0.1585 0.1585 0.9874 -30.3461 46.9749)" width="1" height="8.8"/>
</g>
<g>
	<rect x="239.1" y="211.5" width="1" height="11.9"/>
</g>
<g>
	<rect x="263" y="211.5" width="1" height="11.9"/>
</g>
<g>
	<rect x="161.2" y="295.2" width="1" height="35.9"/>
</g>
<g id="ML-SK-06.1-SM" transform="translate(-58.182 -430.795)">
	<g id="Path_1564">
		<polygon fill="#FFFFFF" points="205.1,502.7 204.2,502.7 202.7,487.4 203.7,487.3 204.7,497.9 205.9,487.5 206.9,487.7 		"/>
	</g>
	<g id="ML-06.1" transform="translate(59.182 430.795)">
		<g id="Group_128" transform="translate(0 0)">
			<g id="ML-06.1-2">
				<g id="ML-06.1-3">
					<g id="needle-svgrepo-com" transform="translate(9.393 5.38)">
						<g id="Group_54" transform="translate(0)">
							<g id="Path_1024">
								<path fill="#C9B79C" d="M136.3,63.3c2-14.3,1.4-44.2,1.4-46.6c0-5.3-0.9-9.6-2.1-9.6s-2.1,4.3-2.1,9.6
									c0,2.3,0.9,39.3,1.6,46.5C135.4,65.4,136,65.4,136.3,63.3z M134.9,12.7c0-2.1,0.4-3.8,0.8-3.8s0.8,1.7,0.8,3.8
									s-0.4,3.8-0.8,3.8S134.9,14.8,134.9,12.7z"/>
							</g>
						</g>
					</g>
					<g id="Subtraction_34">
						<path d="M224,67.9L224,67.9c-1.6-0.2-3.3-0.3-4.9-0.4c-0.7,0-1.4,0-2-0.1c-0.6,0-1.4,0-2.2,0h-25l-0.1-1.1
							c1.1-0.2,2.1-0.5,3-0.9c0.7-0.4,1.2-1,1.4-1.7c0.4-1.2,0.6-2.4,0.6-3.7c0.1-1.6,0.1-4,0.1-7.1l0-10.2h5c0,1.5-0.1,3-0.1,4.4
							c0,3-0.1,6-0.1,8.9c0,2.7,0.1,4.7,0.2,6c0,0.9,0.3,1.7,0.7,2.4c0.6,0.4,1.3,0.6,2,0.7c2,0.2,4,0.3,6,0.2
							c2.8,0.1,5.7-0.2,8.5-0.8c1.8-0.4,3.5-1,5.1-1.7c1.6-1.1,2.8-2.8,3.1-4.7l1.2,0.1c-0.1,1-0.5,2.5-1,4.4
							C225.3,64.4,224.7,66.2,224,67.9L224,67.9z"/>
					</g>
					<g id="Path_1552">
						<path d="M204.2,23.1c0.4-1.2,3.1-8.2,3.1-9.5s-3.3-2.4-4.9-3.3S201,7.1,201,7.1H196c0,0,0.2,2.4-1.4,3.3
							c-1.6,0.8-4.9,2-4.9,3.3s2.7,8.1,3.1,9.5c0.5,1.3,1,3.7,0.5,5.1c-0.6,1.4-3.6,5.2-4.1,12.2l9.3,0.2h0.2l9-0.2
							c0.1-6-3.3-10.8-3.9-12.2S203.8,24.3,204.2,23.1z"/>
					</g>
					<g id="Path_1562">
						<path fill="#C9B79C" d="M146.7,69.3l-2,0l0-40.5c-0.1,0.1-0.2,0.2-0.4,0.3c-3.8,2.8-7.4,5.4-10.2,4.4
							c-1.3-0.4-1.6-1.3-1.6-1.8c-0.4-3.4,8.9-9.9,11.9-11.9l2.3-2l0,7.1c2.7-1.7,5.2-2.6,6.9-0.9c1.7,1.8,4.9,8.8,8.3,16.2
							c2.5,5.4,5.7,12.5,7.2,14.6c1-1.8,3.1-6,5.4-10.3c1.5-3,3.2-6.1,4.7-9l0.1-0.2c3.6-6.8,5.7-10.9,8.5-14.2l0.5-0.6l0.8,0.3
							c0.9,0.4,0.8,0.5-0.3,6.5c-1.8,9.6-5.9,32.1-1.4,38.3c0.6,0.8,1.3,1.3,2.2,1.4c1.1,0.2,2.2-0.2,3.3-1.2
							c5.1-4.4,8.3-19.1,8.3-25.3h2c0,5.7-3.1,21.7-9,26.8c-1.5,1.4-3.2,1.9-4.9,1.7c-1.4-0.2-2.7-1-3.6-2.2
							c-5-6.9-0.9-29.2,1.1-39.8c0.1-0.6,0.2-1.2,0.3-1.7c-1.8,2.7-3.6,6.1-6.1,10.9l-0.1,0.2c-1.5,2.9-3.2,6-4.7,9
							c-3.4,6.6-5.5,10.6-5.9,11.3c-0.2,0.4-0.7,0.6-1.1,0.6c-1.5-0.1-2.9-2.7-9.2-16.3c-3-6.6-6.5-14.1-7.9-15.6
							c-0.9-0.9-3.1,0.3-5.4,1.9L146.7,69.3z M134.6,31.4c0,0,0.1,0.1,0.3,0.1c1.8,0.6,5.3-1.9,8.4-4.2c0.5-0.4,1-0.8,1.5-1.1l0-4.2
							C139.1,26,134.3,30.3,134.6,31.4L134.6,31.4z"/>
					</g>
				</g>
			</g>
		</g>
		<g id="Group_127" transform="translate(5.872 51.556)">
			<g id="Rectangle_87" transform="matrix(0.995, -0.105, 0.105, 0.995, 1, 1.374)">
				<g>
					
						<rect x="132" y="21.1" transform="matrix(-1 -2.044939e-04 2.044939e-04 -1 267.5626 53.4596)" fill="#FFFFFF" width="3.6" height="11.2"/>
				</g>
				<g>
					<path fill="#FFFFFF" d="M132,32.3l0-11.2l3.6,0l0,11.2L132,32.3z M133,22.1l0,9.2l1.6,0l0-9.2L133,22.1z"/>
				</g>
			</g>
			<g id="Rectangle_88" transform="translate(7.466 0.986) rotate(8)">
				<g>
					
						<rect x="128.8" y="-7" transform="matrix(-5.573070e-02 0.9984 -0.9984 -5.573070e-02 136.9684 -140.373)" fill="#FFFFFF" width="12.2" height="3.2"/>
				</g>
				<g>
					<path fill="#FFFFFF" d="M136.1,0.8l-3.2-0.2l0.7-12.2l3.2,0.2L136.1,0.8z M134-0.4l1.2,0.1l0.6-10.2l-1.2-0.1L134-0.4z"/>
				</g>
			</g>
		</g>
	</g>
	<g id="skirt-svgrepo-com" transform="translate(112.285 449.718)">
		<g id="Path_1032">
			<path fill="#E3DDCD" d="M142.1,10.4h-2.5l-5.9,8.2c-0.2,0.2-0.2,0.5-0.1,0.8c0.1,0.1,1.3,2.6,6,3.9L142.1,10.4z"/>
		</g>
		<g id="Path_1033">
			<path fill="#E3DDCD" d="M151.1,9.3V7.9c0-0.4-0.3-0.7-0.7-0.7l0,0h-9.9c-0.4,0-0.7,0.3-0.7,0.7c0,0,0,0,0,0v1.4H151.1z"/>
		</g>
		<g id="Path_1034">
			<path fill="#E3DDCD" d="M147.7,10.4h-4.6l-2.7,14.2c3,1.8,6.8,1.8,9.9,0L147.7,10.4z"/>
		</g>
		<g id="Path_1035">
			<path fill="#E3DDCD" d="M157.2,18.6l-5.9-8.2h-2.5l2.4,12.9c4.7-1.4,6-3.8,6-3.9C157.4,19.1,157.3,18.8,157.2,18.6z"/>
		</g>
	</g>
</g>
</svg>
