<svg xmlns="http://www.w3.org/2000/svg" width="88.849" height="240.882" viewBox="0 0 88.849 240.882">
  <g id="Group_108" data-name="Group 108" transform="translate(-6.785 -2.635)">
    <g id="Group_66" data-name="Group 66" transform="translate(6.785 2.635)">
      <g id="freepik--Mannequin--inject-9" transform="translate(4.526 0)">
        <path id="Path_471" data-name="Path 471" d="M468,273.023H388.92a159.333,159.333,0,0,1,4.623-34.252c2.91-11.808,10.469-24.465,10.572-31.432s-9.928-39.493-11.009-42.493-4.584-22.3-4.082-24.311,25.959-7.855,28.148-11.795,2.189-17.461,2.189-17.461h18.323s0,13.533,2.176,17.461,27.71,9.876,28.1,11.795S464.9,161.7,463.8,164.744s-11.087,35.578-11.01,42.493,7.726,19.624,10.572,31.432A158.922,158.922,0,0,1,468,273.023Z" transform="translate(-388.92 -63.778)" fill="#ebebeb"/>
        <path id="Path_472" data-name="Path 472" d="M431.08,117.34a21.2,21.2,0,0,1-9.374,2.15,18.143,18.143,0,0,1-9.336-2.382c.18-3.206.18-5.769.18-5.769h18.323S430.874,114.005,431.08,117.34Z" transform="translate(-382.174 -63.761)" fill="#dbdbdb"/>
        <path id="Path_473" data-name="Path 473" d="M442.853,96.808c0,15.22-7.056,29.784-18.98,29.784S404.88,112.028,404.88,96.808c0-12.593,10.16-22.418,18.993-22.418S442.853,84.189,442.853,96.808Z" transform="translate(-384.329 -74.39)" fill="#ebebeb"/>
      </g>
      <g id="Waist" transform="translate(15.701 157.738)">
        <g id="Rectangle_9" data-name="Rectangle 9" transform="translate(0 0)" fill="#c9b79c" stroke="#c9b79c" stroke-width="1">
          <rect width="56.657" height="6.438" stroke="none"/>
          <rect x="0.5" y="0.5" width="55.657" height="5.438" fill="none"/>
        </g>
        <g id="Rectangle_31" data-name="Rectangle 31" transform="translate(0 0)" fill="#c9b79c" stroke="#c9b79c" stroke-width="1">
          <rect width="56.657" height="6.438" stroke="none"/>
          <rect x="0.5" y="0.5" width="55.657" height="5.438" fill="none"/>
        </g>
      </g>
      <g id="Hip" transform="translate(7.726 181.519)">
        <g id="Rectangle_10" data-name="Rectangle 10" transform="translate(0 0)" fill="#4f4537" stroke="#4f4537" stroke-width="1">
          <rect width="73.397" height="6.438" stroke="none"/>
          <rect x="0.5" y="0.5" width="72.397" height="5.438" fill="none"/>
        </g>
        <g id="Rectangle_30" data-name="Rectangle 30" transform="translate(0 0)" fill="#4f4537" stroke="#4f4537" stroke-width="1">
          <rect width="73.397" height="6.438" stroke="none"/>
          <rect x="0.5" y="0.5" width="72.397" height="5.438" fill="none"/>
        </g>
      </g>
      <g id="Hip_Height" data-name="Hip Height" transform="translate(32.441 157.739)">
        <g id="Rectangle_11" data-name="Rectangle 11" transform="translate(6.438 0) rotate(90)" stroke="#000" stroke-width="1">
          <rect width="30.219" height="6.438" stroke="none"/>
          <rect x="0.5" y="0.5" width="29.219" height="5.438" fill="none"/>
        </g>
      </g>
      <g id="Ellipse_4" data-name="Ellipse 4" transform="translate(41.205 163.533)" fill="#707070" stroke="#707070" stroke-width="1">
        <circle cx="2.575" cy="2.575" r="2.575" stroke="none"/>
        <circle cx="2.575" cy="2.575" r="2.075" fill="none"/>
      </g>
      <g id="Rectangle_32" data-name="Rectangle 32" transform="translate(27.144 157.738) rotate(90)" fill="#b5aa99" stroke="#b5aa99" stroke-width="1">
        <rect width="75.37" height="6.041" stroke="none"/>
        <rect x="0.5" y="0.5" width="74.37" height="5.041" fill="none"/>
      </g>
      <g id="Polygon_3" data-name="Polygon 3" transform="matrix(-1, -0.017, 0.017, -1, 29.194, 240.882)" fill="#b5aa99">
        <path d="M 9.439691543579102 8.513620376586914 L 0.8615885972976685 8.513620376586914 L 5.15064001083374 1.00778067111969 L 9.439691543579102 8.513620376586914 Z" stroke="none"/>
        <path d="M 5.15064001083374 2.015560626983643 L 1.723176956176758 8.013620376586914 L 8.578103065490723 8.013620376586914 L 5.15064001083374 2.015560626983643 M 5.15064001083374 9.5367431640625e-07 L 10.30128002166748 9.013620376586914 L 0 9.013620376586914 L 5.15064001083374 9.5367431640625e-07 Z" stroke="none" fill="#b5aa99"/>
      </g>
      <g id="Polygon_4" data-name="Polygon 4" transform="translate(6.688 166.108) rotate(-90)" fill="#c9b79c">
        <path d="M 9.439691543579102 8.513620376586914 L 0.8615885972976685 8.513620376586914 L 5.15064001083374 1.00778067111969 L 9.439691543579102 8.513620376586914 Z" stroke="none"/>
        <path d="M 5.15064001083374 2.015560626983643 L 1.723176956176758 8.013620376586914 L 8.578103065490723 8.013620376586914 L 5.15064001083374 2.015560626983643 M 5.15064001083374 9.5367431640625e-07 L 10.30128002166748 9.013620376586914 L 0 9.013620376586914 L 5.15064001083374 9.5367431640625e-07 Z" stroke="none" fill="#c9b79c"/>
      </g>
      <g id="Polygon_5" data-name="Polygon 5" transform="translate(81.372 155.807) rotate(90)" fill="#c9b79c">
        <path d="M 9.439691543579102 8.513620376586914 L 0.8615885972976685 8.513620376586914 L 5.15064001083374 1.00778067111969 L 9.439691543579102 8.513620376586914 Z" stroke="none"/>
        <path d="M 5.15064001083374 2.015560626983643 L 1.723176956176758 8.013620376586914 L 8.578103065490723 8.013620376586914 L 5.15064001083374 2.015560626983643 M 5.15064001083374 9.5367431640625e-07 L 10.30128002166748 9.013620376586914 L 0 9.013620376586914 L 5.15064001083374 9.5367431640625e-07 Z" stroke="none" fill="#c9b79c"/>
      </g>
      <g id="Polygon_6" data-name="Polygon 6" transform="translate(0 189.889) rotate(-90)" fill="#4f4537">
        <path d="M 9.439691543579102 8.513620376586914 L 0.8615885972976685 8.513620376586914 L 5.15064001083374 1.00778067111969 L 9.439691543579102 8.513620376586914 Z" stroke="none"/>
        <path d="M 5.15064001083374 2.015560626983643 L 1.723176956176758 8.013620376586914 L 8.578103065490723 8.013620376586914 L 5.15064001083374 2.015560626983643 M 5.15064001083374 9.5367431640625e-07 L 10.30128002166748 9.013620376586914 L 0 9.013620376586914 L 5.15064001083374 9.5367431640625e-07 Z" stroke="none" fill="#4f4537"/>
      </g>
      <g id="Polygon_7" data-name="Polygon 7" transform="translate(88.849 178.985) rotate(90)" fill="#4f4537">
        <path d="M 9.439691543579102 8.513620376586914 L 0.8615885972976685 8.513620376586914 L 5.15064001083374 1.00778067111969 L 9.439691543579102 8.513620376586914 Z" stroke="none"/>
        <path d="M 5.15064001083374 2.015560626983643 L 1.723176956176758 8.013620376586914 L 8.578103065490723 8.013620376586914 L 5.15064001083374 2.015560626983643 M 5.15064001083374 9.5367431640625e-07 L 10.30128002166748 9.013620376586914 L 0 9.013620376586914 L 5.15064001083374 9.5367431640625e-07 Z" stroke="none" fill="#4f4537"/>
      </g>
    </g>
  </g>
</svg>
