<svg xmlns="http://www.w3.org/2000/svg" width="196.529" height="129.409" viewBox="0 0 196.529 129.409">
  <g id="ML-06.3" transform="translate(-56.682 -232.795)">
    <g id="ML-06.1">
      <g id="ML-06.1-2" data-name="ML-06.1" transform="translate(-492.97 -831.092)">
        <g id="needle-svgrepo-com" transform="translate(572.118 1072.88)">
          <g id="Group_54" data-name="Group 54" transform="translate(0)">
            <path id="Path_1024" data-name="Path 1024" d="M219.4,115.219c4.014-29.377,2.92-90.788,2.92-95.589C222.318,8.788,220.406,0,218.042,0s-4.274,8.788-4.274,19.63c0,4.774,1.855,80.745,3.375,95.52C217.6,119.575,218.794,119.625,219.4,115.219ZM216.434,11.407c0-4.262.75-7.721,1.678-7.721s1.679,3.457,1.679,7.721-.75,7.719-1.679,7.719S216.434,15.671,216.434,11.407Z" transform="translate(-213.768)" fill="#c9b79c"/>
          </g>
        </g>
        <path id="Subtraction_34" data-name="Subtraction 34" d="M71.078,54.324h0a93.938,93.938,0,0,0-10.234-.747c-1.6-.051-3.01-.088-4.3-.112-1.313-.025-2.859-.038-4.594-.038H-.491L-.64,51.112A26.151,26.151,0,0,0,5.739,49.17a6.56,6.56,0,0,0,3-3.623,27.074,27.074,0,0,0,1.3-7.732c.2-3.426.3-8.428.3-14.867L10.446,0H20.859c-.082,3.783-.152,7.457-.207,10.921-.1,6.227-.149,12.511-.149,18.677,0,5.6.151,9.8.448,12.476s.8,4.387,1.494,5.081a9.553,9.553,0,0,0,4.221,1.419,108.258,108.258,0,0,0,12.588.448A77.69,77.69,0,0,0,57,47.3a46.642,46.642,0,0,0,10.721-3.661c3.172-1.933,5.384-5.276,6.574-9.936l2.466.3c-.3,2.038-.977,5.129-2.018,9.189a81.323,81.323,0,0,1-3.66,11.131Z" transform="translate(669.424 1137.053)"/>
        <path id="Path_1552" data-name="Path 1552" d="M84.891,193.316c.82-2.424,6.458-16.852,6.458-19.435s-6.708-5-9.976-6.7-2.928-6.708-2.928-6.708H68.018s.344,4.986-2.923,6.708-9.976,4.125-9.976,6.7,5.457,16.7,6.458,19.435,2.153,7.569.943,10.492-7.474,10.764-8.49,24.993l18.991.461h.431l18.453-.461c.159-12.326-6.751-22.07-7.952-24.993S84.071,195.74,84.891,193.316Z" transform="translate(612.24 903.417)"/>
        <path id="Path_1562" data-name="Path 1562" d="M10820.521,2600.358l.066-101.011-1.428,1.225s-31.67,21.035-21.676,24.366,30.723-23.32,37.756-15.917,31.227,69.391,34.188,64.578c1.328-2.158,12.811-24.461,21.756-41.572,7.285-13.937,11.766-22.547,17.426-29.047,2.818-3.242-22.191,91.821,1.826,95.118,16.666,2.288,26.237-41.7,26.237-56.529" transform="translate(-10243.381 -1408.982)" fill="none" stroke="#c9b79c" stroke-width="5"/>
      </g>
    </g>
    <g id="Rectangle_87" data-name="Rectangle 87" transform="matrix(0.995, -0.105, 0.105, 0.995, 73.291, 339.331)" fill="#fff" stroke="#fff" stroke-width="1">
      <rect width="8" height="23" stroke="none"/>
      <rect x="0.5" y="0.5" width="7" height="22" fill="none"/>
    </g>
    <g id="Rectangle_88" data-name="Rectangle 88" transform="translate(87.034 336.416) rotate(7)" fill="#f8f9fa" stroke="#f8f9fa" stroke-width="1">
      <rect width="8" height="25" stroke="none"/>
      <rect x="0.5" y="0.5" width="7" height="24" fill="none"/>
    </g>
  </g>
</svg>
