<svg xmlns="http://www.w3.org/2000/svg" width="110.796" height="76.366" viewBox="0 0 110.796 76.366">
  <g id="ML-01" transform="translate(-2205.906 171.428)">
    <g id="Group_125" data-name="Group 125" transform="translate(1791.406 -168.715)">
      <g id="Group_52" data-name="Group 52" transform="translate(390 -34.945)">
        <path id="Subtraction_7" data-name="Subtraction 7" d="M-6683.469-1928.944h0l.093-1.344c2.954-.522,5.076-1.295,6.309-2.3a7.158,7.158,0,0,0,2.412-4.338,96.45,96.45,0,0,0,1.069-10.158l1.39-24.214c.153-2.212.231-3.726.231-4.5a16.662,16.662,0,0,0-1.228-7.189,6.637,6.637,0,0,0-3.526-3.363,22.8,22.8,0,0,0-6.285-1.229l.185-1.763h0c.587,0,1.163.024,1.713.07s1.538.084,2.92.116c1.726.132,3.2.238,4.494.324,1.366.092,2.8.139,4.262.139.621-.032,1.167-.054,1.669-.069.543-.016,1.322-.024,2.316-.024,1.025,2.757,1.956,5.1,2.766,6.958.818,1.882,2.468,5.214,4.9,9.9,2.474,4.765,4.858,9.291,7.087,13.452q3.414,6.378,8.574,16.025c1.378-2.3,3.671-6.546,6.812-12.617.641-1.213,3.058-5.756,6.464-12.152,3.5-6.568,6.057-11.385,7.6-14.317l1.5,3.914c-.941,1.811-2.321,4.406-4.1,7.712-2.026,3.765-3.77,7.026-5.331,9.972-1.569,2.962-3.151,5.975-4.7,8.954-1.5,2.871-2.743,5.368-3.707,7.422-2.008,4.4-3.289,7.264-3.917,8.767s-1.262,3.254-1.877,5.195l-1.433.092c-.767-2.42-1.7-5.119-2.786-8.024a89.266,89.266,0,0,0-4.6-10.02c-3.962-7.547-9.2-17.592-16.021-30.707-.52,5.191-1.036,11.387-1.532,18.415-.493,7-.743,14.489-.743,22.265,0,2.4.507,4.1,1.508,5.057s3.381,1.641,7.075,2.04l-.094,1.53a55.493,55.493,0,0,0-6.587-.37l-5.612.092c-.625,0-1.226.008-1.787.024l-1.579.046-.762.023c-1.047.033-2.062.072-3.016.117C-6682.346-1928.967-6683.043-1928.944-6683.469-1928.944Zm77.605-57.99h0l-.717-1.87c.955-.015,1.8-.038,2.527-.071l-.094,1.716c-.6.07-1.18.146-1.715.225Z" transform="translate(6708.47 2034.481)" fill="#c9b79c" stroke="#c9b79c" stroke-width="1"/>
      </g>
      <path id="Subtraction_11" data-name="Subtraction 11" d="M-6837.149-1930.473h0a55.481,55.481,0,0,0-6.019-.438c-.948-.031-1.775-.052-2.528-.066s-1.636-.022-2.7-.022h-30.849l-.088-1.362a15.365,15.365,0,0,0,3.752-1.143,3.853,3.853,0,0,0,1.767-2.131,15.88,15.88,0,0,0,.765-4.548c.117-2.006.176-4.948.176-8.746l.062-13.511h6.125c-.047,2.15-.089,4.315-.123,6.435-.058,3.688-.088,7.384-.088,10.987,0,3.3.089,5.766.264,7.338a5.589,5.589,0,0,0,.879,2.989,5.609,5.609,0,0,0,2.483.836,64.056,64.056,0,0,0,7.4.262,45.7,45.7,0,0,0,10.438-1.01,27.408,27.408,0,0,0,6.306-2.153,9.118,9.118,0,0,0,3.868-5.845l1.45.176c-.177,1.2-.576,3.023-1.186,5.4a47.858,47.858,0,0,1-2.155,6.547Z" transform="translate(7358.534 2003.555)" stroke="#000" stroke-width="1"/>
      <g id="Group_53" data-name="Group 53" transform="translate(413.169 69.927)">
        <path id="Path_745" data-name="Path 745" d="M72.577,180.21c.153-1.552,3.881-10.128,3.881-11.68s-4.031-3.007-6-4.029S68.7,160.47,68.7,160.47H62.437s.207,3-1.757,4.031-6,2.479-6,4.029,3.726,10.13,3.881,11.68,1.294,4.549.567,6.306-4.492,6.469-5.1,15.02l11.414.277H65.7l11.09-.277c.1-7.408-4.057-13.264-4.779-15.02S72.427,181.763,72.577,180.21Z" transform="translate(10 -233.11)"/>
      </g>
    </g>
  </g>
</svg>
