<svg xmlns="http://www.w3.org/2000/svg" width="110.78" height="69.037" viewBox="0 0 110.78 69.037">
  <g id="ML-Logo1" transform="translate(-551.651 -1072.74)">
    <g id="Group_113" data-name="Group 113" transform="translate(528.168 1032.389)">
      <path id="Subtraction_7" data-name="Subtraction 7" d="M-6644.8-1929.5h0c-.779-2.457-1.717-5.157-2.786-8.025a89.141,89.141,0,0,0-4.6-10.018c-4.012-7.643-9.329-17.832-15.8-30.286v-10.922l.195-.006h.032c.546-.016,1.325-.023,2.316-.023,1.021,2.747,1.952,5.088,2.766,6.958s2.466,5.209,4.9,9.9c2.414,4.651,4.8,9.177,7.088,13.452,2.351,4.39,5.235,9.782,8.574,16.026,1.373-2.289,3.666-6.534,6.813-12.617.627-1.191,2.984-5.621,6.465-12.154,3.641-6.836,6.128-11.519,7.6-14.317l1.5,3.913c-.925,1.781-2.3,4.376-4.1,7.713-1.919,3.566-3.712,6.922-5.329,9.975-1.606,3.031-3.189,6.042-4.7,8.951-1.5,2.883-2.75,5.381-3.707,7.423-1.958,4.287-3.277,7.237-3.917,8.767-.631,1.511-1.262,3.259-1.875,5.2l-1.432.092Z" transform="translate(6708.47 2034.481)" fill="#c9b79c"/>
    </g>
    <g id="needle-svgrepo-com" transform="translate(350.003 1072.821)">
      <g id="Group_54" data-name="Group 54" transform="translate(213.768)">
        <path id="Path_1024" data-name="Path 1024" d="M217.044,67.049c2.336-17.095,1.7-52.832,1.7-55.625C218.744,5.114,217.631,0,216.255,0s-2.487,5.114-2.487,11.423c0,2.778,1.08,46.987,1.964,55.585C216,69.583,216.693,69.612,217.044,67.049Zm-1.725-60.41c0-2.48.437-4.493.976-4.493s.977,2.012.977,4.493-.436,4.492-.977,4.492S215.319,9.119,215.319,6.638Z" transform="translate(-213.768)"/>
      </g>
    </g>
    <path id="Subtraction_34" data-name="Subtraction 34" d="M-6837.149-1930.473h0a55.481,55.481,0,0,0-6.019-.438c-.948-.031-1.775-.052-2.528-.066s-1.636-.022-2.7-.022h-30.849l-.088-1.362a15.365,15.365,0,0,0,3.752-1.143,3.853,3.853,0,0,0,1.767-2.131,15.88,15.88,0,0,0,.765-4.548c.117-2.006.176-4.948.176-8.746l.062-13.511h6.125c-.047,2.15-.089,4.315-.123,6.435-.058,3.688-.088,7.384-.088,10.987,0,3.3.089,5.766.264,7.338a5.589,5.589,0,0,0,.879,2.989,5.609,5.609,0,0,0,2.483.836,64.056,64.056,0,0,0,7.4.262,45.7,45.7,0,0,0,10.438-1.01,27.408,27.408,0,0,0,6.306-2.153,9.118,9.118,0,0,0,3.868-5.845l1.45.176c-.177,1.2-.576,3.023-1.186,5.4a47.858,47.858,0,0,1-2.155,6.547Z" transform="translate(7496.239 3072.25)"/>
    <path id="Path_1552" data-name="Path 1552" d="M69.546,176.984c.128-1.3,3.247-8.472,3.247-9.771s-3.372-2.515-5.015-3.37-1.472-3.372-1.472-3.372H61.063s.173,2.507-1.47,3.372-5.015,2.074-5.015,3.37,3.117,8.474,3.247,9.771,1.082,3.805.474,5.275-3.758,5.411-4.269,12.565l9.548.232h.216l9.277-.232c.08-6.2-3.394-11.1-4-12.565S69.42,178.282,69.546,176.984Z" transform="translate(562.873 912.27)"/>
    <path id="Path_1553" data-name="Path 1553" d="M10810.074,2558.128l.039-58.781-.831.712s-18.43,12.24-12.614,14.179,17.879-13.571,21.972-9.262,18.171,40.38,19.894,37.58c1.439-2.338,15.689-32.925,22.8-41.095,1.641-1.887-12.913,53.433,1.063,55.351,9.7,1.331,19.883-21.423,14.261-29.462" transform="translate(-10243.382 -1416.352)" fill="none" stroke="#828282" stroke-width="1"/>
  </g>
</svg>
